%TF.GenerationSoftware,KiCad,Pcbnew,9.0.1*%
%TF.CreationDate,2025-05-11T23:30:35+05:30*%
%TF.ProjectId,Breadboard Power Supply,42726561-6462-46f6-9172-6420506f7765,1*%
%TF.SameCoordinates,Original*%
%TF.FileFunction,Copper,L2,Bot*%
%TF.FilePolarity,Positive*%
%FSLAX46Y46*%
G04 Gerber Fmt 4.6, Leading zero omitted, Abs format (unit mm)*
G04 Created by KiCad (PCBNEW 9.0.1) date 2025-05-11 23:30:35*
%MOMM*%
%LPD*%
G01*
G04 APERTURE LIST*
G04 Aperture macros list*
%AMRoundRect*
0 Rectangle with rounded corners*
0 $1 Rounding radius*
0 $2 $3 $4 $5 $6 $7 $8 $9 X,Y pos of 4 corners*
0 Add a 4 corners polygon primitive as box body*
4,1,4,$2,$3,$4,$5,$6,$7,$8,$9,$2,$3,0*
0 Add four circle primitives for the rounded corners*
1,1,$1+$1,$2,$3*
1,1,$1+$1,$4,$5*
1,1,$1+$1,$6,$7*
1,1,$1+$1,$8,$9*
0 Add four rect primitives between the rounded corners*
20,1,$1+$1,$2,$3,$4,$5,0*
20,1,$1+$1,$4,$5,$6,$7,0*
20,1,$1+$1,$6,$7,$8,$9,0*
20,1,$1+$1,$8,$9,$2,$3,0*%
G04 Aperture macros list end*
%TA.AperFunction,ComponentPad*%
%ADD10R,1.905000X2.000000*%
%TD*%
%TA.AperFunction,ComponentPad*%
%ADD11O,1.905000X2.000000*%
%TD*%
%TA.AperFunction,ComponentPad*%
%ADD12R,1.900000X1.900000*%
%TD*%
%TA.AperFunction,ComponentPad*%
%ADD13C,1.900000*%
%TD*%
%TA.AperFunction,ComponentPad*%
%ADD14C,1.400000*%
%TD*%
%TA.AperFunction,ComponentPad*%
%ADD15O,1.400000X1.400000*%
%TD*%
%TA.AperFunction,ComponentPad*%
%ADD16RoundRect,0.250001X-1.149999X-1.149999X1.149999X-1.149999X1.149999X1.149999X-1.149999X1.149999X0*%
%TD*%
%TA.AperFunction,ComponentPad*%
%ADD17C,2.800000*%
%TD*%
%TA.AperFunction,ComponentPad*%
%ADD18R,1.000000X1.000000*%
%TD*%
%TA.AperFunction,ComponentPad*%
%ADD19C,1.000000*%
%TD*%
%TA.AperFunction,ComponentPad*%
%ADD20R,3.500000X3.500000*%
%TD*%
%TA.AperFunction,ComponentPad*%
%ADD21RoundRect,0.750000X-0.750000X-1.000000X0.750000X-1.000000X0.750000X1.000000X-0.750000X1.000000X0*%
%TD*%
%TA.AperFunction,ComponentPad*%
%ADD22RoundRect,0.875000X-0.875000X-0.875000X0.875000X-0.875000X0.875000X0.875000X-0.875000X0.875000X0*%
%TD*%
%TA.AperFunction,ComponentPad*%
%ADD23R,1.800000X1.800000*%
%TD*%
%TA.AperFunction,ComponentPad*%
%ADD24C,1.800000*%
%TD*%
%TA.AperFunction,ComponentPad*%
%ADD25C,1.600000*%
%TD*%
%TA.AperFunction,ComponentPad*%
%ADD26C,1.200000*%
%TD*%
%TA.AperFunction,Conductor*%
%ADD27C,0.200000*%
%TD*%
G04 APERTURE END LIST*
D10*
%TO.P,U2,1,VI*%
%TO.N,/12V*%
X120420000Y-105445000D03*
D11*
%TO.P,U2,2,GND*%
%TO.N,GND*%
X122960000Y-105445000D03*
%TO.P,U2,3,VO*%
%TO.N,/5V*%
X125500000Y-105445000D03*
%TD*%
D10*
%TO.P,U1,1,ADJ*%
%TO.N,Net-(U1-ADJ)*%
X120420000Y-79445000D03*
D11*
%TO.P,U1,2,VO*%
%TO.N,/3.3V*%
X122960000Y-79445000D03*
%TO.P,U1,3,VI*%
%TO.N,/12V*%
X125500000Y-79445000D03*
%TD*%
D12*
%TO.P,S1,1*%
%TO.N,/12V*%
X137500000Y-77000000D03*
D13*
%TO.P,S1,2*%
%TO.N,/PWR_input*%
X135000000Y-77000000D03*
%TO.P,S1,3*%
%TO.N,unconnected-(S1-Pad3)*%
X132500000Y-77000000D03*
%TD*%
D14*
%TO.P,R3,1*%
%TO.N,/3.3V*%
X130690000Y-100500000D03*
D15*
%TO.P,R3,2*%
%TO.N,Net-(U1-ADJ)*%
X138310000Y-100500000D03*
%TD*%
D14*
%TO.P,R2,1*%
%TO.N,Net-(U1-ADJ)*%
X138120000Y-104500000D03*
D15*
%TO.P,R2,2*%
%TO.N,GND*%
X130500000Y-104500000D03*
%TD*%
D14*
%TO.P,R1,1*%
%TO.N,/12V*%
X131190000Y-82000000D03*
D15*
%TO.P,R1,2*%
%TO.N,Net-(D1-A)*%
X138810000Y-82000000D03*
%TD*%
D16*
%TO.P,J7,1,Pin_1*%
%TO.N,GND*%
X132500000Y-113000000D03*
D17*
%TO.P,J7,2,Pin_2*%
%TO.N,/PWR_output*%
X137500000Y-113000000D03*
%TD*%
D18*
%TO.P,J6,1,Pin_1*%
%TO.N,/3.3V*%
X124460000Y-115500000D03*
D19*
%TO.P,J6,2,Pin_2*%
%TO.N,/PWR_output*%
X125730000Y-115500000D03*
%TO.P,J6,3,Pin_3*%
%TO.N,/5V*%
X127000000Y-115500000D03*
%TD*%
D18*
%TO.P,J5,1,Pin_1*%
%TO.N,/3.3V*%
X123960000Y-66500000D03*
D19*
%TO.P,J5,2,Pin_2*%
%TO.N,/PWR_output*%
X125230000Y-66500000D03*
%TO.P,J5,3,Pin_3*%
%TO.N,/5V*%
X126500000Y-66500000D03*
%TD*%
D18*
%TO.P,J4,1,Pin_1*%
%TO.N,GND*%
X143000000Y-66500000D03*
D19*
%TO.P,J4,2,Pin_2*%
%TO.N,/PWR_output*%
X143000000Y-67770000D03*
%TD*%
D18*
%TO.P,J3,1,Pin_1*%
%TO.N,GND*%
X143000000Y-114750000D03*
D19*
%TO.P,J3,2,Pin_2*%
%TO.N,/PWR_output*%
X143000000Y-116020000D03*
%TD*%
D16*
%TO.P,J2,1,Pin_1*%
%TO.N,GND*%
X132500000Y-69500000D03*
D17*
%TO.P,J2,2,Pin_2*%
%TO.N,/PWR_output*%
X137500000Y-69500000D03*
%TD*%
D20*
%TO.P,J1,1*%
%TO.N,/PWR_input*%
X130500000Y-90500000D03*
D21*
%TO.P,J1,2*%
%TO.N,GND*%
X124500000Y-90500000D03*
D22*
%TO.P,J1,3*%
X127500000Y-95200000D03*
%TD*%
D23*
%TO.P,D1,1,K*%
%TO.N,GND*%
X135730000Y-90500000D03*
D24*
%TO.P,D1,2,A*%
%TO.N,Net-(D1-A)*%
X138270000Y-90500000D03*
%TD*%
D25*
%TO.P,C3,1*%
%TO.N,/3.3V*%
X119250000Y-72000000D03*
%TO.P,C3,2*%
%TO.N,GND*%
X121750000Y-72000000D03*
%TD*%
%TO.P,C2,1*%
%TO.N,/5V*%
X126750000Y-111000000D03*
%TO.P,C2,2*%
%TO.N,GND*%
X124250000Y-111000000D03*
%TD*%
D26*
%TO.P,C1,1*%
%TO.N,/12V*%
X124750000Y-72000000D03*
%TO.P,C1,2*%
%TO.N,GND*%
X126250000Y-72000000D03*
%TD*%
D27*
%TO.N,/3.3V*%
X119250000Y-72000000D02*
X119250000Y-75735000D01*
X119250000Y-75735000D02*
X122960000Y-79445000D01*
%TO.N,Net-(U1-ADJ)*%
X138310000Y-100500000D02*
X138310000Y-98310000D01*
X138310000Y-98310000D02*
X138000000Y-98000000D01*
X120420000Y-95920000D02*
X120420000Y-79445000D01*
X138000000Y-98000000D02*
X122500000Y-98000000D01*
X122500000Y-98000000D02*
X120420000Y-95920000D01*
%TO.N,/3.3V*%
X124460000Y-115500000D02*
X124460000Y-114540000D01*
X128000000Y-113000000D02*
X129500000Y-111500000D01*
X124460000Y-114540000D02*
X126000000Y-113000000D01*
X126000000Y-113000000D02*
X128000000Y-113000000D01*
X129500000Y-111500000D02*
X129500000Y-107500000D01*
X129500000Y-107500000D02*
X129000000Y-107000000D01*
X129000000Y-107000000D02*
X129000000Y-102190000D01*
X129000000Y-102190000D02*
X130690000Y-100500000D01*
%TD*%
%TA.AperFunction,Conductor*%
%TO.N,GND*%
G36*
X144016177Y-65020185D02*
G01*
X144036819Y-65036819D01*
X144463181Y-65463181D01*
X144496666Y-65524504D01*
X144499500Y-65550862D01*
X144499500Y-68949137D01*
X144479815Y-69016176D01*
X144463181Y-69036818D01*
X144036818Y-69463181D01*
X143975495Y-69496666D01*
X143949137Y-69499500D01*
X141912465Y-69499500D01*
X141740062Y-69529898D01*
X141575553Y-69589775D01*
X141423942Y-69677309D01*
X141289836Y-69789836D01*
X141177309Y-69923942D01*
X141089775Y-70075553D01*
X141029898Y-70240062D01*
X140999500Y-70412465D01*
X140999500Y-112587532D01*
X140999528Y-112587852D01*
X141000000Y-112598661D01*
X141000000Y-113000000D01*
X141500000Y-113500000D01*
X141901336Y-113500000D01*
X141912136Y-113500471D01*
X141912468Y-113500500D01*
X141934108Y-113500500D01*
X143943015Y-113500500D01*
X144010054Y-113520185D01*
X144037566Y-113544275D01*
X144212121Y-113750000D01*
X144470051Y-114053989D01*
X144498414Y-114117841D01*
X144499500Y-114134213D01*
X144499500Y-117375500D01*
X144479815Y-117442539D01*
X144427011Y-117488294D01*
X144375500Y-117499500D01*
X117550862Y-117499500D01*
X117483823Y-117479815D01*
X117463181Y-117463181D01*
X117036819Y-117036819D01*
X117003334Y-116975496D01*
X117000500Y-116949138D01*
X117000500Y-116501500D01*
X118124000Y-116501500D01*
X118750500Y-116501500D01*
X119748500Y-116501500D01*
X121250500Y-116501500D01*
X129748500Y-116501500D01*
X131250500Y-116501500D01*
X131250500Y-115898000D01*
X132248500Y-115898000D01*
X132248500Y-116501500D01*
X133750500Y-116501500D01*
X133750500Y-115896720D01*
X133738050Y-115897355D01*
X133734896Y-115897475D01*
X133715825Y-115897960D01*
X133712673Y-115898000D01*
X132549454Y-115898000D01*
X132502000Y-115888561D01*
X132500000Y-115887732D01*
X132498000Y-115888561D01*
X132450546Y-115898000D01*
X132248500Y-115898000D01*
X131250500Y-115898000D01*
X131250500Y-115896771D01*
X131236579Y-115896063D01*
X131233428Y-115895862D01*
X131214379Y-115894405D01*
X131211233Y-115894124D01*
X131068777Y-115879570D01*
X131062068Y-115878699D01*
X131021634Y-115872324D01*
X131014983Y-115871088D01*
X130961734Y-115859686D01*
X130955166Y-115858092D01*
X130915698Y-115847362D01*
X130909225Y-115845411D01*
X130689396Y-115772567D01*
X130682619Y-115770100D01*
X130642067Y-115753990D01*
X130635446Y-115751135D01*
X130582799Y-115726587D01*
X130576352Y-115723349D01*
X130537927Y-115702631D01*
X130531679Y-115699024D01*
X130333008Y-115576483D01*
X130326980Y-115572518D01*
X130291220Y-115547478D01*
X130285434Y-115543170D01*
X130251499Y-115516337D01*
X134748500Y-115516337D01*
X134748500Y-116501500D01*
X136250500Y-116501500D01*
X136250500Y-115890400D01*
X137248500Y-115890400D01*
X137248500Y-116501500D01*
X138750500Y-116501500D01*
X139748500Y-116501500D01*
X141058124Y-116501500D01*
X141015896Y-116289208D01*
X141014855Y-116283211D01*
X141009451Y-116246779D01*
X141008706Y-116240738D01*
X141003903Y-116191966D01*
X141003455Y-116185896D01*
X141001649Y-116149124D01*
X141001500Y-116143041D01*
X141001500Y-116118543D01*
X141999499Y-116118543D01*
X142037947Y-116311829D01*
X142037950Y-116311839D01*
X142113364Y-116493907D01*
X142113371Y-116493920D01*
X142222860Y-116657781D01*
X142222863Y-116657785D01*
X142362214Y-116797136D01*
X142362218Y-116797139D01*
X142526079Y-116906628D01*
X142526092Y-116906635D01*
X142708160Y-116982049D01*
X142708165Y-116982051D01*
X142708169Y-116982051D01*
X142708170Y-116982052D01*
X142901456Y-117020500D01*
X142901459Y-117020500D01*
X143098543Y-117020500D01*
X143228582Y-116994632D01*
X143291835Y-116982051D01*
X143473914Y-116906632D01*
X143637782Y-116797139D01*
X143777139Y-116657782D01*
X143886632Y-116493914D01*
X143962051Y-116311835D01*
X144000500Y-116118541D01*
X144000500Y-115921459D01*
X144000500Y-115921456D01*
X143962052Y-115728170D01*
X143962051Y-115728169D01*
X143962051Y-115728165D01*
X143919458Y-115625337D01*
X143911990Y-115555869D01*
X143934757Y-115503571D01*
X143943351Y-115492091D01*
X143993597Y-115357376D01*
X143993598Y-115357372D01*
X143999999Y-115297844D01*
X144000000Y-115297827D01*
X144000000Y-115000000D01*
X143209618Y-115000000D01*
X143260064Y-114949554D01*
X143302851Y-114875445D01*
X143325000Y-114792787D01*
X143325000Y-114707213D01*
X143302851Y-114624555D01*
X143260064Y-114550446D01*
X143209618Y-114500000D01*
X143250000Y-114500000D01*
X144000000Y-114500000D01*
X144000000Y-114202172D01*
X143999999Y-114202155D01*
X143993598Y-114142627D01*
X143993596Y-114142620D01*
X143943354Y-114007913D01*
X143943350Y-114007906D01*
X143857190Y-113892812D01*
X143857187Y-113892809D01*
X143742093Y-113806649D01*
X143742086Y-113806645D01*
X143607379Y-113756403D01*
X143607372Y-113756401D01*
X143547844Y-113750000D01*
X143250000Y-113750000D01*
X143250000Y-114500000D01*
X143209618Y-114500000D01*
X143199554Y-114489936D01*
X143125445Y-114447149D01*
X143042787Y-114425000D01*
X142957213Y-114425000D01*
X142874555Y-114447149D01*
X142800446Y-114489936D01*
X142739936Y-114550446D01*
X142697149Y-114624555D01*
X142675000Y-114707213D01*
X142675000Y-114792787D01*
X142697149Y-114875445D01*
X142739936Y-114949554D01*
X142790382Y-115000000D01*
X142000000Y-115000000D01*
X142000000Y-115297844D01*
X142006401Y-115357372D01*
X142006402Y-115357376D01*
X142056647Y-115492088D01*
X142056649Y-115492092D01*
X142065247Y-115503577D01*
X142089663Y-115569041D01*
X142080541Y-115625337D01*
X142053584Y-115690418D01*
X142037950Y-115728164D01*
X142037948Y-115728168D01*
X142037947Y-115728171D01*
X141999500Y-115921456D01*
X141999500Y-115921459D01*
X141999500Y-116118541D01*
X141999500Y-116118543D01*
X141999499Y-116118543D01*
X141001500Y-116118543D01*
X141001500Y-115896959D01*
X141001649Y-115890876D01*
X141003455Y-115854104D01*
X141003903Y-115848034D01*
X141008706Y-115799262D01*
X141009451Y-115793221D01*
X141014855Y-115756789D01*
X141015896Y-115750792D01*
X141042402Y-115617535D01*
X141042316Y-115617215D01*
X141027972Y-115556503D01*
X141026428Y-115548916D01*
X141018522Y-115502738D01*
X141017455Y-115495069D01*
X141006289Y-115391217D01*
X141005977Y-115387905D01*
X141004364Y-115367856D01*
X141004142Y-115364542D01*
X141002713Y-115337855D01*
X141002580Y-115334539D01*
X141002044Y-115314491D01*
X141002000Y-115311177D01*
X141002000Y-115248500D01*
X139748500Y-115248500D01*
X139748500Y-116501500D01*
X138750500Y-116501500D01*
X138750500Y-115618980D01*
X138743109Y-115622329D01*
X138739386Y-115623943D01*
X138479047Y-115731779D01*
X138475276Y-115733269D01*
X138452330Y-115741906D01*
X138448512Y-115743272D01*
X138417582Y-115753773D01*
X138413718Y-115755015D01*
X138390204Y-115762149D01*
X138386298Y-115763265D01*
X138114093Y-115836203D01*
X138110156Y-115837189D01*
X138086254Y-115842762D01*
X138082290Y-115843618D01*
X138050253Y-115849991D01*
X138046255Y-115850719D01*
X138022034Y-115854717D01*
X138018025Y-115855311D01*
X137738638Y-115892094D01*
X137734606Y-115892558D01*
X137710177Y-115894964D01*
X137706131Y-115895296D01*
X137673535Y-115897432D01*
X137669484Y-115897631D01*
X137644953Y-115898434D01*
X137640896Y-115898500D01*
X137359104Y-115898500D01*
X137355047Y-115898434D01*
X137330516Y-115897631D01*
X137326465Y-115897432D01*
X137293869Y-115895296D01*
X137289823Y-115894964D01*
X137265394Y-115892558D01*
X137261362Y-115892094D01*
X137248500Y-115890400D01*
X136250500Y-115890400D01*
X136250500Y-115619433D01*
X136234516Y-115612191D01*
X136230844Y-115610454D01*
X136201549Y-115596006D01*
X136197940Y-115594152D01*
X136176309Y-115582589D01*
X136172766Y-115580620D01*
X135928729Y-115439726D01*
X135925250Y-115437641D01*
X135904400Y-115424676D01*
X135900988Y-115422476D01*
X135873828Y-115404328D01*
X135870491Y-115402019D01*
X135850544Y-115387725D01*
X135847286Y-115385308D01*
X135668994Y-115248500D01*
X135016338Y-115248500D01*
X135007140Y-115260132D01*
X135002503Y-115265658D01*
X134973492Y-115298256D01*
X134968544Y-115303500D01*
X134803500Y-115468544D01*
X134798256Y-115473492D01*
X134765658Y-115502503D01*
X134760132Y-115507140D01*
X134748500Y-115516337D01*
X130251499Y-115516337D01*
X130239868Y-115507140D01*
X130234342Y-115502503D01*
X130201744Y-115473492D01*
X130196500Y-115468544D01*
X130031456Y-115303500D01*
X130026508Y-115298256D01*
X129997497Y-115265658D01*
X129992860Y-115260132D01*
X129983662Y-115248500D01*
X129748500Y-115248500D01*
X129748500Y-116501500D01*
X121250500Y-116501500D01*
X121250500Y-115248500D01*
X119748500Y-115248500D01*
X119748500Y-116501500D01*
X118750500Y-116501500D01*
X118750500Y-115248500D01*
X118124000Y-115248500D01*
X118124000Y-116501500D01*
X117000500Y-116501500D01*
X117000500Y-114250500D01*
X118124000Y-114250500D01*
X118750500Y-114250500D01*
X119748500Y-114250500D01*
X121250500Y-114250500D01*
X122248500Y-114250500D01*
X122656049Y-114250500D01*
X122657372Y-114248077D01*
X122661890Y-114240463D01*
X122690854Y-114195396D01*
X122695902Y-114188126D01*
X122824886Y-114015827D01*
X122830439Y-114008936D01*
X122865519Y-113968451D01*
X122871551Y-113961972D01*
X122921972Y-113911551D01*
X122928451Y-113905519D01*
X122968936Y-113870439D01*
X122975825Y-113864886D01*
X123025426Y-113827752D01*
X123066408Y-113756772D01*
X123131528Y-113643980D01*
X123135814Y-113637088D01*
X123163102Y-113596250D01*
X123167829Y-113589653D01*
X123207619Y-113537800D01*
X123212766Y-113531529D01*
X123245137Y-113494618D01*
X123250683Y-113488697D01*
X123550424Y-113188954D01*
X123423942Y-113147857D01*
X123419348Y-113146264D01*
X123391739Y-113136080D01*
X123387208Y-113134307D01*
X123350992Y-113119309D01*
X123346526Y-113117355D01*
X123319752Y-113105013D01*
X123315367Y-113102887D01*
X123098107Y-112992188D01*
X123093813Y-112989893D01*
X123068116Y-112975502D01*
X123063916Y-112973040D01*
X123030492Y-112952558D01*
X123026393Y-112949934D01*
X123001895Y-112933566D01*
X122997897Y-112930780D01*
X122758089Y-112756547D01*
X122750938Y-112748500D01*
X122248500Y-112748500D01*
X122248500Y-114250500D01*
X121250500Y-114250500D01*
X121250500Y-112748500D01*
X119748500Y-112748500D01*
X119748500Y-114250500D01*
X118750500Y-114250500D01*
X118750500Y-112748500D01*
X118124000Y-112748500D01*
X118124000Y-114250500D01*
X117000500Y-114250500D01*
X117000500Y-111750500D01*
X118124000Y-111750500D01*
X118750500Y-111750500D01*
X119748500Y-111750500D01*
X121250500Y-111750500D01*
X121250500Y-110897682D01*
X122950000Y-110897682D01*
X122950000Y-111102317D01*
X122982009Y-111304417D01*
X123045244Y-111499031D01*
X123138141Y-111681350D01*
X123138147Y-111681359D01*
X123170523Y-111725921D01*
X123170524Y-111725922D01*
X123850000Y-111046446D01*
X123850000Y-111052661D01*
X123877259Y-111154394D01*
X123929920Y-111245606D01*
X124004394Y-111320080D01*
X124095606Y-111372741D01*
X124197339Y-111400000D01*
X124203553Y-111400000D01*
X123524076Y-112079474D01*
X123568650Y-112111859D01*
X123750968Y-112204755D01*
X123945582Y-112267990D01*
X124147683Y-112300000D01*
X124352317Y-112300000D01*
X124554417Y-112267990D01*
X124749031Y-112204755D01*
X124931349Y-112111859D01*
X124975921Y-112079474D01*
X124296447Y-111400000D01*
X124302661Y-111400000D01*
X124404394Y-111372741D01*
X124495606Y-111320080D01*
X124570080Y-111245606D01*
X124622741Y-111154394D01*
X124650000Y-111052661D01*
X124650000Y-111046447D01*
X125329474Y-111725921D01*
X125361859Y-111681349D01*
X125389233Y-111627624D01*
X125437207Y-111576827D01*
X125505028Y-111560031D01*
X125571163Y-111582567D01*
X125610203Y-111627621D01*
X125637713Y-111681611D01*
X125758028Y-111847213D01*
X125902786Y-111991971D01*
X126023226Y-112079474D01*
X126068390Y-112112287D01*
X126155042Y-112156438D01*
X126171874Y-112165015D01*
X126222670Y-112212990D01*
X126239465Y-112280811D01*
X126216927Y-112346946D01*
X126162212Y-112390397D01*
X126115579Y-112399500D01*
X126086669Y-112399500D01*
X126086653Y-112399499D01*
X126079057Y-112399499D01*
X125920943Y-112399499D01*
X125829588Y-112423978D01*
X125768210Y-112440424D01*
X125768209Y-112440425D01*
X125718096Y-112469359D01*
X125718095Y-112469360D01*
X125674689Y-112494420D01*
X125631285Y-112519479D01*
X125631282Y-112519481D01*
X123979481Y-114171282D01*
X123979477Y-114171287D01*
X123930699Y-114255775D01*
X123900424Y-114308211D01*
X123900423Y-114308212D01*
X123887122Y-114357853D01*
X123863432Y-114446261D01*
X123827069Y-114505920D01*
X123786992Y-114530348D01*
X123717671Y-114556202D01*
X123717664Y-114556206D01*
X123602455Y-114642452D01*
X123602452Y-114642455D01*
X123516206Y-114757664D01*
X123516202Y-114757671D01*
X123465908Y-114892517D01*
X123459501Y-114952116D01*
X123459500Y-114952135D01*
X123459500Y-116047870D01*
X123459501Y-116047876D01*
X123465908Y-116107483D01*
X123516202Y-116242328D01*
X123516206Y-116242335D01*
X123602452Y-116357544D01*
X123602455Y-116357547D01*
X123717664Y-116443793D01*
X123717671Y-116443797D01*
X123852517Y-116494091D01*
X123852516Y-116494091D01*
X123859444Y-116494835D01*
X123912127Y-116500500D01*
X125007872Y-116500499D01*
X125067483Y-116494091D01*
X125202331Y-116443796D01*
X125214110Y-116434977D01*
X125279570Y-116410558D01*
X125335872Y-116419680D01*
X125438165Y-116462051D01*
X125438169Y-116462051D01*
X125438170Y-116462052D01*
X125631456Y-116500500D01*
X125631459Y-116500500D01*
X125828543Y-116500500D01*
X125958582Y-116474632D01*
X126021835Y-116462051D01*
X126203914Y-116386632D01*
X126296109Y-116325029D01*
X126362786Y-116304151D01*
X126430166Y-116322635D01*
X126433891Y-116325029D01*
X126526080Y-116386628D01*
X126526086Y-116386632D01*
X126526088Y-116386633D01*
X126526092Y-116386635D01*
X126708160Y-116462049D01*
X126708165Y-116462051D01*
X126708169Y-116462051D01*
X126708170Y-116462052D01*
X126901456Y-116500500D01*
X126901459Y-116500500D01*
X127098543Y-116500500D01*
X127228582Y-116474632D01*
X127291835Y-116462051D01*
X127473914Y-116386632D01*
X127637782Y-116277139D01*
X127777139Y-116137782D01*
X127886632Y-115973914D01*
X127962051Y-115791835D01*
X127979795Y-115702631D01*
X128000500Y-115598543D01*
X128000500Y-115401456D01*
X127962052Y-115208170D01*
X127962051Y-115208169D01*
X127962051Y-115208165D01*
X127962049Y-115208160D01*
X127886635Y-115026092D01*
X127886628Y-115026079D01*
X127777139Y-114862218D01*
X127777136Y-114862214D01*
X127637785Y-114722863D01*
X127637781Y-114722860D01*
X127473920Y-114613371D01*
X127473907Y-114613364D01*
X127291839Y-114537950D01*
X127291829Y-114537947D01*
X127098543Y-114499500D01*
X127098541Y-114499500D01*
X126901459Y-114499500D01*
X126901457Y-114499500D01*
X126708170Y-114537947D01*
X126708160Y-114537950D01*
X126526089Y-114613366D01*
X126433890Y-114674971D01*
X126367213Y-114695848D01*
X126299833Y-114677363D01*
X126296110Y-114674971D01*
X126247441Y-114642452D01*
X126203914Y-114613368D01*
X126203911Y-114613366D01*
X126203910Y-114613366D01*
X126021839Y-114537950D01*
X126021829Y-114537947D01*
X125828543Y-114499500D01*
X125828541Y-114499500D01*
X125649096Y-114499500D01*
X125582057Y-114479815D01*
X125536302Y-114427011D01*
X125526358Y-114357853D01*
X125555383Y-114294297D01*
X125561415Y-114287819D01*
X125789755Y-114059480D01*
X126212416Y-113636819D01*
X126273739Y-113603334D01*
X126300097Y-113600500D01*
X127913331Y-113600500D01*
X127913347Y-113600501D01*
X127920943Y-113600501D01*
X128079054Y-113600501D01*
X128079057Y-113600501D01*
X128231785Y-113559577D01*
X128281904Y-113530639D01*
X128368716Y-113480520D01*
X128480520Y-113368716D01*
X128480520Y-113368714D01*
X128490728Y-113358507D01*
X128490730Y-113358504D01*
X129858506Y-111990728D01*
X129858511Y-111990724D01*
X129868714Y-111980520D01*
X129868716Y-111980520D01*
X129980520Y-111868716D01*
X130020185Y-111800014D01*
X130600000Y-111800014D01*
X130600000Y-112750000D01*
X131899999Y-112750000D01*
X131874979Y-112810402D01*
X131850000Y-112935981D01*
X131850000Y-113064019D01*
X131874979Y-113189598D01*
X131899999Y-113250000D01*
X130600000Y-113250000D01*
X130600000Y-114199985D01*
X130610493Y-114302689D01*
X130610494Y-114302696D01*
X130665641Y-114469118D01*
X130665643Y-114469123D01*
X130757684Y-114618344D01*
X130881655Y-114742315D01*
X131030876Y-114834356D01*
X131030881Y-114834358D01*
X131197303Y-114889505D01*
X131197310Y-114889506D01*
X131300014Y-114899999D01*
X131300027Y-114900000D01*
X132250000Y-114900000D01*
X132250000Y-113600001D01*
X132310402Y-113625021D01*
X132435981Y-113650000D01*
X132564019Y-113650000D01*
X132689598Y-113625021D01*
X132750000Y-113600001D01*
X132750000Y-114900000D01*
X133699973Y-114900000D01*
X133699985Y-114899999D01*
X133802689Y-114889506D01*
X133802696Y-114889505D01*
X133969118Y-114834358D01*
X133969123Y-114834356D01*
X134118344Y-114742315D01*
X134242315Y-114618344D01*
X134334356Y-114469123D01*
X134334358Y-114469118D01*
X134389505Y-114302696D01*
X134389506Y-114302689D01*
X134399999Y-114199985D01*
X134400000Y-114199972D01*
X134400000Y-113250000D01*
X133100001Y-113250000D01*
X133125021Y-113189598D01*
X133150000Y-113064019D01*
X133150000Y-112935981D01*
X133137958Y-112875441D01*
X135599500Y-112875441D01*
X135599500Y-113124558D01*
X135599501Y-113124575D01*
X135631642Y-113368716D01*
X135632018Y-113371565D01*
X135663404Y-113488697D01*
X135696498Y-113612207D01*
X135791830Y-113842361D01*
X135791837Y-113842376D01*
X135916400Y-114058126D01*
X136068060Y-114255774D01*
X136068066Y-114255781D01*
X136244218Y-114431933D01*
X136244225Y-114431939D01*
X136441873Y-114583599D01*
X136657623Y-114708162D01*
X136657638Y-114708169D01*
X136693113Y-114722863D01*
X136887793Y-114803502D01*
X137128435Y-114867982D01*
X137375435Y-114900500D01*
X137375442Y-114900500D01*
X137624558Y-114900500D01*
X137624565Y-114900500D01*
X137871565Y-114867982D01*
X138112207Y-114803502D01*
X138342373Y-114708164D01*
X138558127Y-114583599D01*
X138755776Y-114431938D01*
X138931938Y-114255776D01*
X138973083Y-114202155D01*
X142000000Y-114202155D01*
X142000000Y-114500000D01*
X142750000Y-114500000D01*
X142750000Y-113750000D01*
X142452155Y-113750000D01*
X142392627Y-113756401D01*
X142392620Y-113756403D01*
X142257913Y-113806645D01*
X142257906Y-113806649D01*
X142142812Y-113892809D01*
X142142809Y-113892812D01*
X142056649Y-114007906D01*
X142056645Y-114007913D01*
X142006403Y-114142620D01*
X142006401Y-114142627D01*
X142000000Y-114202155D01*
X138973083Y-114202155D01*
X139083599Y-114058127D01*
X139208164Y-113842373D01*
X139303502Y-113612207D01*
X139367982Y-113371565D01*
X139400500Y-113124565D01*
X139400500Y-112875435D01*
X139367982Y-112628435D01*
X139303502Y-112387793D01*
X139227685Y-112204755D01*
X139208169Y-112157638D01*
X139208162Y-112157623D01*
X139083599Y-111941873D01*
X138931939Y-111744225D01*
X138931933Y-111744218D01*
X138755781Y-111568066D01*
X138755774Y-111568060D01*
X138558126Y-111416400D01*
X138342376Y-111291837D01*
X138342361Y-111291830D01*
X138112207Y-111196498D01*
X137871561Y-111132017D01*
X137624575Y-111099501D01*
X137624570Y-111099500D01*
X137624565Y-111099500D01*
X137375435Y-111099500D01*
X137375429Y-111099500D01*
X137375424Y-111099501D01*
X137128438Y-111132017D01*
X136887792Y-111196498D01*
X136657638Y-111291830D01*
X136657623Y-111291837D01*
X136441873Y-111416400D01*
X136244225Y-111568060D01*
X136244218Y-111568066D01*
X136068066Y-111744218D01*
X136068060Y-111744225D01*
X135916400Y-111941873D01*
X135791837Y-112157623D01*
X135791830Y-112157638D01*
X135696498Y-112387792D01*
X135632017Y-112628438D01*
X135599501Y-112875424D01*
X135599500Y-112875441D01*
X133137958Y-112875441D01*
X133125021Y-112810402D01*
X133100001Y-112750000D01*
X134400000Y-112750000D01*
X134400000Y-111800027D01*
X134399999Y-111800014D01*
X134389506Y-111697310D01*
X134389505Y-111697303D01*
X134334358Y-111530881D01*
X134334356Y-111530876D01*
X134242315Y-111381655D01*
X134118344Y-111257684D01*
X133969123Y-111165643D01*
X133969118Y-111165641D01*
X133802696Y-111110494D01*
X133802689Y-111110493D01*
X133699985Y-111100000D01*
X132750000Y-111100000D01*
X132750000Y-112399998D01*
X132689598Y-112374979D01*
X132564019Y-112350000D01*
X132435981Y-112350000D01*
X132310402Y-112374979D01*
X132250000Y-112399998D01*
X132250000Y-111100000D01*
X131300014Y-111100000D01*
X131197310Y-111110493D01*
X131197303Y-111110494D01*
X131030881Y-111165641D01*
X131030876Y-111165643D01*
X130881655Y-111257684D01*
X130757684Y-111381655D01*
X130665643Y-111530876D01*
X130665641Y-111530881D01*
X130610494Y-111697303D01*
X130610493Y-111697310D01*
X130600000Y-111800014D01*
X130020185Y-111800014D01*
X130059577Y-111731784D01*
X130100500Y-111579057D01*
X130100500Y-110483662D01*
X134748500Y-110483662D01*
X134760132Y-110492860D01*
X134765658Y-110497497D01*
X134798256Y-110526508D01*
X134803500Y-110531456D01*
X134968544Y-110696500D01*
X134973492Y-110701744D01*
X135002503Y-110734342D01*
X135007140Y-110739868D01*
X135043170Y-110785434D01*
X135047478Y-110791220D01*
X135072518Y-110826980D01*
X135076483Y-110833008D01*
X135199024Y-111031679D01*
X135202631Y-111037927D01*
X135223349Y-111076352D01*
X135226587Y-111082799D01*
X135251135Y-111135446D01*
X135253990Y-111142067D01*
X135260188Y-111157670D01*
X135286236Y-111123725D01*
X135288759Y-111120545D01*
X135304330Y-111101572D01*
X135306954Y-111098481D01*
X135328491Y-111073922D01*
X135331217Y-111070914D01*
X135347998Y-111052997D01*
X135350820Y-111050081D01*
X135550081Y-110850820D01*
X135552997Y-110847998D01*
X135570914Y-110831217D01*
X135573922Y-110828491D01*
X135598481Y-110806954D01*
X135601572Y-110804330D01*
X135620545Y-110788759D01*
X135623725Y-110786236D01*
X135847286Y-110614692D01*
X135850544Y-110612275D01*
X135870491Y-110597981D01*
X135873828Y-110595672D01*
X135900988Y-110577524D01*
X135904400Y-110575324D01*
X135925250Y-110562359D01*
X135928729Y-110560274D01*
X136172766Y-110419380D01*
X136176309Y-110417411D01*
X136197940Y-110405848D01*
X136201549Y-110403994D01*
X136230844Y-110389546D01*
X136234516Y-110387809D01*
X136250500Y-110380566D01*
X136250500Y-110248500D01*
X134748500Y-110248500D01*
X134748500Y-110483662D01*
X130100500Y-110483662D01*
X130100500Y-109250500D01*
X132248500Y-109250500D01*
X133750500Y-109250500D01*
X134748500Y-109250500D01*
X136250500Y-109250500D01*
X137248500Y-109250500D01*
X138750500Y-109250500D01*
X138750500Y-107748500D01*
X137248500Y-107748500D01*
X137248500Y-109250500D01*
X136250500Y-109250500D01*
X136250500Y-107748500D01*
X134748500Y-107748500D01*
X134748500Y-109250500D01*
X133750500Y-109250500D01*
X133750500Y-107748500D01*
X132248500Y-107748500D01*
X132248500Y-109250500D01*
X130100500Y-109250500D01*
X130100500Y-107589060D01*
X130100501Y-107589047D01*
X130100501Y-107420944D01*
X130100501Y-107420943D01*
X130059577Y-107268216D01*
X130038544Y-107231785D01*
X129980524Y-107131290D01*
X129980518Y-107131282D01*
X129636819Y-106787583D01*
X129603334Y-106726260D01*
X129600500Y-106699902D01*
X129600500Y-105832859D01*
X132248500Y-105832859D01*
X132248500Y-106750500D01*
X133750500Y-106750500D01*
X134748500Y-106750500D01*
X136250500Y-106750500D01*
X136250500Y-105664025D01*
X136232060Y-105633934D01*
X136229599Y-105629736D01*
X136215208Y-105604040D01*
X136212912Y-105599743D01*
X136109324Y-105396438D01*
X136107199Y-105392056D01*
X136094856Y-105365281D01*
X136092901Y-105360813D01*
X136077903Y-105324597D01*
X136076131Y-105320067D01*
X136065947Y-105292459D01*
X136064353Y-105287864D01*
X136051562Y-105248500D01*
X134748500Y-105248500D01*
X134748500Y-106750500D01*
X133750500Y-106750500D01*
X133750500Y-105248500D01*
X132567912Y-105248500D01*
X132555181Y-105287683D01*
X132553585Y-105292284D01*
X132543386Y-105319929D01*
X132541611Y-105324465D01*
X132526609Y-105360681D01*
X132524659Y-105365139D01*
X132512330Y-105391883D01*
X132510205Y-105396265D01*
X132406659Y-105599483D01*
X132404363Y-105603777D01*
X132389973Y-105629472D01*
X132387512Y-105633671D01*
X132367031Y-105667094D01*
X132364405Y-105671197D01*
X132348038Y-105695692D01*
X132345255Y-105699686D01*
X132248500Y-105832859D01*
X129600500Y-105832859D01*
X129600500Y-105573120D01*
X129620185Y-105506081D01*
X129672989Y-105460326D01*
X129742147Y-105450382D01*
X129797386Y-105472802D01*
X129871062Y-105526331D01*
X130039362Y-105612085D01*
X130218997Y-105670451D01*
X130250000Y-105675362D01*
X130250000Y-105675361D01*
X130750000Y-105675361D01*
X130781002Y-105670451D01*
X130960637Y-105612085D01*
X131128940Y-105526329D01*
X131281741Y-105415314D01*
X131281746Y-105415310D01*
X131415310Y-105281746D01*
X131415314Y-105281741D01*
X131526329Y-105128940D01*
X131612085Y-104960637D01*
X131670451Y-104781002D01*
X131675362Y-104750000D01*
X130750000Y-104750000D01*
X130750000Y-105675361D01*
X130250000Y-105675361D01*
X130250000Y-104744975D01*
X130285095Y-104780070D01*
X130364905Y-104826148D01*
X130453922Y-104850000D01*
X130546078Y-104850000D01*
X130635095Y-104826148D01*
X130714905Y-104780070D01*
X130780070Y-104714905D01*
X130826148Y-104635095D01*
X130850000Y-104546078D01*
X130850000Y-104453922D01*
X130837029Y-104405513D01*
X136919500Y-104405513D01*
X136919500Y-104594486D01*
X136949059Y-104781118D01*
X137007454Y-104960836D01*
X137082078Y-105107292D01*
X137093240Y-105129199D01*
X137204310Y-105282073D01*
X137337927Y-105415690D01*
X137490801Y-105526760D01*
X137570347Y-105567290D01*
X137659163Y-105612545D01*
X137659165Y-105612545D01*
X137659168Y-105612547D01*
X137712070Y-105629736D01*
X137838881Y-105670940D01*
X138025514Y-105700500D01*
X138025519Y-105700500D01*
X138214486Y-105700500D01*
X138401118Y-105670940D01*
X138422400Y-105664025D01*
X138580832Y-105612547D01*
X138749199Y-105526760D01*
X138902073Y-105415690D01*
X139035690Y-105282073D01*
X139146760Y-105129199D01*
X139232547Y-104960832D01*
X139290940Y-104781118D01*
X139301427Y-104714905D01*
X139320500Y-104594486D01*
X139320500Y-104405513D01*
X139290940Y-104218881D01*
X139248236Y-104087454D01*
X139232547Y-104039168D01*
X139232545Y-104039165D01*
X139232545Y-104039163D01*
X139184311Y-103944500D01*
X139146760Y-103870801D01*
X139035690Y-103717927D01*
X138902073Y-103584310D01*
X138749199Y-103473240D01*
X138580836Y-103387454D01*
X138401118Y-103329059D01*
X138214486Y-103299500D01*
X138214481Y-103299500D01*
X138025519Y-103299500D01*
X138025514Y-103299500D01*
X137838881Y-103329059D01*
X137659163Y-103387454D01*
X137490800Y-103473240D01*
X137416536Y-103527197D01*
X137337927Y-103584310D01*
X137337925Y-103584312D01*
X137337924Y-103584312D01*
X137204312Y-103717924D01*
X137204312Y-103717925D01*
X137204310Y-103717927D01*
X137204070Y-103718258D01*
X137093240Y-103870800D01*
X137007454Y-104039163D01*
X136949059Y-104218881D01*
X136919500Y-104405513D01*
X130837029Y-104405513D01*
X130826148Y-104364905D01*
X130780070Y-104285095D01*
X130744975Y-104250000D01*
X130750000Y-104250000D01*
X131675362Y-104250000D01*
X131670451Y-104218997D01*
X131612085Y-104039362D01*
X131526329Y-103871059D01*
X131415314Y-103718258D01*
X131415310Y-103718253D01*
X131281746Y-103584689D01*
X131281741Y-103584685D01*
X131128940Y-103473670D01*
X130960635Y-103387913D01*
X130781004Y-103329549D01*
X130780995Y-103329547D01*
X130750000Y-103324637D01*
X130750000Y-104250000D01*
X130744975Y-104250000D01*
X130714905Y-104219930D01*
X130635095Y-104173852D01*
X130546078Y-104150000D01*
X130453922Y-104150000D01*
X130364905Y-104173852D01*
X130285095Y-104219930D01*
X130250000Y-104255025D01*
X130250000Y-103324637D01*
X130249999Y-103324637D01*
X130219004Y-103329547D01*
X130218995Y-103329549D01*
X130039364Y-103387913D01*
X129871059Y-103473670D01*
X129797385Y-103527197D01*
X129731578Y-103550677D01*
X129663525Y-103534851D01*
X129614830Y-103484745D01*
X129600500Y-103426879D01*
X129600500Y-103167140D01*
X132248500Y-103167140D01*
X132345255Y-103300315D01*
X132348038Y-103304308D01*
X132364405Y-103328803D01*
X132367031Y-103332906D01*
X132387512Y-103366329D01*
X132389973Y-103370528D01*
X132404363Y-103396223D01*
X132406659Y-103400517D01*
X132510205Y-103603735D01*
X132512330Y-103608117D01*
X132524659Y-103634861D01*
X132526609Y-103639319D01*
X132541611Y-103675535D01*
X132543386Y-103680071D01*
X132553585Y-103707716D01*
X132555181Y-103712317D01*
X132625667Y-103929252D01*
X132627081Y-103933914D01*
X132635081Y-103962282D01*
X132636312Y-103966999D01*
X132645460Y-104005114D01*
X132646501Y-104009861D01*
X132652244Y-104038732D01*
X132653100Y-104043526D01*
X132685881Y-104250500D01*
X133750500Y-104250500D01*
X134748500Y-104250500D01*
X135933612Y-104250500D01*
X135966412Y-104043414D01*
X135967267Y-104038625D01*
X135973007Y-104009763D01*
X135974049Y-104005013D01*
X135983197Y-103966894D01*
X135984427Y-103962176D01*
X135992430Y-103933796D01*
X135993845Y-103929132D01*
X136064353Y-103712136D01*
X136065947Y-103707541D01*
X136076131Y-103679933D01*
X136077903Y-103675403D01*
X136092901Y-103639187D01*
X136094856Y-103634719D01*
X136107199Y-103607944D01*
X136109324Y-103603562D01*
X136212912Y-103400257D01*
X136215208Y-103395960D01*
X136229599Y-103370264D01*
X136232060Y-103366066D01*
X136250500Y-103335974D01*
X136250500Y-102748500D01*
X134748500Y-102748500D01*
X134748500Y-104250500D01*
X133750500Y-104250500D01*
X133750500Y-102748500D01*
X132248500Y-102748500D01*
X132248500Y-103167140D01*
X129600500Y-103167140D01*
X129600500Y-102490096D01*
X129620185Y-102423057D01*
X129636815Y-102402419D01*
X130288733Y-101750500D01*
X132498955Y-101750500D01*
X133750500Y-101750500D01*
X134748500Y-101750500D01*
X136250500Y-101750500D01*
X136250500Y-101276005D01*
X136183845Y-101070868D01*
X136182430Y-101066204D01*
X136174427Y-101037824D01*
X136173197Y-101033106D01*
X136164049Y-100994987D01*
X136163007Y-100990237D01*
X136157267Y-100961375D01*
X136156412Y-100956586D01*
X136120719Y-100731235D01*
X136120051Y-100726405D01*
X136116588Y-100697133D01*
X136116111Y-100692289D01*
X136113037Y-100653209D01*
X136112750Y-100648350D01*
X136111595Y-100618936D01*
X136111500Y-100614071D01*
X136111500Y-100385929D01*
X136111595Y-100381064D01*
X136112750Y-100351650D01*
X136113037Y-100346791D01*
X136116111Y-100307711D01*
X136116588Y-100302867D01*
X136120051Y-100273595D01*
X136120719Y-100268765D01*
X136123929Y-100248500D01*
X134748500Y-100248500D01*
X134748500Y-101750500D01*
X133750500Y-101750500D01*
X133750500Y-100248500D01*
X132876071Y-100248500D01*
X132879281Y-100268765D01*
X132879949Y-100273595D01*
X132883412Y-100302867D01*
X132883889Y-100307711D01*
X132886963Y-100346791D01*
X132887250Y-100351650D01*
X132888405Y-100381064D01*
X132888500Y-100385929D01*
X132888500Y-100614071D01*
X132888405Y-100618936D01*
X132887250Y-100648350D01*
X132886963Y-100653209D01*
X132883889Y-100692289D01*
X132883412Y-100697133D01*
X132879949Y-100726405D01*
X132879281Y-100731235D01*
X132843588Y-100956586D01*
X132842733Y-100961375D01*
X132836993Y-100990237D01*
X132835951Y-100994987D01*
X132826803Y-101033106D01*
X132825573Y-101037824D01*
X132817570Y-101066204D01*
X132816155Y-101070868D01*
X132745647Y-101287864D01*
X132744053Y-101292459D01*
X132733869Y-101320067D01*
X132732097Y-101324597D01*
X132717099Y-101360813D01*
X132715144Y-101365281D01*
X132702801Y-101392056D01*
X132700676Y-101396438D01*
X132597088Y-101599743D01*
X132594792Y-101604040D01*
X132580401Y-101629736D01*
X132577940Y-101633934D01*
X132557458Y-101667358D01*
X132554834Y-101671457D01*
X132538466Y-101695955D01*
X132535680Y-101699953D01*
X132498955Y-101750500D01*
X130288733Y-101750500D01*
X130329169Y-101710064D01*
X130390490Y-101676581D01*
X130436246Y-101675274D01*
X130595514Y-101700500D01*
X130595519Y-101700500D01*
X130784486Y-101700500D01*
X130971118Y-101670940D01*
X131002975Y-101660589D01*
X131150832Y-101612547D01*
X131319199Y-101526760D01*
X131472073Y-101415690D01*
X131605690Y-101282073D01*
X131716760Y-101129199D01*
X131802547Y-100960832D01*
X131860940Y-100781118D01*
X131890500Y-100594486D01*
X131890500Y-100405513D01*
X131860940Y-100218881D01*
X131802545Y-100039163D01*
X131716759Y-99870800D01*
X131605690Y-99717927D01*
X131472073Y-99584310D01*
X131319199Y-99473240D01*
X131290500Y-99458617D01*
X131150836Y-99387454D01*
X130971118Y-99329059D01*
X130784486Y-99299500D01*
X130784481Y-99299500D01*
X130595519Y-99299500D01*
X130595514Y-99299500D01*
X130408881Y-99329059D01*
X130229163Y-99387454D01*
X130060800Y-99473240D01*
X129973579Y-99536610D01*
X129907927Y-99584310D01*
X129907925Y-99584312D01*
X129907924Y-99584312D01*
X129774312Y-99717924D01*
X129774312Y-99717925D01*
X129774310Y-99717927D01*
X129726610Y-99783579D01*
X129663240Y-99870800D01*
X129577454Y-100039163D01*
X129519059Y-100218881D01*
X129489500Y-100405513D01*
X129489500Y-100594486D01*
X129514725Y-100753751D01*
X129505770Y-100823045D01*
X129479933Y-100860830D01*
X128631286Y-101709478D01*
X128519481Y-101821282D01*
X128519479Y-101821285D01*
X128469361Y-101908094D01*
X128469359Y-101908096D01*
X128440425Y-101958209D01*
X128440424Y-101958210D01*
X128440423Y-101958215D01*
X128399499Y-102110943D01*
X128399499Y-102110945D01*
X128399499Y-102279046D01*
X128399500Y-102279059D01*
X128399500Y-106913330D01*
X128399499Y-106913348D01*
X128399499Y-107079054D01*
X128399498Y-107079054D01*
X128399499Y-107079057D01*
X128440423Y-107231785D01*
X128461457Y-107268216D01*
X128500139Y-107335216D01*
X128519479Y-107368715D01*
X128631285Y-107480521D01*
X128863181Y-107712416D01*
X128896666Y-107773739D01*
X128899500Y-107800097D01*
X128899500Y-111199903D01*
X128879815Y-111266942D01*
X128863181Y-111287584D01*
X127787584Y-112363181D01*
X127726261Y-112396666D01*
X127699903Y-112399500D01*
X127384421Y-112399500D01*
X127317382Y-112379815D01*
X127271627Y-112327011D01*
X127261683Y-112257853D01*
X127290708Y-112194297D01*
X127328126Y-112165015D01*
X127342633Y-112157623D01*
X127431610Y-112112287D01*
X127524590Y-112044732D01*
X127597213Y-111991971D01*
X127597215Y-111991968D01*
X127597219Y-111991966D01*
X127741966Y-111847219D01*
X127741968Y-111847215D01*
X127741971Y-111847213D01*
X127816795Y-111744225D01*
X127862287Y-111681610D01*
X127955220Y-111499219D01*
X128018477Y-111304534D01*
X128050500Y-111102352D01*
X128050500Y-110897648D01*
X128032727Y-110785434D01*
X128018477Y-110695465D01*
X127963579Y-110526508D01*
X127955220Y-110500781D01*
X127955218Y-110500778D01*
X127955218Y-110500776D01*
X127905904Y-110403994D01*
X127862287Y-110318390D01*
X127830092Y-110274077D01*
X127741971Y-110152786D01*
X127597213Y-110008028D01*
X127431613Y-109887715D01*
X127431612Y-109887714D01*
X127431610Y-109887713D01*
X127374653Y-109858691D01*
X127249223Y-109794781D01*
X127054534Y-109731522D01*
X126879995Y-109703878D01*
X126852352Y-109699500D01*
X126647648Y-109699500D01*
X126623329Y-109703351D01*
X126445465Y-109731522D01*
X126250776Y-109794781D01*
X126068386Y-109887715D01*
X125902786Y-110008028D01*
X125758028Y-110152786D01*
X125637714Y-110318386D01*
X125610203Y-110372379D01*
X125562227Y-110423174D01*
X125494406Y-110439968D01*
X125428272Y-110417429D01*
X125389234Y-110372376D01*
X125361861Y-110318652D01*
X125329474Y-110274077D01*
X125329474Y-110274076D01*
X124650000Y-110953551D01*
X124650000Y-110947339D01*
X124622741Y-110845606D01*
X124570080Y-110754394D01*
X124495606Y-110679920D01*
X124404394Y-110627259D01*
X124302661Y-110600000D01*
X124296446Y-110600000D01*
X124975922Y-109920524D01*
X124975921Y-109920523D01*
X124931359Y-109888147D01*
X124931350Y-109888141D01*
X124749031Y-109795244D01*
X124554417Y-109732009D01*
X124352317Y-109700000D01*
X124147683Y-109700000D01*
X123945582Y-109732009D01*
X123750968Y-109795244D01*
X123568644Y-109888143D01*
X123524077Y-109920523D01*
X123524077Y-109920524D01*
X124203554Y-110600000D01*
X124197339Y-110600000D01*
X124095606Y-110627259D01*
X124004394Y-110679920D01*
X123929920Y-110754394D01*
X123877259Y-110845606D01*
X123850000Y-110947339D01*
X123850000Y-110953553D01*
X123170524Y-110274077D01*
X123170523Y-110274077D01*
X123138143Y-110318644D01*
X123045244Y-110500968D01*
X122982009Y-110695582D01*
X122950000Y-110897682D01*
X121250500Y-110897682D01*
X121250500Y-110248500D01*
X119748500Y-110248500D01*
X119748500Y-111750500D01*
X118750500Y-111750500D01*
X118750500Y-110248500D01*
X118124000Y-110248500D01*
X118124000Y-111750500D01*
X117000500Y-111750500D01*
X117000500Y-109250500D01*
X118124000Y-109250500D01*
X118750500Y-109250500D01*
X119748500Y-109250500D01*
X121250500Y-109250500D01*
X121250500Y-107943499D01*
X119748500Y-107943499D01*
X119748500Y-109250500D01*
X118750500Y-109250500D01*
X118750500Y-107837927D01*
X122248500Y-107837927D01*
X122248500Y-109250500D01*
X122751825Y-109250500D01*
X122758098Y-109243441D01*
X122997920Y-109069204D01*
X123001920Y-109066416D01*
X123026441Y-109050034D01*
X123030545Y-109047408D01*
X123063969Y-109026930D01*
X123068166Y-109024470D01*
X123093834Y-109010097D01*
X123098122Y-109007805D01*
X123315366Y-108897114D01*
X123319749Y-108894989D01*
X123346524Y-108882646D01*
X123350992Y-108880691D01*
X123387208Y-108865693D01*
X123391739Y-108863920D01*
X123419348Y-108853736D01*
X123423942Y-108852143D01*
X123655834Y-108776795D01*
X123660497Y-108775381D01*
X123688876Y-108767378D01*
X123693595Y-108766147D01*
X123731714Y-108756999D01*
X123736464Y-108755957D01*
X123750500Y-108753165D01*
X123750500Y-108752966D01*
X124748500Y-108752966D01*
X124763536Y-108755957D01*
X124768286Y-108756999D01*
X124806405Y-108766147D01*
X124811124Y-108767378D01*
X124839503Y-108775381D01*
X124844166Y-108776795D01*
X125076058Y-108852143D01*
X125080652Y-108853736D01*
X125108261Y-108863920D01*
X125112792Y-108865693D01*
X125149008Y-108880691D01*
X125153476Y-108882646D01*
X125180251Y-108894989D01*
X125184634Y-108897114D01*
X125401884Y-109007808D01*
X125406175Y-109010102D01*
X125431854Y-109024482D01*
X125436049Y-109026940D01*
X125469474Y-109047419D01*
X125473583Y-109050049D01*
X125498095Y-109066427D01*
X125499563Y-109067450D01*
X125501637Y-109066005D01*
X125526131Y-109049639D01*
X125530233Y-109047014D01*
X125563656Y-109026533D01*
X125567856Y-109024071D01*
X125593552Y-109009681D01*
X125597845Y-109007386D01*
X125815173Y-108896651D01*
X125819557Y-108894525D01*
X125846333Y-108882182D01*
X125850800Y-108880228D01*
X125887016Y-108865230D01*
X125891547Y-108863457D01*
X125919156Y-108853273D01*
X125923750Y-108851680D01*
X126155717Y-108776308D01*
X126160380Y-108774894D01*
X126188759Y-108766891D01*
X126193478Y-108765660D01*
X126231597Y-108756512D01*
X126236348Y-108755470D01*
X126250500Y-108752655D01*
X126250500Y-108752456D01*
X127248500Y-108752456D01*
X127263652Y-108755470D01*
X127268403Y-108756512D01*
X127306522Y-108765660D01*
X127311241Y-108766891D01*
X127339620Y-108774894D01*
X127344283Y-108776308D01*
X127576250Y-108851680D01*
X127580844Y-108853273D01*
X127608453Y-108863457D01*
X127612984Y-108865230D01*
X127649200Y-108880228D01*
X127653667Y-108882182D01*
X127680443Y-108894525D01*
X127684827Y-108896651D01*
X127901500Y-109007052D01*
X127901500Y-108162121D01*
X127790682Y-108051303D01*
X127785137Y-108045382D01*
X127752766Y-108008471D01*
X127747619Y-108002200D01*
X127707828Y-107950346D01*
X127703100Y-107943748D01*
X127675811Y-107902907D01*
X127671525Y-107896015D01*
X127597171Y-107767228D01*
X127597171Y-107767227D01*
X127586358Y-107748500D01*
X127248500Y-107748500D01*
X127248500Y-108752456D01*
X126250500Y-108752456D01*
X126250500Y-107825782D01*
X126129990Y-107864938D01*
X126125326Y-107866353D01*
X126096949Y-107874355D01*
X126092232Y-107875585D01*
X126054114Y-107884733D01*
X126049363Y-107885775D01*
X126020500Y-107891515D01*
X126015712Y-107892370D01*
X125751127Y-107934277D01*
X125746303Y-107934945D01*
X125717069Y-107938405D01*
X125712232Y-107938881D01*
X125673153Y-107941959D01*
X125668288Y-107942246D01*
X125638836Y-107943404D01*
X125633964Y-107943500D01*
X125366036Y-107943500D01*
X125361164Y-107943404D01*
X125331712Y-107942246D01*
X125326847Y-107941959D01*
X125287768Y-107938881D01*
X125282931Y-107938405D01*
X125253697Y-107934945D01*
X125248873Y-107934277D01*
X124984288Y-107892370D01*
X124979500Y-107891515D01*
X124950637Y-107885775D01*
X124945886Y-107884733D01*
X124907768Y-107875585D01*
X124903051Y-107874355D01*
X124874674Y-107866353D01*
X124870010Y-107864938D01*
X124748500Y-107825457D01*
X124748500Y-108752966D01*
X123750500Y-108752966D01*
X123750500Y-107812258D01*
X123589877Y-107864449D01*
X123585214Y-107865863D01*
X123556835Y-107873866D01*
X123552116Y-107875097D01*
X123513997Y-107884245D01*
X123509247Y-107885287D01*
X123480385Y-107891027D01*
X123475597Y-107891882D01*
X123147135Y-107943907D01*
X123094077Y-107940778D01*
X122960000Y-107902963D01*
X122825923Y-107940778D01*
X122772865Y-107943907D01*
X122444403Y-107891882D01*
X122439615Y-107891027D01*
X122410753Y-107885287D01*
X122406003Y-107884245D01*
X122367884Y-107875097D01*
X122363165Y-107873866D01*
X122334786Y-107865863D01*
X122330123Y-107864449D01*
X122248500Y-107837927D01*
X118750500Y-107837927D01*
X118750500Y-107766697D01*
X118717174Y-107748500D01*
X118124000Y-107748500D01*
X118124000Y-109250500D01*
X117000500Y-109250500D01*
X117000500Y-104397135D01*
X118967000Y-104397135D01*
X118967000Y-106492870D01*
X118967001Y-106492876D01*
X118973408Y-106552483D01*
X119023702Y-106687328D01*
X119023706Y-106687335D01*
X119109952Y-106802544D01*
X119109955Y-106802547D01*
X119225164Y-106888793D01*
X119225171Y-106888797D01*
X119360017Y-106939091D01*
X119360016Y-106939091D01*
X119366944Y-106939835D01*
X119419627Y-106945500D01*
X121420372Y-106945499D01*
X121479983Y-106939091D01*
X121614831Y-106888796D01*
X121730046Y-106802546D01*
X121816296Y-106687331D01*
X121826872Y-106658974D01*
X121868740Y-106603041D01*
X121934204Y-106578622D01*
X122002477Y-106593472D01*
X122015940Y-106601988D01*
X122198723Y-106734788D01*
X122402429Y-106838582D01*
X122619871Y-106909234D01*
X122710000Y-106923509D01*
X122710000Y-105935747D01*
X122747708Y-105957518D01*
X122887591Y-105995000D01*
X123032409Y-105995000D01*
X123172292Y-105957518D01*
X123210000Y-105935747D01*
X123210000Y-106923508D01*
X123300128Y-106909234D01*
X123517570Y-106838582D01*
X123721276Y-106734788D01*
X123906242Y-106600402D01*
X124067905Y-106438739D01*
X124129371Y-106354137D01*
X124184701Y-106311470D01*
X124254314Y-106305491D01*
X124316109Y-106338096D01*
X124330007Y-106354134D01*
X124391714Y-106439066D01*
X124553434Y-106600786D01*
X124738462Y-106735217D01*
X124870599Y-106802544D01*
X124942244Y-106839049D01*
X125159751Y-106909721D01*
X125159752Y-106909721D01*
X125159755Y-106909722D01*
X125385646Y-106945500D01*
X125385647Y-106945500D01*
X125614353Y-106945500D01*
X125614354Y-106945500D01*
X125840245Y-106909722D01*
X125840248Y-106909721D01*
X125840249Y-106909721D01*
X126057755Y-106839049D01*
X126057755Y-106839048D01*
X126057758Y-106839048D01*
X126261538Y-106735217D01*
X126446566Y-106600786D01*
X126608286Y-106439066D01*
X126742717Y-106254038D01*
X126846548Y-106050258D01*
X126917222Y-105832745D01*
X126953000Y-105606854D01*
X126953000Y-105283146D01*
X126917222Y-105057255D01*
X126917221Y-105057251D01*
X126917221Y-105057250D01*
X126846549Y-104839744D01*
X126846548Y-104839742D01*
X126742717Y-104635962D01*
X126608286Y-104450934D01*
X126446566Y-104289214D01*
X126261538Y-104154783D01*
X126252151Y-104150000D01*
X126057755Y-104050950D01*
X125840248Y-103980278D01*
X125654812Y-103950908D01*
X125614354Y-103944500D01*
X125385646Y-103944500D01*
X125345188Y-103950908D01*
X125159753Y-103980278D01*
X125159750Y-103980278D01*
X124942244Y-104050950D01*
X124738461Y-104154783D01*
X124672550Y-104202671D01*
X124553434Y-104289214D01*
X124553432Y-104289216D01*
X124553431Y-104289216D01*
X124391716Y-104450931D01*
X124391709Y-104450940D01*
X124330007Y-104535864D01*
X124274677Y-104578530D01*
X124205063Y-104584508D01*
X124143269Y-104551901D01*
X124129372Y-104535863D01*
X124067907Y-104451263D01*
X124067902Y-104451257D01*
X123906242Y-104289597D01*
X123721276Y-104155211D01*
X123517568Y-104051417D01*
X123300124Y-103980765D01*
X123210000Y-103966490D01*
X123210000Y-104954252D01*
X123172292Y-104932482D01*
X123032409Y-104895000D01*
X122887591Y-104895000D01*
X122747708Y-104932482D01*
X122710000Y-104954252D01*
X122710000Y-103966490D01*
X122709999Y-103966490D01*
X122619875Y-103980765D01*
X122402431Y-104051417D01*
X122198719Y-104155213D01*
X122015939Y-104288010D01*
X121950132Y-104311490D01*
X121882079Y-104295664D01*
X121833384Y-104245558D01*
X121826875Y-104231033D01*
X121816296Y-104202669D01*
X121816295Y-104202667D01*
X121816293Y-104202664D01*
X121730047Y-104087455D01*
X121730044Y-104087452D01*
X121614835Y-104001206D01*
X121614828Y-104001202D01*
X121479982Y-103950908D01*
X121479983Y-103950908D01*
X121420383Y-103944501D01*
X121420381Y-103944500D01*
X121420373Y-103944500D01*
X121420364Y-103944500D01*
X119419629Y-103944500D01*
X119419623Y-103944501D01*
X119360016Y-103950908D01*
X119225171Y-104001202D01*
X119225164Y-104001206D01*
X119109955Y-104087452D01*
X119109952Y-104087455D01*
X119023706Y-104202664D01*
X119023702Y-104202671D01*
X118973408Y-104337517D01*
X118967001Y-104397116D01*
X118967000Y-104397135D01*
X117000500Y-104397135D01*
X117000500Y-101750500D01*
X118124000Y-101750500D01*
X118750500Y-101750500D01*
X119748500Y-101750500D01*
X121250500Y-101750500D01*
X122248500Y-101750500D01*
X123750500Y-101750500D01*
X124748500Y-101750500D01*
X126250500Y-101750500D01*
X127248500Y-101750500D01*
X127462874Y-101750500D01*
X127484886Y-101668352D01*
X127487241Y-101660589D01*
X127503020Y-101614104D01*
X127505877Y-101606513D01*
X127530887Y-101546126D01*
X127534237Y-101538731D01*
X127555963Y-101494674D01*
X127559789Y-101487516D01*
X127605071Y-101409087D01*
X127671526Y-101293982D01*
X127675812Y-101287090D01*
X127703100Y-101246251D01*
X127707829Y-101239652D01*
X127747620Y-101187799D01*
X127752766Y-101181529D01*
X127785137Y-101144618D01*
X127790683Y-101138697D01*
X127925594Y-101003786D01*
X128491500Y-100437879D01*
X128491500Y-100385929D01*
X128491595Y-100381064D01*
X128492750Y-100351650D01*
X128493037Y-100346791D01*
X128496111Y-100307711D01*
X128496588Y-100302867D01*
X128500051Y-100273595D01*
X128500719Y-100268765D01*
X128503929Y-100248500D01*
X127248500Y-100248500D01*
X127248500Y-101750500D01*
X126250500Y-101750500D01*
X126250500Y-100248500D01*
X124748500Y-100248500D01*
X124748500Y-101750500D01*
X123750500Y-101750500D01*
X123750500Y-100248500D01*
X122248500Y-100248500D01*
X122248500Y-101750500D01*
X121250500Y-101750500D01*
X121250500Y-100248500D01*
X119748500Y-100248500D01*
X119748500Y-101750500D01*
X118750500Y-101750500D01*
X118750500Y-100248500D01*
X118124000Y-100248500D01*
X118124000Y-101750500D01*
X117000500Y-101750500D01*
X117000500Y-99250500D01*
X118124000Y-99250500D01*
X118750500Y-99250500D01*
X119748500Y-99250500D01*
X121250500Y-99250500D01*
X121250500Y-99011119D01*
X119987881Y-97748500D01*
X119748500Y-97748500D01*
X119748500Y-99250500D01*
X118750500Y-99250500D01*
X118750500Y-97748500D01*
X118124000Y-97748500D01*
X118124000Y-99250500D01*
X117000500Y-99250500D01*
X117000500Y-96750500D01*
X118124000Y-96750500D01*
X118750500Y-96750500D01*
X118750500Y-95248500D01*
X118124000Y-95248500D01*
X118124000Y-96750500D01*
X117000500Y-96750500D01*
X117000500Y-94250500D01*
X118124000Y-94250500D01*
X118750500Y-94250500D01*
X118750500Y-92748500D01*
X118124000Y-92748500D01*
X118124000Y-94250500D01*
X117000500Y-94250500D01*
X117000500Y-91750500D01*
X118124000Y-91750500D01*
X118750500Y-91750500D01*
X118750500Y-90248500D01*
X118124000Y-90248500D01*
X118124000Y-91750500D01*
X117000500Y-91750500D01*
X117000500Y-89250500D01*
X118124000Y-89250500D01*
X118750500Y-89250500D01*
X118750500Y-87748500D01*
X118124000Y-87748500D01*
X118124000Y-89250500D01*
X117000500Y-89250500D01*
X117000500Y-86750500D01*
X118124000Y-86750500D01*
X118750500Y-86750500D01*
X118750500Y-85248500D01*
X118124000Y-85248500D01*
X118124000Y-86750500D01*
X117000500Y-86750500D01*
X117000500Y-84250500D01*
X118124000Y-84250500D01*
X118750500Y-84250500D01*
X118750500Y-82748500D01*
X118124000Y-82748500D01*
X118124000Y-84250500D01*
X117000500Y-84250500D01*
X117000500Y-71897648D01*
X117949500Y-71897648D01*
X117949500Y-72102351D01*
X117981522Y-72304534D01*
X118044781Y-72499223D01*
X118087248Y-72582567D01*
X118137585Y-72681359D01*
X118137715Y-72681613D01*
X118258028Y-72847213D01*
X118258034Y-72847219D01*
X118402781Y-72991966D01*
X118568390Y-73112287D01*
X118581793Y-73119116D01*
X118632589Y-73167088D01*
X118649500Y-73229601D01*
X118649500Y-75648330D01*
X118649499Y-75648348D01*
X118649499Y-75814054D01*
X118649498Y-75814054D01*
X118690423Y-75966785D01*
X118710825Y-76002123D01*
X118710828Y-76002127D01*
X118741394Y-76055069D01*
X118769479Y-76103714D01*
X118769481Y-76103717D01*
X118888349Y-76222585D01*
X118888355Y-76222590D01*
X120398584Y-77732819D01*
X120432069Y-77794142D01*
X120427085Y-77863834D01*
X120385213Y-77919767D01*
X120319749Y-77944184D01*
X120310903Y-77944500D01*
X119419629Y-77944500D01*
X119419623Y-77944501D01*
X119360016Y-77950908D01*
X119225171Y-78001202D01*
X119225164Y-78001206D01*
X119109955Y-78087452D01*
X119109952Y-78087455D01*
X119023706Y-78202664D01*
X119023702Y-78202671D01*
X118973408Y-78337517D01*
X118967001Y-78397116D01*
X118967000Y-78397135D01*
X118967000Y-80492870D01*
X118967001Y-80492876D01*
X118973408Y-80552483D01*
X119023702Y-80687328D01*
X119023706Y-80687335D01*
X119109952Y-80802544D01*
X119109955Y-80802547D01*
X119225164Y-80888793D01*
X119225171Y-80888797D01*
X119270118Y-80905561D01*
X119360017Y-80939091D01*
X119419627Y-80945500D01*
X119695501Y-80945499D01*
X119762539Y-80965183D01*
X119808294Y-81017987D01*
X119819500Y-81069499D01*
X119819500Y-95833330D01*
X119819499Y-95833348D01*
X119819499Y-95999054D01*
X119819498Y-95999054D01*
X119819499Y-95999057D01*
X119860423Y-96151785D01*
X119870124Y-96168588D01*
X119889358Y-96201900D01*
X119889359Y-96201904D01*
X119889360Y-96201904D01*
X119939479Y-96288714D01*
X119939481Y-96288717D01*
X120058349Y-96407585D01*
X120058355Y-96407590D01*
X122015139Y-98364374D01*
X122015149Y-98364385D01*
X122019479Y-98368715D01*
X122019480Y-98368716D01*
X122131284Y-98480520D01*
X122218095Y-98530639D01*
X122218097Y-98530641D01*
X122268213Y-98559576D01*
X122268215Y-98559577D01*
X122420942Y-98600500D01*
X122420943Y-98600500D01*
X137585500Y-98600500D01*
X137652539Y-98620185D01*
X137698294Y-98672989D01*
X137709500Y-98724500D01*
X137709500Y-99389207D01*
X137689815Y-99456246D01*
X137658386Y-99489525D01*
X137527925Y-99584311D01*
X137394312Y-99717924D01*
X137394312Y-99717925D01*
X137394310Y-99717927D01*
X137346610Y-99783579D01*
X137283240Y-99870800D01*
X137197454Y-100039163D01*
X137139059Y-100218881D01*
X137109500Y-100405513D01*
X137109500Y-100594486D01*
X137139059Y-100781118D01*
X137197454Y-100960836D01*
X137253519Y-101070868D01*
X137283240Y-101129199D01*
X137394310Y-101282073D01*
X137527927Y-101415690D01*
X137680801Y-101526760D01*
X137760347Y-101567290D01*
X137849163Y-101612545D01*
X137849165Y-101612545D01*
X137849168Y-101612547D01*
X137902070Y-101629736D01*
X138028881Y-101670940D01*
X138215514Y-101700500D01*
X138215519Y-101700500D01*
X138404486Y-101700500D01*
X138591118Y-101670940D01*
X138622975Y-101660589D01*
X138770832Y-101612547D01*
X138939199Y-101526760D01*
X139092073Y-101415690D01*
X139225690Y-101282073D01*
X139336760Y-101129199D01*
X139422547Y-100960832D01*
X139480940Y-100781118D01*
X139510500Y-100594486D01*
X139510500Y-100405513D01*
X139480940Y-100218881D01*
X139422545Y-100039163D01*
X139336759Y-99870800D01*
X139225690Y-99717927D01*
X139092073Y-99584310D01*
X139047649Y-99552034D01*
X138961614Y-99489525D01*
X138918948Y-99434194D01*
X138910500Y-99389207D01*
X138910500Y-98230945D01*
X138910500Y-98230943D01*
X138869803Y-98079057D01*
X138869577Y-98078215D01*
X138840639Y-98028095D01*
X138790520Y-97941284D01*
X138678716Y-97829480D01*
X138678715Y-97829479D01*
X138674385Y-97825149D01*
X138674374Y-97825139D01*
X138487590Y-97638355D01*
X138487588Y-97638352D01*
X138368717Y-97519481D01*
X138368716Y-97519480D01*
X138281904Y-97469360D01*
X138281904Y-97469359D01*
X138281900Y-97469358D01*
X138231785Y-97440423D01*
X138079057Y-97399499D01*
X137920943Y-97399499D01*
X137913347Y-97399499D01*
X137913331Y-97399500D01*
X129276633Y-97399500D01*
X129209594Y-97379815D01*
X129163839Y-97327011D01*
X129153895Y-97257853D01*
X129182920Y-97194297D01*
X129196704Y-97180699D01*
X129350786Y-97050788D01*
X129350788Y-97050786D01*
X129501655Y-96871848D01*
X129501660Y-96871841D01*
X129620120Y-96669975D01*
X129702762Y-96450987D01*
X129712333Y-96401500D01*
X130728827Y-96401500D01*
X131250500Y-96401500D01*
X132248500Y-96401500D01*
X133750500Y-96401500D01*
X134748500Y-96401500D01*
X136250500Y-96401500D01*
X137248500Y-96401500D01*
X137889983Y-96401500D01*
X137890015Y-96401499D01*
X138111742Y-96401499D01*
X138119854Y-96401765D01*
X138168864Y-96404978D01*
X138176941Y-96405773D01*
X138241741Y-96414306D01*
X138249743Y-96415628D01*
X138297895Y-96425206D01*
X138305798Y-96427048D01*
X138521659Y-96484889D01*
X138529423Y-96487244D01*
X138575928Y-96503030D01*
X138583526Y-96505890D01*
X138643913Y-96530905D01*
X138651301Y-96534253D01*
X138685585Y-96551160D01*
X138685391Y-96551552D01*
X138695386Y-96555693D01*
X138702451Y-96559772D01*
X138702496Y-96559796D01*
X138750500Y-96587511D01*
X138750500Y-95248500D01*
X137248500Y-95248500D01*
X137248500Y-96401500D01*
X136250500Y-96401500D01*
X136250500Y-95248500D01*
X134748500Y-95248500D01*
X134748500Y-96401500D01*
X133750500Y-96401500D01*
X133750500Y-95248500D01*
X132248500Y-95248500D01*
X132248500Y-96401500D01*
X131250500Y-96401500D01*
X131250500Y-95248500D01*
X130747810Y-95248500D01*
X130748000Y-95249454D01*
X130748000Y-96180150D01*
X130747957Y-96183427D01*
X130747344Y-96206615D01*
X130747212Y-96209917D01*
X130742888Y-96291304D01*
X130742588Y-96295565D01*
X130740330Y-96321295D01*
X130739884Y-96325539D01*
X130735696Y-96359712D01*
X130735101Y-96363956D01*
X130731062Y-96389552D01*
X130730322Y-96393770D01*
X130728827Y-96401500D01*
X129712333Y-96401500D01*
X129747205Y-96221191D01*
X129747205Y-96221190D01*
X129749998Y-96168617D01*
X129750000Y-96168578D01*
X129750000Y-95450000D01*
X128933012Y-95450000D01*
X128965925Y-95392993D01*
X129000000Y-95265826D01*
X129000000Y-95134174D01*
X128965925Y-95007007D01*
X128933012Y-94950000D01*
X129749999Y-94950000D01*
X129749999Y-94231423D01*
X129749998Y-94231411D01*
X129747205Y-94178808D01*
X129702762Y-93949012D01*
X129627092Y-93748499D01*
X132248500Y-93748499D01*
X132248500Y-94250500D01*
X133750500Y-94250500D01*
X133750500Y-92897501D01*
X134748500Y-92897501D01*
X134748500Y-94250500D01*
X136250500Y-94250500D01*
X136250500Y-92898000D01*
X135779454Y-92898000D01*
X135732000Y-92888561D01*
X135730000Y-92887732D01*
X135728000Y-92888561D01*
X135680546Y-92898000D01*
X134768823Y-92898000D01*
X134765509Y-92897956D01*
X134748500Y-92897501D01*
X133750500Y-92897501D01*
X133750500Y-92768118D01*
X137248500Y-92768118D01*
X137248500Y-94250500D01*
X138750500Y-94250500D01*
X138750500Y-92852293D01*
X138516994Y-92889277D01*
X138512171Y-92889944D01*
X138482938Y-92893404D01*
X138478100Y-92893881D01*
X138439021Y-92896959D01*
X138434156Y-92897246D01*
X138404704Y-92898404D01*
X138399832Y-92898500D01*
X138140168Y-92898500D01*
X138135296Y-92898404D01*
X138105844Y-92897246D01*
X138100979Y-92896959D01*
X138061900Y-92893881D01*
X138057062Y-92893404D01*
X138027829Y-92889944D01*
X138023006Y-92889277D01*
X137766578Y-92848663D01*
X137761789Y-92847808D01*
X137732917Y-92842066D01*
X137728162Y-92841023D01*
X137690046Y-92831874D01*
X137685331Y-92830644D01*
X137656964Y-92822644D01*
X137652304Y-92821230D01*
X137428460Y-92748500D01*
X137293273Y-92748500D01*
X137262441Y-92762581D01*
X137254260Y-92765970D01*
X137248500Y-92768118D01*
X133750500Y-92768118D01*
X133750500Y-92748500D01*
X133663408Y-92748500D01*
X133616413Y-92874502D01*
X133613025Y-92882682D01*
X133590767Y-92931419D01*
X133586805Y-92939333D01*
X133552628Y-93001923D01*
X133548110Y-93009537D01*
X133519146Y-93054604D01*
X133514098Y-93061874D01*
X133385114Y-93234173D01*
X133379561Y-93241064D01*
X133344481Y-93281549D01*
X133338449Y-93288028D01*
X133288028Y-93338449D01*
X133281549Y-93344481D01*
X133241064Y-93379561D01*
X133234173Y-93385114D01*
X133061874Y-93514098D01*
X133054604Y-93519146D01*
X133009537Y-93548110D01*
X133001923Y-93552628D01*
X132939333Y-93586805D01*
X132931419Y-93590767D01*
X132882682Y-93613025D01*
X132874502Y-93616413D01*
X132677018Y-93690069D01*
X132669679Y-93692548D01*
X132624828Y-93706153D01*
X132617352Y-93708168D01*
X132556637Y-93722516D01*
X132549045Y-93724061D01*
X132502840Y-93731972D01*
X132495167Y-93733041D01*
X132391244Y-93744212D01*
X132387939Y-93744522D01*
X132367899Y-93746135D01*
X132364578Y-93746358D01*
X132337895Y-93747786D01*
X132334582Y-93747919D01*
X132314534Y-93748455D01*
X132311220Y-93748499D01*
X132248500Y-93748499D01*
X129627092Y-93748499D01*
X129620120Y-93730024D01*
X129501660Y-93528158D01*
X129501655Y-93528151D01*
X129350788Y-93349213D01*
X129350786Y-93349211D01*
X129171848Y-93198344D01*
X129171841Y-93198339D01*
X128969975Y-93079879D01*
X128750984Y-92997236D01*
X128745840Y-92996241D01*
X128683760Y-92964180D01*
X128648869Y-92903646D01*
X128652244Y-92833858D01*
X128692814Y-92776973D01*
X128757697Y-92751052D01*
X128769374Y-92750499D01*
X132297872Y-92750499D01*
X132357483Y-92744091D01*
X132492331Y-92693796D01*
X132607546Y-92607546D01*
X132693796Y-92492331D01*
X132744091Y-92357483D01*
X132750500Y-92297873D01*
X132750499Y-89552155D01*
X134330000Y-89552155D01*
X134330000Y-90250000D01*
X135354722Y-90250000D01*
X135310667Y-90326306D01*
X135280000Y-90440756D01*
X135280000Y-90559244D01*
X135310667Y-90673694D01*
X135354722Y-90750000D01*
X134330000Y-90750000D01*
X134330000Y-91447844D01*
X134336401Y-91507372D01*
X134336403Y-91507379D01*
X134386645Y-91642086D01*
X134386649Y-91642093D01*
X134472809Y-91757187D01*
X134472812Y-91757190D01*
X134587906Y-91843350D01*
X134587913Y-91843354D01*
X134722620Y-91893596D01*
X134722627Y-91893598D01*
X134782155Y-91899999D01*
X134782172Y-91900000D01*
X135480000Y-91900000D01*
X135480000Y-90875277D01*
X135556306Y-90919333D01*
X135670756Y-90950000D01*
X135789244Y-90950000D01*
X135903694Y-90919333D01*
X135980000Y-90875277D01*
X135980000Y-91900000D01*
X136677828Y-91900000D01*
X136677844Y-91899999D01*
X136737372Y-91893598D01*
X136737379Y-91893596D01*
X136872086Y-91843354D01*
X136872093Y-91843350D01*
X136987187Y-91757190D01*
X136987190Y-91757187D01*
X137073350Y-91642093D01*
X137073354Y-91642086D01*
X137103213Y-91562031D01*
X137145084Y-91506097D01*
X137210548Y-91481680D01*
X137278821Y-91496531D01*
X137307076Y-91517683D01*
X137357636Y-91568243D01*
X137357641Y-91568247D01*
X137513192Y-91681260D01*
X137535978Y-91697815D01*
X137639377Y-91750500D01*
X137732393Y-91797895D01*
X137732396Y-91797896D01*
X137837221Y-91831955D01*
X137942049Y-91866015D01*
X138159778Y-91900500D01*
X138159779Y-91900500D01*
X138380221Y-91900500D01*
X138380222Y-91900500D01*
X138597951Y-91866015D01*
X138807606Y-91797895D01*
X139004022Y-91697815D01*
X139182365Y-91568242D01*
X139338242Y-91412365D01*
X139467815Y-91234022D01*
X139567895Y-91037606D01*
X139636015Y-90827951D01*
X139670500Y-90610222D01*
X139670500Y-90389778D01*
X139636015Y-90172049D01*
X139601955Y-90067221D01*
X139567896Y-89962396D01*
X139567895Y-89962393D01*
X139533237Y-89894375D01*
X139467815Y-89765978D01*
X139451260Y-89743192D01*
X139338247Y-89587641D01*
X139338243Y-89587636D01*
X139182363Y-89431756D01*
X139182358Y-89431752D01*
X139004025Y-89302187D01*
X139004024Y-89302186D01*
X139004022Y-89302185D01*
X138902586Y-89250500D01*
X138807606Y-89202104D01*
X138807603Y-89202103D01*
X138597952Y-89133985D01*
X138489086Y-89116742D01*
X138380222Y-89099500D01*
X138159778Y-89099500D01*
X138087201Y-89110995D01*
X137942047Y-89133985D01*
X137732396Y-89202103D01*
X137732393Y-89202104D01*
X137535974Y-89302187D01*
X137357641Y-89431752D01*
X137357636Y-89431756D01*
X137307075Y-89482317D01*
X137245752Y-89515801D01*
X137176060Y-89510816D01*
X137120127Y-89468945D01*
X137103213Y-89437968D01*
X137073354Y-89357913D01*
X137073350Y-89357906D01*
X136987190Y-89242812D01*
X136987187Y-89242809D01*
X136872093Y-89156649D01*
X136872086Y-89156645D01*
X136737379Y-89106403D01*
X136737372Y-89106401D01*
X136677844Y-89100000D01*
X135980000Y-89100000D01*
X135980000Y-90124722D01*
X135903694Y-90080667D01*
X135789244Y-90050000D01*
X135670756Y-90050000D01*
X135556306Y-90080667D01*
X135480000Y-90124722D01*
X135480000Y-89100000D01*
X134782155Y-89100000D01*
X134722627Y-89106401D01*
X134722620Y-89106403D01*
X134587913Y-89156645D01*
X134587906Y-89156649D01*
X134472812Y-89242809D01*
X134472809Y-89242812D01*
X134386649Y-89357906D01*
X134386645Y-89357913D01*
X134336403Y-89492620D01*
X134336401Y-89492627D01*
X134330000Y-89552155D01*
X132750499Y-89552155D01*
X132750499Y-88702128D01*
X132744091Y-88642517D01*
X132704571Y-88536559D01*
X132693797Y-88507671D01*
X132693793Y-88507664D01*
X132607547Y-88392455D01*
X132607544Y-88392452D01*
X132492335Y-88306206D01*
X132492328Y-88306202D01*
X132357482Y-88255908D01*
X132357483Y-88255908D01*
X132297883Y-88249501D01*
X132297881Y-88249500D01*
X132297873Y-88249500D01*
X132297864Y-88249500D01*
X128702129Y-88249500D01*
X128702123Y-88249501D01*
X128642516Y-88255908D01*
X128507671Y-88306202D01*
X128507664Y-88306206D01*
X128392455Y-88392452D01*
X128392452Y-88392455D01*
X128306206Y-88507664D01*
X128306202Y-88507671D01*
X128255908Y-88642517D01*
X128249501Y-88702116D01*
X128249501Y-88702123D01*
X128249500Y-88702135D01*
X128249500Y-92297870D01*
X128249501Y-92297876D01*
X128255908Y-92357483D01*
X128306202Y-92492328D01*
X128306206Y-92492335D01*
X128392452Y-92607544D01*
X128392455Y-92607547D01*
X128507664Y-92693793D01*
X128507673Y-92693798D01*
X128556506Y-92712011D01*
X128612440Y-92753881D01*
X128636858Y-92819345D01*
X128622007Y-92887618D01*
X128572603Y-92937024D01*
X128506598Y-92952018D01*
X128468625Y-92950001D01*
X128468579Y-92950000D01*
X127750000Y-92950000D01*
X127750000Y-94700000D01*
X127250000Y-94700000D01*
X127250000Y-92950000D01*
X126531423Y-92950000D01*
X126531411Y-92950001D01*
X126478808Y-92952794D01*
X126249012Y-92997237D01*
X126030024Y-93079879D01*
X125828158Y-93198339D01*
X125828151Y-93198344D01*
X125649213Y-93349211D01*
X125649211Y-93349213D01*
X125498344Y-93528151D01*
X125498339Y-93528158D01*
X125379879Y-93730024D01*
X125297237Y-93949012D01*
X125252794Y-94178808D01*
X125252794Y-94178809D01*
X125250001Y-94231382D01*
X125250000Y-94231421D01*
X125250000Y-94950000D01*
X126066988Y-94950000D01*
X126034075Y-95007007D01*
X126000000Y-95134174D01*
X126000000Y-95265826D01*
X126034075Y-95392993D01*
X126066988Y-95450000D01*
X125250001Y-95450000D01*
X125250001Y-96168588D01*
X125252794Y-96221191D01*
X125297237Y-96450987D01*
X125379879Y-96669975D01*
X125498339Y-96871841D01*
X125498344Y-96871848D01*
X125649211Y-97050786D01*
X125649213Y-97050788D01*
X125803296Y-97180699D01*
X125841861Y-97238961D01*
X125842805Y-97308824D01*
X125805828Y-97368107D01*
X125742671Y-97397988D01*
X125723367Y-97399500D01*
X122800097Y-97399500D01*
X122733058Y-97379815D01*
X122712416Y-97363181D01*
X121056819Y-95707584D01*
X121023334Y-95646261D01*
X121020500Y-95619903D01*
X121020500Y-95487881D01*
X122248500Y-95487881D01*
X123162119Y-96401500D01*
X123750500Y-96401500D01*
X123750500Y-95248500D01*
X122248500Y-95248500D01*
X122248500Y-95487881D01*
X121020500Y-95487881D01*
X121020500Y-94250500D01*
X122248500Y-94250500D01*
X123750500Y-94250500D01*
X123750500Y-93747999D01*
X123668662Y-93748000D01*
X123663799Y-93747905D01*
X123629497Y-93746559D01*
X123624629Y-93746272D01*
X123454428Y-93732876D01*
X123449237Y-93732357D01*
X123417912Y-93728560D01*
X123412751Y-93727824D01*
X123371305Y-93721022D01*
X123366174Y-93720069D01*
X123335269Y-93713651D01*
X123330184Y-93712483D01*
X123069906Y-93646899D01*
X123064541Y-93645418D01*
X123032286Y-93635732D01*
X123026992Y-93634012D01*
X122984702Y-93619213D01*
X122979494Y-93617258D01*
X122948258Y-93604728D01*
X122943142Y-93602541D01*
X122697494Y-93490962D01*
X122692478Y-93488547D01*
X122662483Y-93473263D01*
X122657587Y-93470628D01*
X122618621Y-93448519D01*
X122613842Y-93445664D01*
X122585337Y-93427753D01*
X122580693Y-93424687D01*
X122358901Y-93271030D01*
X122354397Y-93267758D01*
X122327595Y-93247350D01*
X122323241Y-93243877D01*
X122288850Y-93215162D01*
X122284661Y-93211503D01*
X122259827Y-93188802D01*
X122255809Y-93184959D01*
X122248500Y-93177650D01*
X122248500Y-94250500D01*
X121020500Y-94250500D01*
X121020500Y-89435803D01*
X122500000Y-89435803D01*
X122500000Y-90250000D01*
X124000000Y-90250000D01*
X124000000Y-90750000D01*
X122500001Y-90750000D01*
X122500001Y-91564197D01*
X122510400Y-91696332D01*
X122565377Y-91914519D01*
X122658428Y-92119374D01*
X122658431Y-92119380D01*
X122786559Y-92304323D01*
X122786569Y-92304335D01*
X122945664Y-92463430D01*
X122945676Y-92463440D01*
X123130619Y-92591568D01*
X123130625Y-92591571D01*
X123335480Y-92684622D01*
X123553667Y-92739599D01*
X123685810Y-92749999D01*
X124249999Y-92749999D01*
X124250000Y-92749998D01*
X124250000Y-91933012D01*
X124307007Y-91965925D01*
X124434174Y-92000000D01*
X124565826Y-92000000D01*
X124692993Y-91965925D01*
X124750000Y-91933012D01*
X124750000Y-92749999D01*
X125314182Y-92749999D01*
X125314197Y-92749998D01*
X125446332Y-92739599D01*
X125664519Y-92684622D01*
X125869374Y-92591571D01*
X125869380Y-92591568D01*
X126054323Y-92463440D01*
X126054335Y-92463430D01*
X126213430Y-92304335D01*
X126213440Y-92304323D01*
X126341568Y-92119380D01*
X126341571Y-92119374D01*
X126434622Y-91914519D01*
X126489599Y-91696332D01*
X126499999Y-91564196D01*
X126500000Y-91564184D01*
X126500000Y-90750000D01*
X125000000Y-90750000D01*
X125000000Y-90250000D01*
X126499999Y-90250000D01*
X126499999Y-89435817D01*
X126499998Y-89435802D01*
X126489599Y-89303667D01*
X126434622Y-89085480D01*
X126341571Y-88880625D01*
X126341568Y-88880619D01*
X126213440Y-88695676D01*
X126213430Y-88695664D01*
X126054335Y-88536569D01*
X126054323Y-88536559D01*
X125869380Y-88408431D01*
X125869374Y-88408428D01*
X125664519Y-88315377D01*
X125446332Y-88260400D01*
X125314196Y-88250000D01*
X124750000Y-88250000D01*
X124750000Y-89066988D01*
X124692993Y-89034075D01*
X124565826Y-89000000D01*
X124434174Y-89000000D01*
X124307007Y-89034075D01*
X124250000Y-89066988D01*
X124250000Y-88250000D01*
X123685817Y-88250000D01*
X123685802Y-88250001D01*
X123553667Y-88260400D01*
X123335480Y-88315377D01*
X123130625Y-88408428D01*
X123130619Y-88408431D01*
X122945676Y-88536559D01*
X122945664Y-88536569D01*
X122786569Y-88695664D01*
X122786559Y-88695676D01*
X122658431Y-88880619D01*
X122658428Y-88880625D01*
X122565377Y-89085480D01*
X122510400Y-89303667D01*
X122500000Y-89435803D01*
X121020500Y-89435803D01*
X121020500Y-88231880D01*
X137248500Y-88231880D01*
X137254262Y-88234030D01*
X137262441Y-88237419D01*
X137311177Y-88259677D01*
X137319091Y-88263638D01*
X137349744Y-88280376D01*
X137368596Y-88272568D01*
X137373127Y-88270794D01*
X137400759Y-88260600D01*
X137405361Y-88259005D01*
X137652304Y-88178770D01*
X137656964Y-88177356D01*
X137685331Y-88169356D01*
X137690046Y-88168126D01*
X137728162Y-88158977D01*
X137732917Y-88157934D01*
X137761789Y-88152192D01*
X137766578Y-88151337D01*
X138023006Y-88110723D01*
X138027829Y-88110056D01*
X138057062Y-88106596D01*
X138061900Y-88106119D01*
X138100979Y-88103041D01*
X138105844Y-88102754D01*
X138135296Y-88101596D01*
X138140168Y-88101500D01*
X138399832Y-88101500D01*
X138404704Y-88101596D01*
X138434156Y-88102754D01*
X138439021Y-88103041D01*
X138478100Y-88106119D01*
X138482938Y-88106596D01*
X138512171Y-88110056D01*
X138516994Y-88110723D01*
X138750500Y-88147706D01*
X138750500Y-87748500D01*
X137248500Y-87748500D01*
X137248500Y-88231880D01*
X121020500Y-88231880D01*
X121020500Y-88102498D01*
X134748500Y-88102498D01*
X134765509Y-88102044D01*
X134768823Y-88102000D01*
X135680546Y-88102000D01*
X135727998Y-88111439D01*
X135730000Y-88112268D01*
X135732002Y-88111439D01*
X135779454Y-88102000D01*
X136250500Y-88102000D01*
X136250500Y-87748500D01*
X134748500Y-87748500D01*
X134748500Y-88102498D01*
X121020500Y-88102498D01*
X121020500Y-86750500D01*
X122248500Y-86750500D01*
X123750500Y-86750500D01*
X124748500Y-86750500D01*
X126250500Y-86750500D01*
X127248500Y-86750500D01*
X128750500Y-86750500D01*
X129748500Y-86750500D01*
X131250500Y-86750500D01*
X132248500Y-86750500D01*
X133750500Y-86750500D01*
X134748500Y-86750500D01*
X136250500Y-86750500D01*
X137248500Y-86750500D01*
X138750500Y-86750500D01*
X138750500Y-85248500D01*
X137248500Y-85248500D01*
X137248500Y-86750500D01*
X136250500Y-86750500D01*
X136250500Y-85248500D01*
X134748500Y-85248500D01*
X134748500Y-86750500D01*
X133750500Y-86750500D01*
X133750500Y-85248500D01*
X132248500Y-85248500D01*
X132248500Y-86750500D01*
X131250500Y-86750500D01*
X131250500Y-85248500D01*
X129748500Y-85248500D01*
X129748500Y-86750500D01*
X128750500Y-86750500D01*
X128750500Y-85248500D01*
X127248500Y-85248500D01*
X127248500Y-86750500D01*
X126250500Y-86750500D01*
X126250500Y-85248500D01*
X124748500Y-85248500D01*
X124748500Y-86750500D01*
X123750500Y-86750500D01*
X123750500Y-85248500D01*
X122248500Y-85248500D01*
X122248500Y-86750500D01*
X121020500Y-86750500D01*
X121020500Y-84250500D01*
X122248500Y-84250500D01*
X123750500Y-84250500D01*
X124748500Y-84250500D01*
X126250500Y-84250500D01*
X127248500Y-84250500D01*
X128750500Y-84250500D01*
X128750500Y-83928101D01*
X132248500Y-83928101D01*
X132248500Y-84250500D01*
X133750500Y-84250500D01*
X134748500Y-84250500D01*
X136250500Y-84250500D01*
X137248500Y-84250500D01*
X138750500Y-84250500D01*
X138750500Y-84198500D01*
X138695929Y-84198500D01*
X138691064Y-84198405D01*
X138661650Y-84197250D01*
X138656791Y-84196963D01*
X138617711Y-84193889D01*
X138612867Y-84193412D01*
X138583595Y-84189949D01*
X138578765Y-84189281D01*
X138353414Y-84153588D01*
X138348625Y-84152733D01*
X138319763Y-84146993D01*
X138315013Y-84145951D01*
X138276894Y-84136803D01*
X138272176Y-84135573D01*
X138243796Y-84127570D01*
X138239132Y-84126155D01*
X138022136Y-84055647D01*
X138017541Y-84054053D01*
X137989933Y-84043869D01*
X137985403Y-84042097D01*
X137949187Y-84027099D01*
X137944719Y-84025144D01*
X137917944Y-84012801D01*
X137913562Y-84010676D01*
X137710257Y-83907088D01*
X137705960Y-83904792D01*
X137680264Y-83890401D01*
X137676066Y-83887940D01*
X137642642Y-83867458D01*
X137638543Y-83864834D01*
X137614045Y-83848466D01*
X137610047Y-83845680D01*
X137425456Y-83711565D01*
X137421573Y-83708625D01*
X137398440Y-83690388D01*
X137394677Y-83687300D01*
X137364870Y-83661842D01*
X137361230Y-83658607D01*
X137339602Y-83638614D01*
X137336093Y-83635240D01*
X137248500Y-83547647D01*
X137248500Y-84250500D01*
X136250500Y-84250500D01*
X136250500Y-82748500D01*
X134748500Y-82748500D01*
X134748500Y-84250500D01*
X133750500Y-84250500D01*
X133750500Y-82748500D01*
X133258438Y-82748500D01*
X133245647Y-82787864D01*
X133244053Y-82792459D01*
X133233869Y-82820067D01*
X133232097Y-82824597D01*
X133217099Y-82860813D01*
X133215144Y-82865281D01*
X133202801Y-82892056D01*
X133200676Y-82896438D01*
X133097088Y-83099743D01*
X133094792Y-83104040D01*
X133080401Y-83129736D01*
X133077940Y-83133934D01*
X133057458Y-83167358D01*
X133054834Y-83171457D01*
X133038466Y-83195955D01*
X133035680Y-83199953D01*
X132901565Y-83384544D01*
X132898625Y-83388427D01*
X132880388Y-83411560D01*
X132877300Y-83415323D01*
X132851842Y-83445130D01*
X132848607Y-83448770D01*
X132828614Y-83470398D01*
X132825240Y-83473907D01*
X132663907Y-83635240D01*
X132660398Y-83638614D01*
X132638770Y-83658607D01*
X132635130Y-83661842D01*
X132605323Y-83687300D01*
X132601560Y-83690388D01*
X132578427Y-83708625D01*
X132574544Y-83711565D01*
X132389953Y-83845680D01*
X132385955Y-83848466D01*
X132361457Y-83864834D01*
X132357358Y-83867458D01*
X132323934Y-83887940D01*
X132319736Y-83890401D01*
X132294040Y-83904792D01*
X132289743Y-83907088D01*
X132248500Y-83928101D01*
X128750500Y-83928101D01*
X128750500Y-82748500D01*
X127248500Y-82748500D01*
X127248500Y-84250500D01*
X126250500Y-84250500D01*
X126250500Y-82748500D01*
X124748500Y-82748500D01*
X124748500Y-84250500D01*
X123750500Y-84250500D01*
X123750500Y-82748500D01*
X122248500Y-82748500D01*
X122248500Y-84250500D01*
X121020500Y-84250500D01*
X121020500Y-81905513D01*
X129989500Y-81905513D01*
X129989500Y-82094486D01*
X130019059Y-82281118D01*
X130077454Y-82460836D01*
X130163240Y-82629199D01*
X130274310Y-82782073D01*
X130407927Y-82915690D01*
X130560801Y-83026760D01*
X130640347Y-83067290D01*
X130729163Y-83112545D01*
X130729165Y-83112545D01*
X130729168Y-83112547D01*
X130782070Y-83129736D01*
X130908881Y-83170940D01*
X131095514Y-83200500D01*
X131095519Y-83200500D01*
X131284486Y-83200500D01*
X131471118Y-83170940D01*
X131482142Y-83167358D01*
X131650832Y-83112547D01*
X131819199Y-83026760D01*
X131972073Y-82915690D01*
X132105690Y-82782073D01*
X132216760Y-82629199D01*
X132302547Y-82460832D01*
X132360940Y-82281118D01*
X132390500Y-82094486D01*
X132390500Y-81905513D01*
X137609500Y-81905513D01*
X137609500Y-82094486D01*
X137639059Y-82281118D01*
X137697454Y-82460836D01*
X137783240Y-82629199D01*
X137894310Y-82782073D01*
X138027927Y-82915690D01*
X138180801Y-83026760D01*
X138260347Y-83067290D01*
X138349163Y-83112545D01*
X138349165Y-83112545D01*
X138349168Y-83112547D01*
X138402070Y-83129736D01*
X138528881Y-83170940D01*
X138715514Y-83200500D01*
X138715519Y-83200500D01*
X138904486Y-83200500D01*
X139091118Y-83170940D01*
X139102142Y-83167358D01*
X139270832Y-83112547D01*
X139439199Y-83026760D01*
X139592073Y-82915690D01*
X139725690Y-82782073D01*
X139836760Y-82629199D01*
X139922547Y-82460832D01*
X139980940Y-82281118D01*
X140010500Y-82094486D01*
X140010500Y-81905513D01*
X139980940Y-81718881D01*
X139953846Y-81635497D01*
X139922547Y-81539168D01*
X139922545Y-81539165D01*
X139922545Y-81539163D01*
X139836759Y-81370800D01*
X139725690Y-81217927D01*
X139592073Y-81084310D01*
X139439199Y-80973240D01*
X139423386Y-80965183D01*
X139270836Y-80887454D01*
X139091118Y-80829059D01*
X138904486Y-80799500D01*
X138904481Y-80799500D01*
X138715519Y-80799500D01*
X138715514Y-80799500D01*
X138528881Y-80829059D01*
X138349163Y-80887454D01*
X138180800Y-80973240D01*
X138140583Y-81002460D01*
X138027927Y-81084310D01*
X138027925Y-81084312D01*
X138027924Y-81084312D01*
X137894312Y-81217924D01*
X137894312Y-81217925D01*
X137894310Y-81217927D01*
X137846610Y-81283579D01*
X137783240Y-81370800D01*
X137697454Y-81539163D01*
X137639059Y-81718881D01*
X137609500Y-81905513D01*
X132390500Y-81905513D01*
X132360940Y-81718881D01*
X132333846Y-81635497D01*
X132302547Y-81539168D01*
X132302545Y-81539165D01*
X132302545Y-81539163D01*
X132216759Y-81370800D01*
X132105690Y-81217927D01*
X131972073Y-81084310D01*
X131819199Y-80973240D01*
X131803386Y-80965183D01*
X131650836Y-80887454D01*
X131471118Y-80829059D01*
X131284486Y-80799500D01*
X131284481Y-80799500D01*
X131095519Y-80799500D01*
X131095514Y-80799500D01*
X130908881Y-80829059D01*
X130729163Y-80887454D01*
X130560800Y-80973240D01*
X130520583Y-81002460D01*
X130407927Y-81084310D01*
X130407925Y-81084312D01*
X130407924Y-81084312D01*
X130274312Y-81217924D01*
X130274312Y-81217925D01*
X130274310Y-81217927D01*
X130226610Y-81283579D01*
X130163240Y-81370800D01*
X130077454Y-81539163D01*
X130019059Y-81718881D01*
X129989500Y-81905513D01*
X121020500Y-81905513D01*
X121020500Y-81210236D01*
X127248500Y-81210236D01*
X127248500Y-81750500D01*
X128750500Y-81750500D01*
X128750500Y-80248500D01*
X132519579Y-80248500D01*
X132574544Y-80288435D01*
X132578427Y-80291375D01*
X132601560Y-80309612D01*
X132605323Y-80312700D01*
X132635130Y-80338158D01*
X132638770Y-80341393D01*
X132660398Y-80361386D01*
X132663907Y-80364760D01*
X132825240Y-80526093D01*
X132828614Y-80529602D01*
X132848607Y-80551230D01*
X132851842Y-80554870D01*
X132877300Y-80584677D01*
X132880388Y-80588440D01*
X132898625Y-80611573D01*
X132901565Y-80615456D01*
X133035680Y-80800047D01*
X133038466Y-80804045D01*
X133054834Y-80828543D01*
X133057458Y-80832642D01*
X133077940Y-80866066D01*
X133080401Y-80870264D01*
X133094792Y-80895960D01*
X133097088Y-80900257D01*
X133200676Y-81103562D01*
X133202801Y-81107944D01*
X133215144Y-81134719D01*
X133217099Y-81139187D01*
X133232097Y-81175403D01*
X133233869Y-81179933D01*
X133244053Y-81207541D01*
X133245647Y-81212136D01*
X133316155Y-81429132D01*
X133317570Y-81433796D01*
X133325573Y-81462176D01*
X133326803Y-81466894D01*
X133335951Y-81505013D01*
X133336993Y-81509763D01*
X133342733Y-81538625D01*
X133343588Y-81543414D01*
X133376388Y-81750500D01*
X133750500Y-81750500D01*
X134748500Y-81750500D01*
X136250500Y-81750500D01*
X136250500Y-80248500D01*
X134748500Y-80248500D01*
X134748500Y-81750500D01*
X133750500Y-81750500D01*
X133750500Y-80248500D01*
X132519579Y-80248500D01*
X128750500Y-80248500D01*
X127831495Y-80248500D01*
X127789645Y-80377302D01*
X127788049Y-80381905D01*
X127777850Y-80409549D01*
X127776075Y-80414083D01*
X127761073Y-80450299D01*
X127759122Y-80454760D01*
X127746793Y-80481502D01*
X127744669Y-80485881D01*
X127623044Y-80724583D01*
X127620749Y-80728876D01*
X127606359Y-80754572D01*
X127603897Y-80758773D01*
X127583415Y-80792197D01*
X127580790Y-80796298D01*
X127564422Y-80820795D01*
X127561637Y-80824791D01*
X127404162Y-81041536D01*
X127401222Y-81045419D01*
X127382984Y-81068553D01*
X127379896Y-81072316D01*
X127354438Y-81102123D01*
X127351203Y-81105763D01*
X127331210Y-81127391D01*
X127327836Y-81130900D01*
X127248500Y-81210236D01*
X121020500Y-81210236D01*
X121020500Y-81069499D01*
X121040185Y-81002460D01*
X121092989Y-80956705D01*
X121144500Y-80945499D01*
X121420371Y-80945499D01*
X121420372Y-80945499D01*
X121479983Y-80939091D01*
X121614831Y-80888796D01*
X121730046Y-80802546D01*
X121816296Y-80687331D01*
X121826690Y-80659460D01*
X121868560Y-80603527D01*
X121934023Y-80579108D01*
X122002297Y-80593958D01*
X122015746Y-80602465D01*
X122198462Y-80735217D01*
X122389670Y-80832642D01*
X122402244Y-80839049D01*
X122619751Y-80909721D01*
X122619752Y-80909721D01*
X122619755Y-80909722D01*
X122845646Y-80945500D01*
X122845647Y-80945500D01*
X123074353Y-80945500D01*
X123074354Y-80945500D01*
X123300245Y-80909722D01*
X123300248Y-80909721D01*
X123300249Y-80909721D01*
X123517755Y-80839049D01*
X123517755Y-80839048D01*
X123517758Y-80839048D01*
X123721538Y-80735217D01*
X123906566Y-80600786D01*
X124068286Y-80439066D01*
X124129683Y-80354559D01*
X124185012Y-80311896D01*
X124254625Y-80305917D01*
X124316420Y-80338523D01*
X124330314Y-80354556D01*
X124391714Y-80439066D01*
X124553434Y-80600786D01*
X124738462Y-80735217D01*
X124929670Y-80832642D01*
X124942244Y-80839049D01*
X125159751Y-80909721D01*
X125159752Y-80909721D01*
X125159755Y-80909722D01*
X125385646Y-80945500D01*
X125385647Y-80945500D01*
X125614353Y-80945500D01*
X125614354Y-80945500D01*
X125840245Y-80909722D01*
X125840248Y-80909721D01*
X125840249Y-80909721D01*
X126057755Y-80839049D01*
X126057755Y-80839048D01*
X126057758Y-80839048D01*
X126261538Y-80735217D01*
X126446566Y-80600786D01*
X126608286Y-80439066D01*
X126742717Y-80254038D01*
X126846548Y-80050258D01*
X126917222Y-79832745D01*
X126953000Y-79606854D01*
X126953000Y-79283146D01*
X126917222Y-79057255D01*
X126917221Y-79057251D01*
X126917221Y-79057250D01*
X126846549Y-78839744D01*
X126809744Y-78767510D01*
X126742717Y-78635962D01*
X126608286Y-78450934D01*
X126446566Y-78289214D01*
X126261538Y-78154783D01*
X126163769Y-78104967D01*
X126057755Y-78050950D01*
X125840248Y-77980278D01*
X125654812Y-77950908D01*
X125614354Y-77944500D01*
X125385646Y-77944500D01*
X125345188Y-77950908D01*
X125159753Y-77980278D01*
X125159750Y-77980278D01*
X124942244Y-78050950D01*
X124738461Y-78154783D01*
X124672550Y-78202671D01*
X124553434Y-78289214D01*
X124553432Y-78289216D01*
X124553431Y-78289216D01*
X124391715Y-78450932D01*
X124330318Y-78535438D01*
X124274987Y-78578103D01*
X124205374Y-78584082D01*
X124143579Y-78551476D01*
X124129682Y-78535438D01*
X124086437Y-78475917D01*
X124068286Y-78450934D01*
X123906566Y-78289214D01*
X123721538Y-78154783D01*
X123623769Y-78104967D01*
X123517755Y-78050950D01*
X123300248Y-77980278D01*
X123114812Y-77950908D01*
X123074354Y-77944500D01*
X122845646Y-77944500D01*
X122805188Y-77950908D01*
X122619751Y-77980278D01*
X122484278Y-78024295D01*
X122414437Y-78026290D01*
X122358280Y-77994045D01*
X122112735Y-77748500D01*
X127317236Y-77748500D01*
X127327836Y-77759100D01*
X127331210Y-77762609D01*
X127351203Y-77784237D01*
X127354438Y-77787877D01*
X127379896Y-77817684D01*
X127382984Y-77821447D01*
X127401222Y-77844581D01*
X127404162Y-77848464D01*
X127561637Y-78065209D01*
X127564422Y-78069205D01*
X127580790Y-78093702D01*
X127583415Y-78097803D01*
X127603897Y-78131227D01*
X127606359Y-78135428D01*
X127620749Y-78161124D01*
X127623044Y-78165417D01*
X127744669Y-78404119D01*
X127746793Y-78408498D01*
X127759122Y-78435240D01*
X127761073Y-78439701D01*
X127776075Y-78475917D01*
X127777850Y-78480451D01*
X127788049Y-78508095D01*
X127789645Y-78512698D01*
X127872438Y-78767510D01*
X127873853Y-78772174D01*
X127881855Y-78800551D01*
X127883085Y-78805268D01*
X127892233Y-78843386D01*
X127893275Y-78848137D01*
X127899015Y-78877000D01*
X127899870Y-78881788D01*
X127941777Y-79146373D01*
X127942445Y-79151197D01*
X127945905Y-79180431D01*
X127946381Y-79185268D01*
X127949459Y-79224347D01*
X127949746Y-79229212D01*
X127950583Y-79250500D01*
X128750500Y-79250500D01*
X129748500Y-79250500D01*
X131250500Y-79250500D01*
X131250500Y-79110528D01*
X131239235Y-79104220D01*
X131235037Y-79101759D01*
X131201613Y-79081277D01*
X131197511Y-79078651D01*
X131173013Y-79062282D01*
X131169018Y-79059498D01*
X130952592Y-78902254D01*
X130948709Y-78899314D01*
X130925576Y-78881077D01*
X130921813Y-78877989D01*
X130892006Y-78852531D01*
X130888366Y-78849296D01*
X130866738Y-78829303D01*
X130863229Y-78825929D01*
X130674071Y-78636771D01*
X130670697Y-78633262D01*
X130650704Y-78611634D01*
X130647469Y-78607994D01*
X130622011Y-78578187D01*
X130618923Y-78574424D01*
X130600686Y-78551291D01*
X130597746Y-78547408D01*
X130440502Y-78330982D01*
X130437718Y-78326987D01*
X130421349Y-78302489D01*
X130418723Y-78298387D01*
X130398241Y-78264963D01*
X130395780Y-78260765D01*
X130381389Y-78235069D01*
X130379093Y-78230772D01*
X130257640Y-77992405D01*
X130255515Y-77988023D01*
X130243172Y-77961248D01*
X130241217Y-77956780D01*
X130226219Y-77920564D01*
X130224446Y-77916033D01*
X130214262Y-77888424D01*
X130212669Y-77883830D01*
X130168697Y-77748500D01*
X129748500Y-77748500D01*
X129748500Y-79250500D01*
X128750500Y-79250500D01*
X128750500Y-77748500D01*
X127317236Y-77748500D01*
X122112735Y-77748500D01*
X121250072Y-76885837D01*
X131049500Y-76885837D01*
X131049500Y-77114162D01*
X131085215Y-77339660D01*
X131155770Y-77556803D01*
X131245455Y-77732819D01*
X131259421Y-77760228D01*
X131393621Y-77944937D01*
X131555063Y-78106379D01*
X131739772Y-78240579D01*
X131835224Y-78289214D01*
X131943196Y-78344229D01*
X131943198Y-78344229D01*
X131943201Y-78344231D01*
X132059592Y-78382049D01*
X132160339Y-78414784D01*
X132385838Y-78450500D01*
X132385843Y-78450500D01*
X132614162Y-78450500D01*
X132839660Y-78414784D01*
X132872483Y-78404119D01*
X133056799Y-78344231D01*
X133260228Y-78240579D01*
X133444937Y-78106379D01*
X133606379Y-77944937D01*
X133649683Y-77885333D01*
X133705012Y-77842670D01*
X133774626Y-77836691D01*
X133836421Y-77869297D01*
X133850313Y-77885329D01*
X133893621Y-77944937D01*
X134055063Y-78106379D01*
X134239772Y-78240579D01*
X134335224Y-78289214D01*
X134443196Y-78344229D01*
X134443198Y-78344229D01*
X134443201Y-78344231D01*
X134559592Y-78382049D01*
X134660339Y-78414784D01*
X134885838Y-78450500D01*
X134885843Y-78450500D01*
X135114162Y-78450500D01*
X135339660Y-78414784D01*
X135372483Y-78404119D01*
X135556799Y-78344231D01*
X135760228Y-78240579D01*
X135914564Y-78128446D01*
X135980368Y-78104967D01*
X136048422Y-78120792D01*
X136097117Y-78170897D01*
X136103629Y-78185429D01*
X136106202Y-78192327D01*
X136106206Y-78192335D01*
X136192452Y-78307544D01*
X136192455Y-78307547D01*
X136307664Y-78393793D01*
X136307671Y-78393797D01*
X136442517Y-78444091D01*
X136442516Y-78444091D01*
X136449444Y-78444835D01*
X136502127Y-78450500D01*
X138497872Y-78450499D01*
X138557483Y-78444091D01*
X138692331Y-78393796D01*
X138807546Y-78307546D01*
X138893796Y-78192331D01*
X138944091Y-78057483D01*
X138950500Y-77997873D01*
X138950499Y-76002128D01*
X138944091Y-75942517D01*
X138925854Y-75893622D01*
X138893797Y-75807671D01*
X138893793Y-75807664D01*
X138807547Y-75692455D01*
X138807544Y-75692452D01*
X138692335Y-75606206D01*
X138692328Y-75606202D01*
X138557482Y-75555908D01*
X138557483Y-75555908D01*
X138497883Y-75549501D01*
X138497881Y-75549500D01*
X138497873Y-75549500D01*
X138497864Y-75549500D01*
X136502129Y-75549500D01*
X136502123Y-75549501D01*
X136442516Y-75555908D01*
X136307671Y-75606202D01*
X136307664Y-75606206D01*
X136192455Y-75692452D01*
X136192452Y-75692455D01*
X136106206Y-75807664D01*
X136106202Y-75807672D01*
X136103629Y-75814571D01*
X136061757Y-75870504D01*
X135996292Y-75894919D01*
X135928019Y-75880066D01*
X135914571Y-75871559D01*
X135760228Y-75759421D01*
X135712372Y-75735037D01*
X135556803Y-75655770D01*
X135339660Y-75585215D01*
X135114162Y-75549500D01*
X135114157Y-75549500D01*
X134885843Y-75549500D01*
X134885838Y-75549500D01*
X134660339Y-75585215D01*
X134443196Y-75655770D01*
X134239771Y-75759421D01*
X134055061Y-75893622D01*
X133893623Y-76055060D01*
X133893616Y-76055069D01*
X133850317Y-76114664D01*
X133794987Y-76157330D01*
X133725373Y-76163308D01*
X133663579Y-76130701D01*
X133649683Y-76114664D01*
X133606383Y-76055069D01*
X133606379Y-76055063D01*
X133444937Y-75893621D01*
X133260228Y-75759421D01*
X133212372Y-75735037D01*
X133056803Y-75655770D01*
X132839660Y-75585215D01*
X132614162Y-75549500D01*
X132614157Y-75549500D01*
X132385843Y-75549500D01*
X132385838Y-75549500D01*
X132160339Y-75585215D01*
X131943196Y-75655770D01*
X131739771Y-75759421D01*
X131555061Y-75893622D01*
X131393622Y-76055061D01*
X131259421Y-76239771D01*
X131155770Y-76443196D01*
X131085215Y-76660339D01*
X131049500Y-76885837D01*
X121250072Y-76885837D01*
X120837116Y-76472881D01*
X122248500Y-76472881D01*
X122526119Y-76750500D01*
X123750500Y-76750500D01*
X124748500Y-76750500D01*
X126250500Y-76750500D01*
X127248500Y-76750500D01*
X128750500Y-76750500D01*
X129748500Y-76750500D01*
X130060524Y-76750500D01*
X130060719Y-76749088D01*
X130102568Y-76484872D01*
X130103423Y-76480083D01*
X130109163Y-76451221D01*
X130110205Y-76446471D01*
X130119353Y-76408352D01*
X130120584Y-76403633D01*
X130128587Y-76375254D01*
X130130001Y-76370591D01*
X130212669Y-76116170D01*
X130214262Y-76111576D01*
X130224446Y-76083967D01*
X130226219Y-76079436D01*
X130241217Y-76043220D01*
X130243172Y-76038752D01*
X130255515Y-76011977D01*
X130257640Y-76007595D01*
X130379093Y-75769228D01*
X130381389Y-75764931D01*
X130395780Y-75739235D01*
X130398241Y-75735037D01*
X130418723Y-75701613D01*
X130421349Y-75697511D01*
X130437718Y-75673013D01*
X130440502Y-75669018D01*
X130597746Y-75452592D01*
X130600686Y-75448709D01*
X130618923Y-75425576D01*
X130622011Y-75421813D01*
X130647469Y-75392006D01*
X130650704Y-75388366D01*
X130670697Y-75366738D01*
X130674071Y-75363229D01*
X130788800Y-75248500D01*
X129748500Y-75248500D01*
X129748500Y-76750500D01*
X128750500Y-76750500D01*
X128750500Y-75248500D01*
X127248500Y-75248500D01*
X127248500Y-76750500D01*
X126250500Y-76750500D01*
X126250500Y-75248500D01*
X124748500Y-75248500D01*
X124748500Y-76750500D01*
X123750500Y-76750500D01*
X123750500Y-75248500D01*
X122248500Y-75248500D01*
X122248500Y-76472881D01*
X120837116Y-76472881D01*
X119886819Y-75522584D01*
X119853334Y-75461261D01*
X119850500Y-75434903D01*
X119850500Y-74247033D01*
X122248500Y-74247033D01*
X122248500Y-74250500D01*
X123750500Y-74250500D01*
X123750500Y-73845930D01*
X123750398Y-73845878D01*
X127248500Y-73845878D01*
X127248500Y-74250500D01*
X128750500Y-74250500D01*
X129748500Y-74250500D01*
X131250500Y-74250500D01*
X132248500Y-74250500D01*
X133750500Y-74250500D01*
X134748500Y-74250500D01*
X136250500Y-74250500D01*
X137248500Y-74250500D01*
X138750500Y-74250500D01*
X138750500Y-72748500D01*
X137248500Y-72748500D01*
X137248500Y-74250500D01*
X136250500Y-74250500D01*
X136250500Y-72748500D01*
X134748500Y-72748500D01*
X134748500Y-74250500D01*
X133750500Y-74250500D01*
X133750500Y-72748500D01*
X132248500Y-72748500D01*
X132248500Y-74250500D01*
X131250500Y-74250500D01*
X131250500Y-72748500D01*
X129748500Y-72748500D01*
X129748500Y-74250500D01*
X128750500Y-74250500D01*
X128750500Y-72748500D01*
X128212765Y-72748500D01*
X128212511Y-72749282D01*
X128210917Y-72753879D01*
X128200732Y-72781489D01*
X128198959Y-72786020D01*
X128183960Y-72822237D01*
X128182007Y-72826702D01*
X128169664Y-72853478D01*
X128167538Y-72857862D01*
X128071125Y-73047081D01*
X128068829Y-73051376D01*
X128054430Y-73077087D01*
X128051967Y-73081289D01*
X128031474Y-73114729D01*
X128028845Y-73118835D01*
X128012468Y-73143341D01*
X128009683Y-73147337D01*
X127863310Y-73348767D01*
X127823580Y-73384066D01*
X127702092Y-73452092D01*
X127634066Y-73573580D01*
X127598767Y-73613310D01*
X127397337Y-73759683D01*
X127393341Y-73762468D01*
X127368835Y-73778845D01*
X127364729Y-73781474D01*
X127331289Y-73801967D01*
X127327087Y-73804430D01*
X127301376Y-73818829D01*
X127297081Y-73821125D01*
X127248500Y-73845878D01*
X123750398Y-73845878D01*
X123702669Y-73821560D01*
X123698372Y-73819264D01*
X123672676Y-73804873D01*
X123668479Y-73802413D01*
X123635054Y-73781931D01*
X123630954Y-73779306D01*
X123606456Y-73762938D01*
X123602458Y-73760152D01*
X123430601Y-73635289D01*
X123426718Y-73632349D01*
X123403585Y-73614112D01*
X123399822Y-73611024D01*
X123370015Y-73585566D01*
X123367156Y-73583025D01*
X123345277Y-73595278D01*
X123277217Y-73716812D01*
X123241914Y-73756541D01*
X123002115Y-73930771D01*
X122998120Y-73933556D01*
X122973630Y-73949920D01*
X122969530Y-73952544D01*
X122936103Y-73973029D01*
X122931899Y-73975493D01*
X122906191Y-73989890D01*
X122901898Y-73992185D01*
X122684633Y-74102887D01*
X122680248Y-74105013D01*
X122653474Y-74117355D01*
X122649008Y-74119309D01*
X122612792Y-74134307D01*
X122608261Y-74136080D01*
X122580652Y-74146264D01*
X122576058Y-74147857D01*
X122344166Y-74223205D01*
X122339503Y-74224619D01*
X122311124Y-74232622D01*
X122306405Y-74233853D01*
X122268286Y-74243001D01*
X122263536Y-74244043D01*
X122248500Y-74247033D01*
X119850500Y-74247033D01*
X119850500Y-73229601D01*
X119870185Y-73162562D01*
X119918206Y-73119116D01*
X119931610Y-73112287D01*
X120097219Y-72991966D01*
X120241966Y-72847219D01*
X120241968Y-72847215D01*
X120241971Y-72847213D01*
X120362286Y-72681611D01*
X120362415Y-72681359D01*
X120389795Y-72627621D01*
X120437769Y-72576826D01*
X120505589Y-72560030D01*
X120571725Y-72582567D01*
X120610765Y-72627621D01*
X120638141Y-72681350D01*
X120638147Y-72681359D01*
X120670523Y-72725921D01*
X120670524Y-72725922D01*
X121350000Y-72046446D01*
X121350000Y-72052661D01*
X121377259Y-72154394D01*
X121429920Y-72245606D01*
X121504394Y-72320080D01*
X121595606Y-72372741D01*
X121697339Y-72400000D01*
X121703553Y-72400000D01*
X121024076Y-73079474D01*
X121068650Y-73111859D01*
X121250968Y-73204755D01*
X121445582Y-73267990D01*
X121647683Y-73300000D01*
X121852317Y-73300000D01*
X122054417Y-73267990D01*
X122249031Y-73204755D01*
X122431349Y-73111859D01*
X122475921Y-73079474D01*
X121796447Y-72400000D01*
X121802661Y-72400000D01*
X121904394Y-72372741D01*
X121995606Y-72320080D01*
X122070080Y-72245606D01*
X122122741Y-72154394D01*
X122150000Y-72052661D01*
X122150000Y-72046447D01*
X122829474Y-72725921D01*
X122861859Y-72681349D01*
X122954755Y-72499031D01*
X123017990Y-72304417D01*
X123050000Y-72102317D01*
X123050000Y-71913389D01*
X123649500Y-71913389D01*
X123649500Y-72086611D01*
X123676598Y-72257701D01*
X123730127Y-72422445D01*
X123808768Y-72576788D01*
X123910586Y-72716928D01*
X124033072Y-72839414D01*
X124173212Y-72941232D01*
X124327555Y-73019873D01*
X124492299Y-73073402D01*
X124663389Y-73100500D01*
X124663390Y-73100500D01*
X124836610Y-73100500D01*
X124836611Y-73100500D01*
X125007701Y-73073402D01*
X125172445Y-73019873D01*
X125326788Y-72941232D01*
X125427540Y-72868030D01*
X125493344Y-72844551D01*
X125561398Y-72860376D01*
X125573309Y-72868030D01*
X125673475Y-72940804D01*
X125827742Y-73019408D01*
X125992415Y-73072914D01*
X126163429Y-73100000D01*
X126336571Y-73100000D01*
X126507584Y-73072914D01*
X126672257Y-73019408D01*
X126826525Y-72940803D01*
X126832736Y-72936289D01*
X126191301Y-72294854D01*
X126210504Y-72300000D01*
X126289496Y-72300000D01*
X126365796Y-72279556D01*
X126434205Y-72240060D01*
X126490060Y-72184205D01*
X126529556Y-72115796D01*
X126550000Y-72039496D01*
X126550000Y-71999999D01*
X126603553Y-71999999D01*
X126603553Y-72000000D01*
X127186289Y-72582736D01*
X127190803Y-72576525D01*
X127269408Y-72422257D01*
X127322914Y-72257584D01*
X127350000Y-72086571D01*
X127350000Y-71913428D01*
X127322914Y-71742415D01*
X127269408Y-71577742D01*
X127190801Y-71423471D01*
X127186290Y-71417262D01*
X127186289Y-71417261D01*
X126603553Y-71999999D01*
X126550000Y-71999999D01*
X126550000Y-71960504D01*
X126529556Y-71884204D01*
X126490060Y-71815795D01*
X126434205Y-71759940D01*
X126365796Y-71720444D01*
X126289496Y-71700000D01*
X126210504Y-71700000D01*
X126191300Y-71705145D01*
X126832737Y-71063709D01*
X126826525Y-71059196D01*
X126672259Y-70980592D01*
X126507584Y-70927085D01*
X126336571Y-70900000D01*
X126163429Y-70900000D01*
X125992415Y-70927085D01*
X125827742Y-70980591D01*
X125673472Y-71059197D01*
X125573309Y-71131969D01*
X125507503Y-71155448D01*
X125439449Y-71139622D01*
X125427540Y-71131968D01*
X125326791Y-71058770D01*
X125326790Y-71058769D01*
X125326788Y-71058768D01*
X125172445Y-70980127D01*
X125007701Y-70926598D01*
X125007699Y-70926597D01*
X125007698Y-70926597D01*
X124876271Y-70905781D01*
X124836611Y-70899500D01*
X124663389Y-70899500D01*
X124623728Y-70905781D01*
X124492302Y-70926597D01*
X124327552Y-70980128D01*
X124173211Y-71058768D01*
X124139035Y-71083599D01*
X124033072Y-71160586D01*
X124033070Y-71160588D01*
X124033069Y-71160588D01*
X123910588Y-71283069D01*
X123910588Y-71283070D01*
X123910586Y-71283072D01*
X123884737Y-71318650D01*
X123808768Y-71423211D01*
X123730128Y-71577552D01*
X123676597Y-71742302D01*
X123670644Y-71779889D01*
X123649500Y-71913389D01*
X123050000Y-71913389D01*
X123050000Y-71897682D01*
X123017990Y-71695582D01*
X122954755Y-71500968D01*
X122861859Y-71318650D01*
X122829474Y-71274077D01*
X122829474Y-71274076D01*
X122150000Y-71953551D01*
X122150000Y-71947339D01*
X122122741Y-71845606D01*
X122070080Y-71754394D01*
X121995606Y-71679920D01*
X121904394Y-71627259D01*
X121802661Y-71600000D01*
X121796446Y-71600000D01*
X122475922Y-70920524D01*
X122475921Y-70920523D01*
X122431359Y-70888147D01*
X122431350Y-70888141D01*
X122249031Y-70795244D01*
X122054417Y-70732009D01*
X121852317Y-70700000D01*
X121647683Y-70700000D01*
X121445582Y-70732009D01*
X121250968Y-70795244D01*
X121068644Y-70888143D01*
X121024077Y-70920523D01*
X121024077Y-70920524D01*
X121703554Y-71600000D01*
X121697339Y-71600000D01*
X121595606Y-71627259D01*
X121504394Y-71679920D01*
X121429920Y-71754394D01*
X121377259Y-71845606D01*
X121350000Y-71947339D01*
X121350000Y-71953553D01*
X120670524Y-71274077D01*
X120670523Y-71274077D01*
X120638143Y-71318644D01*
X120610765Y-71372378D01*
X120562790Y-71423174D01*
X120494969Y-71439969D01*
X120428834Y-71417431D01*
X120389795Y-71372378D01*
X120362284Y-71318385D01*
X120241971Y-71152786D01*
X120097213Y-71008028D01*
X119931613Y-70887715D01*
X119931612Y-70887714D01*
X119931610Y-70887713D01*
X119862946Y-70852727D01*
X119749223Y-70794781D01*
X119554534Y-70731522D01*
X119379995Y-70703878D01*
X119352352Y-70699500D01*
X119147648Y-70699500D01*
X119123329Y-70703351D01*
X118945465Y-70731522D01*
X118750776Y-70794781D01*
X118568386Y-70887715D01*
X118402786Y-71008028D01*
X118258028Y-71152786D01*
X118137715Y-71318386D01*
X118044781Y-71500776D01*
X117981522Y-71695465D01*
X117949500Y-71897648D01*
X117000500Y-71897648D01*
X117000500Y-70248500D01*
X127408595Y-70248500D01*
X127598706Y-70386615D01*
X127634012Y-70426343D01*
X127702093Y-70547904D01*
X127823640Y-70615975D01*
X127863368Y-70651279D01*
X128009727Y-70852727D01*
X128012512Y-70856722D01*
X128028878Y-70881216D01*
X128031503Y-70885318D01*
X128051984Y-70918741D01*
X128054445Y-70922940D01*
X128068835Y-70948635D01*
X128071131Y-70952929D01*
X128167538Y-71142138D01*
X128169664Y-71146522D01*
X128182007Y-71173298D01*
X128183960Y-71177763D01*
X128198959Y-71213980D01*
X128200732Y-71218511D01*
X128210917Y-71246121D01*
X128212511Y-71250718D01*
X128278129Y-71452669D01*
X128279543Y-71457331D01*
X128287546Y-71485710D01*
X128288777Y-71490429D01*
X128297925Y-71528547D01*
X128298967Y-71533298D01*
X128304707Y-71562161D01*
X128305562Y-71566949D01*
X128334634Y-71750500D01*
X128750500Y-71750500D01*
X128750500Y-70248500D01*
X127408595Y-70248500D01*
X117000500Y-70248500D01*
X117000500Y-69250500D01*
X118124000Y-69250500D01*
X118750500Y-69250500D01*
X119748500Y-69250500D01*
X121250500Y-69250500D01*
X122248500Y-69250500D01*
X123750500Y-69250500D01*
X123750500Y-68498499D01*
X123398752Y-68498500D01*
X123395428Y-68498455D01*
X123375327Y-68497916D01*
X123372007Y-68497783D01*
X123345320Y-68496351D01*
X123342011Y-68496129D01*
X123322018Y-68494519D01*
X123318715Y-68494208D01*
X123214825Y-68483038D01*
X123207157Y-68481971D01*
X123171497Y-68475866D01*
X124748500Y-68475866D01*
X124748500Y-69250500D01*
X126250500Y-69250500D01*
X126250500Y-68487178D01*
X126236789Y-68485145D01*
X126230792Y-68484104D01*
X125989427Y-68436093D01*
X125983485Y-68434759D01*
X125947759Y-68425809D01*
X125941895Y-68424186D01*
X125895000Y-68409960D01*
X125889222Y-68408051D01*
X125865000Y-68399384D01*
X125840778Y-68408051D01*
X125835000Y-68409960D01*
X125788105Y-68424186D01*
X125782241Y-68425809D01*
X125746515Y-68434759D01*
X125740573Y-68436093D01*
X125499208Y-68484104D01*
X125493211Y-68485145D01*
X125456779Y-68490549D01*
X125450738Y-68491294D01*
X125401966Y-68496097D01*
X125395896Y-68496545D01*
X125359124Y-68498351D01*
X125353041Y-68498500D01*
X125106959Y-68498500D01*
X125100876Y-68498351D01*
X125064104Y-68496545D01*
X125058034Y-68496097D01*
X125009262Y-68491294D01*
X125003221Y-68490549D01*
X124966789Y-68485145D01*
X124960791Y-68484104D01*
X124828648Y-68457818D01*
X124827352Y-68458168D01*
X124766637Y-68472516D01*
X124759045Y-68474061D01*
X124748500Y-68475866D01*
X123171497Y-68475866D01*
X123160971Y-68474064D01*
X123153381Y-68472519D01*
X123092670Y-68458174D01*
X123085191Y-68456158D01*
X123040328Y-68442550D01*
X123032988Y-68440071D01*
X122835498Y-68366413D01*
X122827318Y-68363025D01*
X122805632Y-68353121D01*
X127248500Y-68353121D01*
X127248500Y-69250500D01*
X128750500Y-69250500D01*
X128750500Y-68300014D01*
X130600000Y-68300014D01*
X130600000Y-69250000D01*
X131899999Y-69250000D01*
X131874979Y-69310402D01*
X131850000Y-69435981D01*
X131850000Y-69564019D01*
X131874979Y-69689598D01*
X131899999Y-69750000D01*
X130600000Y-69750000D01*
X130600000Y-70699985D01*
X130610493Y-70802689D01*
X130610494Y-70802696D01*
X130665641Y-70969118D01*
X130665643Y-70969123D01*
X130757684Y-71118344D01*
X130881655Y-71242315D01*
X131030876Y-71334356D01*
X131030881Y-71334358D01*
X131197303Y-71389505D01*
X131197310Y-71389506D01*
X131300014Y-71399999D01*
X131300027Y-71400000D01*
X132250000Y-71400000D01*
X132250000Y-70100001D01*
X132310402Y-70125021D01*
X132435981Y-70150000D01*
X132564019Y-70150000D01*
X132689598Y-70125021D01*
X132750000Y-70100001D01*
X132750000Y-71400000D01*
X133699973Y-71400000D01*
X133699985Y-71399999D01*
X133802689Y-71389506D01*
X133802696Y-71389505D01*
X133969118Y-71334358D01*
X133969123Y-71334356D01*
X134118344Y-71242315D01*
X134242315Y-71118344D01*
X134334356Y-70969123D01*
X134334358Y-70969118D01*
X134389505Y-70802696D01*
X134389506Y-70802689D01*
X134399999Y-70699985D01*
X134400000Y-70699972D01*
X134400000Y-69750000D01*
X133100001Y-69750000D01*
X133125021Y-69689598D01*
X133150000Y-69564019D01*
X133150000Y-69435981D01*
X133137958Y-69375441D01*
X135599500Y-69375441D01*
X135599500Y-69624558D01*
X135599501Y-69624575D01*
X135632017Y-69871561D01*
X135696498Y-70112207D01*
X135791830Y-70342361D01*
X135791837Y-70342376D01*
X135916400Y-70558126D01*
X136068060Y-70755774D01*
X136068066Y-70755781D01*
X136244218Y-70931933D01*
X136244225Y-70931939D01*
X136441873Y-71083599D01*
X136657623Y-71208162D01*
X136657638Y-71208169D01*
X136740075Y-71242315D01*
X136887793Y-71303502D01*
X137128435Y-71367982D01*
X137375435Y-71400500D01*
X137375442Y-71400500D01*
X137624558Y-71400500D01*
X137624565Y-71400500D01*
X137871565Y-71367982D01*
X138112207Y-71303502D01*
X138342373Y-71208164D01*
X138558127Y-71083599D01*
X138755776Y-70931938D01*
X138931938Y-70755776D01*
X139083599Y-70558127D01*
X139208164Y-70342373D01*
X139303502Y-70112207D01*
X139367982Y-69871565D01*
X139400500Y-69624565D01*
X139400500Y-69375435D01*
X139367982Y-69128435D01*
X139303502Y-68887793D01*
X139238992Y-68732052D01*
X139208169Y-68657638D01*
X139208162Y-68657623D01*
X139083599Y-68441873D01*
X138931939Y-68244225D01*
X138931933Y-68244218D01*
X138755781Y-68068066D01*
X138755774Y-68068060D01*
X138558126Y-67916400D01*
X138342376Y-67791837D01*
X138342361Y-67791830D01*
X138237752Y-67748500D01*
X139809507Y-67748500D01*
X139885308Y-67847286D01*
X139887725Y-67850544D01*
X139902019Y-67870491D01*
X139904328Y-67873828D01*
X139922476Y-67900988D01*
X139924676Y-67904400D01*
X139937641Y-67925250D01*
X139939726Y-67928729D01*
X140080620Y-68172766D01*
X140082589Y-68176309D01*
X140094152Y-68197940D01*
X140096006Y-68201549D01*
X140110454Y-68230844D01*
X140112191Y-68234516D01*
X140122329Y-68256891D01*
X140123943Y-68260614D01*
X140231779Y-68520953D01*
X140233269Y-68524724D01*
X140241906Y-68547670D01*
X140243272Y-68551488D01*
X140253773Y-68582418D01*
X140255015Y-68586282D01*
X140262149Y-68609796D01*
X140263265Y-68613702D01*
X140336203Y-68885907D01*
X140337189Y-68889844D01*
X140342762Y-68913746D01*
X140343618Y-68917710D01*
X140349991Y-68949747D01*
X140350719Y-68953745D01*
X140354717Y-68977966D01*
X140355311Y-68981975D01*
X140390664Y-69250500D01*
X140439598Y-69250500D01*
X140539321Y-69131654D01*
X140542887Y-69127588D01*
X140565000Y-69103455D01*
X140568743Y-69099545D01*
X140599545Y-69068743D01*
X140603455Y-69065000D01*
X140627588Y-69042887D01*
X140631654Y-69039321D01*
X140799132Y-68898792D01*
X140803350Y-68895406D01*
X140829318Y-68875480D01*
X140833683Y-68872280D01*
X140869361Y-68847299D01*
X140873858Y-68844294D01*
X140901458Y-68826711D01*
X140906082Y-68823905D01*
X141095417Y-68714591D01*
X141100161Y-68711989D01*
X141129204Y-68696870D01*
X141134061Y-68694475D01*
X141173539Y-68676068D01*
X141178488Y-68673890D01*
X141206987Y-68662085D01*
X141203176Y-68654027D01*
X141200710Y-68648463D01*
X141106541Y-68421116D01*
X141104351Y-68415439D01*
X141091949Y-68380778D01*
X141090040Y-68375000D01*
X141075814Y-68328105D01*
X141074191Y-68322241D01*
X141065241Y-68286515D01*
X141063907Y-68280573D01*
X141015896Y-68039208D01*
X141014855Y-68033211D01*
X141009451Y-67996779D01*
X141008706Y-67990738D01*
X141003903Y-67941966D01*
X141003455Y-67935896D01*
X141001649Y-67899124D01*
X141001500Y-67893041D01*
X141001500Y-67868543D01*
X141999499Y-67868543D01*
X142037947Y-68061829D01*
X142037950Y-68061839D01*
X142113364Y-68243907D01*
X142113371Y-68243920D01*
X142222860Y-68407781D01*
X142222863Y-68407785D01*
X142362214Y-68547136D01*
X142362218Y-68547139D01*
X142526079Y-68656628D01*
X142526092Y-68656635D01*
X142708160Y-68732049D01*
X142708165Y-68732051D01*
X142708169Y-68732051D01*
X142708170Y-68732052D01*
X142901456Y-68770500D01*
X142901459Y-68770500D01*
X143098543Y-68770500D01*
X143228582Y-68744632D01*
X143291835Y-68732051D01*
X143460749Y-68662085D01*
X143473907Y-68656635D01*
X143473907Y-68656634D01*
X143473914Y-68656632D01*
X143637782Y-68547139D01*
X143777139Y-68407782D01*
X143886632Y-68243914D01*
X143962051Y-68061835D01*
X143997796Y-67882135D01*
X144000500Y-67868543D01*
X144000500Y-67671456D01*
X143962052Y-67478170D01*
X143962051Y-67478169D01*
X143962051Y-67478165D01*
X143919458Y-67375337D01*
X143911990Y-67305869D01*
X143934757Y-67253571D01*
X143943351Y-67242091D01*
X143993597Y-67107376D01*
X143993598Y-67107372D01*
X143999999Y-67047844D01*
X144000000Y-67047827D01*
X144000000Y-66750000D01*
X143209618Y-66750000D01*
X143260064Y-66699554D01*
X143302851Y-66625445D01*
X143325000Y-66542787D01*
X143325000Y-66457213D01*
X143302851Y-66374555D01*
X143260064Y-66300446D01*
X143209618Y-66250000D01*
X143250000Y-66250000D01*
X144000000Y-66250000D01*
X144000000Y-65952172D01*
X143999999Y-65952155D01*
X143993598Y-65892627D01*
X143993596Y-65892620D01*
X143943354Y-65757913D01*
X143943350Y-65757906D01*
X143857190Y-65642812D01*
X143857187Y-65642809D01*
X143742093Y-65556649D01*
X143742086Y-65556645D01*
X143607379Y-65506403D01*
X143607372Y-65506401D01*
X143547844Y-65500000D01*
X143250000Y-65500000D01*
X143250000Y-66250000D01*
X143209618Y-66250000D01*
X143199554Y-66239936D01*
X143125445Y-66197149D01*
X143042787Y-66175000D01*
X142957213Y-66175000D01*
X142874555Y-66197149D01*
X142800446Y-66239936D01*
X142739936Y-66300446D01*
X142697149Y-66374555D01*
X142675000Y-66457213D01*
X142675000Y-66542787D01*
X142697149Y-66625445D01*
X142739936Y-66699554D01*
X142790382Y-66750000D01*
X142000000Y-66750000D01*
X142000000Y-67047844D01*
X142006401Y-67107372D01*
X142006402Y-67107376D01*
X142056647Y-67242088D01*
X142056649Y-67242092D01*
X142065247Y-67253577D01*
X142089663Y-67319041D01*
X142080541Y-67375337D01*
X142062174Y-67419681D01*
X142037950Y-67478164D01*
X142037948Y-67478168D01*
X142037947Y-67478171D01*
X141999500Y-67671456D01*
X141999500Y-67671459D01*
X141999500Y-67868541D01*
X141999500Y-67868543D01*
X141999499Y-67868543D01*
X141001500Y-67868543D01*
X141001500Y-67748500D01*
X139809507Y-67748500D01*
X138237752Y-67748500D01*
X138112207Y-67696498D01*
X137871561Y-67632017D01*
X137624575Y-67599501D01*
X137624570Y-67599500D01*
X137624565Y-67599500D01*
X137375435Y-67599500D01*
X137375429Y-67599500D01*
X137375424Y-67599501D01*
X137128438Y-67632017D01*
X136887792Y-67696498D01*
X136657638Y-67791830D01*
X136657623Y-67791837D01*
X136441873Y-67916400D01*
X136244225Y-68068060D01*
X136244218Y-68068066D01*
X136068066Y-68244218D01*
X136068060Y-68244225D01*
X135916400Y-68441873D01*
X135791837Y-68657623D01*
X135791830Y-68657638D01*
X135696498Y-68887792D01*
X135632017Y-69128438D01*
X135599501Y-69375424D01*
X135599500Y-69375441D01*
X133137958Y-69375441D01*
X133125021Y-69310402D01*
X133100001Y-69250000D01*
X134400000Y-69250000D01*
X134400000Y-68300027D01*
X134399999Y-68300014D01*
X134389506Y-68197310D01*
X134389505Y-68197303D01*
X134334358Y-68030881D01*
X134334356Y-68030876D01*
X134242315Y-67881655D01*
X134118344Y-67757684D01*
X133969123Y-67665643D01*
X133969118Y-67665641D01*
X133802696Y-67610494D01*
X133802689Y-67610493D01*
X133699985Y-67600000D01*
X132750000Y-67600000D01*
X132750000Y-68899998D01*
X132689598Y-68874979D01*
X132564019Y-68850000D01*
X132435981Y-68850000D01*
X132310402Y-68874979D01*
X132250000Y-68899998D01*
X132250000Y-67600000D01*
X131300014Y-67600000D01*
X131197310Y-67610493D01*
X131197303Y-67610494D01*
X131030881Y-67665641D01*
X131030876Y-67665643D01*
X130881655Y-67757684D01*
X130757684Y-67881655D01*
X130665643Y-68030876D01*
X130665641Y-68030881D01*
X130610494Y-68197303D01*
X130610493Y-68197310D01*
X130600000Y-68300014D01*
X128750500Y-68300014D01*
X128750500Y-67748500D01*
X128066853Y-67748500D01*
X128064151Y-67751962D01*
X128033062Y-67789844D01*
X128029088Y-67794451D01*
X128004357Y-67821738D01*
X128000159Y-67826147D01*
X127826147Y-68000159D01*
X127821738Y-68004357D01*
X127794451Y-68029088D01*
X127789844Y-68033062D01*
X127751962Y-68064151D01*
X127747162Y-68067897D01*
X127717588Y-68089830D01*
X127712614Y-68093333D01*
X127507997Y-68230054D01*
X127502853Y-68233311D01*
X127471261Y-68252246D01*
X127465965Y-68255246D01*
X127422744Y-68278347D01*
X127417309Y-68281083D01*
X127384027Y-68296824D01*
X127378463Y-68299290D01*
X127248500Y-68353121D01*
X122805632Y-68353121D01*
X122778581Y-68340767D01*
X122770667Y-68336805D01*
X122708077Y-68302628D01*
X122700463Y-68298110D01*
X122655396Y-68269146D01*
X122648126Y-68264098D01*
X122475827Y-68135114D01*
X122468936Y-68129561D01*
X122428451Y-68094481D01*
X122421972Y-68088449D01*
X122371551Y-68038028D01*
X122365519Y-68031549D01*
X122330439Y-67991064D01*
X122324886Y-67984173D01*
X122248500Y-67882135D01*
X122248500Y-69250500D01*
X121250500Y-69250500D01*
X121250500Y-67748500D01*
X119748500Y-67748500D01*
X119748500Y-69250500D01*
X118750500Y-69250500D01*
X118750500Y-67748500D01*
X118124000Y-67748500D01*
X118124000Y-69250500D01*
X117000500Y-69250500D01*
X117000500Y-66750500D01*
X119748500Y-66750500D01*
X121250500Y-66750500D01*
X121250500Y-66124000D01*
X119748500Y-66124000D01*
X119748500Y-66750500D01*
X117000500Y-66750500D01*
X117000500Y-65952135D01*
X122959500Y-65952135D01*
X122959500Y-67047870D01*
X122959501Y-67047876D01*
X122965908Y-67107483D01*
X123016202Y-67242328D01*
X123016206Y-67242335D01*
X123102452Y-67357544D01*
X123102455Y-67357547D01*
X123217664Y-67443793D01*
X123217671Y-67443797D01*
X123352517Y-67494091D01*
X123352516Y-67494091D01*
X123359444Y-67494835D01*
X123412127Y-67500500D01*
X124507872Y-67500499D01*
X124567483Y-67494091D01*
X124702331Y-67443796D01*
X124714110Y-67434977D01*
X124779570Y-67410558D01*
X124835872Y-67419680D01*
X124938165Y-67462051D01*
X124938169Y-67462051D01*
X124938170Y-67462052D01*
X125131456Y-67500500D01*
X125131459Y-67500500D01*
X125328543Y-67500500D01*
X125458582Y-67474632D01*
X125521835Y-67462051D01*
X125703914Y-67386632D01*
X125796109Y-67325029D01*
X125862786Y-67304151D01*
X125930166Y-67322635D01*
X125933891Y-67325029D01*
X126009182Y-67375337D01*
X126026086Y-67386632D01*
X126026088Y-67386633D01*
X126026092Y-67386635D01*
X126208160Y-67462049D01*
X126208165Y-67462051D01*
X126208169Y-67462051D01*
X126208170Y-67462052D01*
X126401456Y-67500500D01*
X126401459Y-67500500D01*
X126598543Y-67500500D01*
X126728582Y-67474632D01*
X126791835Y-67462051D01*
X126973914Y-67386632D01*
X127137782Y-67277139D01*
X127277139Y-67137782D01*
X127386632Y-66973914D01*
X127462051Y-66791835D01*
X127470273Y-66750500D01*
X129748500Y-66750500D01*
X130631940Y-66750500D01*
X134748500Y-66750500D01*
X136250500Y-66750500D01*
X136250500Y-66609599D01*
X137248500Y-66609599D01*
X137261363Y-66607906D01*
X137265394Y-66607442D01*
X137289823Y-66605036D01*
X137293869Y-66604704D01*
X137326465Y-66602568D01*
X137330516Y-66602369D01*
X137355047Y-66601566D01*
X137359104Y-66601500D01*
X137640896Y-66601500D01*
X137644953Y-66601566D01*
X137669484Y-66602369D01*
X137673535Y-66602568D01*
X137706131Y-66604704D01*
X137710177Y-66605036D01*
X137734606Y-66607442D01*
X137738638Y-66607906D01*
X138018025Y-66644689D01*
X138022034Y-66645283D01*
X138046255Y-66649281D01*
X138050253Y-66650009D01*
X138082290Y-66656382D01*
X138086254Y-66657238D01*
X138110156Y-66662811D01*
X138114093Y-66663797D01*
X138386298Y-66736735D01*
X138390204Y-66737851D01*
X138413718Y-66744985D01*
X138417582Y-66746227D01*
X138430168Y-66750500D01*
X138750500Y-66750500D01*
X139748500Y-66750500D01*
X141002000Y-66750500D01*
X141002000Y-66549454D01*
X141011439Y-66502002D01*
X141012268Y-66500000D01*
X141011439Y-66497998D01*
X141002000Y-66450546D01*
X141002000Y-66124000D01*
X139748500Y-66124000D01*
X139748500Y-66750500D01*
X138750500Y-66750500D01*
X138750500Y-66124000D01*
X137248500Y-66124000D01*
X137248500Y-66609599D01*
X136250500Y-66609599D01*
X136250500Y-66124000D01*
X134748500Y-66124000D01*
X134748500Y-66750500D01*
X130631940Y-66750500D01*
X130635447Y-66748865D01*
X130642067Y-66746010D01*
X130682619Y-66729900D01*
X130689396Y-66727433D01*
X130909225Y-66654589D01*
X130915698Y-66652638D01*
X130955166Y-66641908D01*
X130961734Y-66640314D01*
X131014983Y-66628912D01*
X131021634Y-66627676D01*
X131062068Y-66621301D01*
X131068777Y-66620430D01*
X131211233Y-66605876D01*
X131214379Y-66605595D01*
X131233428Y-66604138D01*
X131236579Y-66603937D01*
X131250500Y-66603228D01*
X131250500Y-66602000D01*
X132248500Y-66602000D01*
X132450546Y-66602000D01*
X132497998Y-66611439D01*
X132500000Y-66612268D01*
X132502002Y-66611439D01*
X132549454Y-66602000D01*
X133712673Y-66602000D01*
X133715825Y-66602040D01*
X133734896Y-66602525D01*
X133738050Y-66602645D01*
X133750500Y-66603279D01*
X133750500Y-66124000D01*
X132248500Y-66124000D01*
X132248500Y-66602000D01*
X131250500Y-66602000D01*
X131250500Y-66124000D01*
X129748500Y-66124000D01*
X129748500Y-66750500D01*
X127470273Y-66750500D01*
X127474632Y-66728582D01*
X127500500Y-66598543D01*
X127500500Y-66401456D01*
X127462052Y-66208170D01*
X127462051Y-66208169D01*
X127462051Y-66208165D01*
X127427189Y-66124000D01*
X127386635Y-66026092D01*
X127386628Y-66026079D01*
X127337233Y-65952155D01*
X142000000Y-65952155D01*
X142000000Y-66250000D01*
X142750000Y-66250000D01*
X142750000Y-65500000D01*
X142452155Y-65500000D01*
X142392627Y-65506401D01*
X142392620Y-65506403D01*
X142257913Y-65556645D01*
X142257906Y-65556649D01*
X142142812Y-65642809D01*
X142142809Y-65642812D01*
X142056649Y-65757906D01*
X142056645Y-65757913D01*
X142006403Y-65892620D01*
X142006401Y-65892627D01*
X142000000Y-65952155D01*
X127337233Y-65952155D01*
X127277139Y-65862218D01*
X127277136Y-65862214D01*
X127137785Y-65722863D01*
X127137781Y-65722860D01*
X126973920Y-65613371D01*
X126973907Y-65613364D01*
X126791839Y-65537950D01*
X126791829Y-65537947D01*
X126598543Y-65499500D01*
X126598541Y-65499500D01*
X126401459Y-65499500D01*
X126401457Y-65499500D01*
X126208170Y-65537947D01*
X126208160Y-65537950D01*
X126026089Y-65613366D01*
X125933890Y-65674971D01*
X125867213Y-65695848D01*
X125799833Y-65677363D01*
X125796110Y-65674971D01*
X125747980Y-65642812D01*
X125703914Y-65613368D01*
X125703911Y-65613366D01*
X125703910Y-65613366D01*
X125521839Y-65537950D01*
X125521829Y-65537947D01*
X125328543Y-65499500D01*
X125328541Y-65499500D01*
X125131459Y-65499500D01*
X125131457Y-65499500D01*
X124938171Y-65537947D01*
X124938168Y-65537948D01*
X124938166Y-65537948D01*
X124938165Y-65537949D01*
X124938163Y-65537950D01*
X124835874Y-65580318D01*
X124766404Y-65587785D01*
X124714113Y-65565023D01*
X124702335Y-65556206D01*
X124702328Y-65556202D01*
X124567482Y-65505908D01*
X124567483Y-65505908D01*
X124507883Y-65499501D01*
X124507881Y-65499500D01*
X124507873Y-65499500D01*
X124507864Y-65499500D01*
X123412129Y-65499500D01*
X123412123Y-65499501D01*
X123352516Y-65505908D01*
X123217671Y-65556202D01*
X123217664Y-65556206D01*
X123102455Y-65642452D01*
X123102452Y-65642455D01*
X123016206Y-65757664D01*
X123016202Y-65757671D01*
X122965908Y-65892517D01*
X122959501Y-65952116D01*
X122959500Y-65952135D01*
X117000500Y-65952135D01*
X117000500Y-65550861D01*
X117020185Y-65483822D01*
X117036814Y-65463185D01*
X117463182Y-65036817D01*
X117524503Y-65003334D01*
X117550861Y-65000500D01*
X117565892Y-65000500D01*
X143934108Y-65000500D01*
X143949138Y-65000500D01*
X144016177Y-65020185D01*
G37*
%TD.AperFunction*%
%TD*%
M02*
