%TF.GenerationSoftware,KiCad,Pcbnew,9.0.1*%
%TF.CreationDate,2025-05-11T23:30:35+05:30*%
%TF.ProjectId,Breadboard Power Supply,42726561-6462-46f6-9172-6420506f7765,1*%
%TF.SameCoordinates,Original*%
%TF.FileFunction,Legend,Top*%
%TF.FilePolarity,Positive*%
%FSLAX46Y46*%
G04 Gerber Fmt 4.6, Leading zero omitted, Abs format (unit mm)*
G04 Created by KiCad (PCBNEW 9.0.1) date 2025-05-11 23:30:35*
%MOMM*%
%LPD*%
G01*
G04 APERTURE LIST*
%ADD10C,0.150000*%
%ADD11C,0.120000*%
%ADD12C,0.100000*%
G04 APERTURE END LIST*
D10*
X122198095Y-100629819D02*
X122198095Y-101439342D01*
X122198095Y-101439342D02*
X122245714Y-101534580D01*
X122245714Y-101534580D02*
X122293333Y-101582200D01*
X122293333Y-101582200D02*
X122388571Y-101629819D01*
X122388571Y-101629819D02*
X122579047Y-101629819D01*
X122579047Y-101629819D02*
X122674285Y-101582200D01*
X122674285Y-101582200D02*
X122721904Y-101534580D01*
X122721904Y-101534580D02*
X122769523Y-101439342D01*
X122769523Y-101439342D02*
X122769523Y-100629819D01*
X123198095Y-100725057D02*
X123245714Y-100677438D01*
X123245714Y-100677438D02*
X123340952Y-100629819D01*
X123340952Y-100629819D02*
X123579047Y-100629819D01*
X123579047Y-100629819D02*
X123674285Y-100677438D01*
X123674285Y-100677438D02*
X123721904Y-100725057D01*
X123721904Y-100725057D02*
X123769523Y-100820295D01*
X123769523Y-100820295D02*
X123769523Y-100915533D01*
X123769523Y-100915533D02*
X123721904Y-101058390D01*
X123721904Y-101058390D02*
X123150476Y-101629819D01*
X123150476Y-101629819D02*
X123769523Y-101629819D01*
X122198095Y-74629819D02*
X122198095Y-75439342D01*
X122198095Y-75439342D02*
X122245714Y-75534580D01*
X122245714Y-75534580D02*
X122293333Y-75582200D01*
X122293333Y-75582200D02*
X122388571Y-75629819D01*
X122388571Y-75629819D02*
X122579047Y-75629819D01*
X122579047Y-75629819D02*
X122674285Y-75582200D01*
X122674285Y-75582200D02*
X122721904Y-75534580D01*
X122721904Y-75534580D02*
X122769523Y-75439342D01*
X122769523Y-75439342D02*
X122769523Y-74629819D01*
X123769523Y-75629819D02*
X123198095Y-75629819D01*
X123483809Y-75629819D02*
X123483809Y-74629819D01*
X123483809Y-74629819D02*
X123388571Y-74772676D01*
X123388571Y-74772676D02*
X123293333Y-74867914D01*
X123293333Y-74867914D02*
X123198095Y-74915533D01*
X139238095Y-77407200D02*
X139380952Y-77454819D01*
X139380952Y-77454819D02*
X139619047Y-77454819D01*
X139619047Y-77454819D02*
X139714285Y-77407200D01*
X139714285Y-77407200D02*
X139761904Y-77359580D01*
X139761904Y-77359580D02*
X139809523Y-77264342D01*
X139809523Y-77264342D02*
X139809523Y-77169104D01*
X139809523Y-77169104D02*
X139761904Y-77073866D01*
X139761904Y-77073866D02*
X139714285Y-77026247D01*
X139714285Y-77026247D02*
X139619047Y-76978628D01*
X139619047Y-76978628D02*
X139428571Y-76931009D01*
X139428571Y-76931009D02*
X139333333Y-76883390D01*
X139333333Y-76883390D02*
X139285714Y-76835771D01*
X139285714Y-76835771D02*
X139238095Y-76740533D01*
X139238095Y-76740533D02*
X139238095Y-76645295D01*
X139238095Y-76645295D02*
X139285714Y-76550057D01*
X139285714Y-76550057D02*
X139333333Y-76502438D01*
X139333333Y-76502438D02*
X139428571Y-76454819D01*
X139428571Y-76454819D02*
X139666666Y-76454819D01*
X139666666Y-76454819D02*
X139809523Y-76502438D01*
X140761904Y-77454819D02*
X140190476Y-77454819D01*
X140476190Y-77454819D02*
X140476190Y-76454819D01*
X140476190Y-76454819D02*
X140380952Y-76597676D01*
X140380952Y-76597676D02*
X140285714Y-76692914D01*
X140285714Y-76692914D02*
X140190476Y-76740533D01*
X134333333Y-99034819D02*
X134000000Y-98558628D01*
X133761905Y-99034819D02*
X133761905Y-98034819D01*
X133761905Y-98034819D02*
X134142857Y-98034819D01*
X134142857Y-98034819D02*
X134238095Y-98082438D01*
X134238095Y-98082438D02*
X134285714Y-98130057D01*
X134285714Y-98130057D02*
X134333333Y-98225295D01*
X134333333Y-98225295D02*
X134333333Y-98368152D01*
X134333333Y-98368152D02*
X134285714Y-98463390D01*
X134285714Y-98463390D02*
X134238095Y-98511009D01*
X134238095Y-98511009D02*
X134142857Y-98558628D01*
X134142857Y-98558628D02*
X133761905Y-98558628D01*
X134666667Y-98034819D02*
X135285714Y-98034819D01*
X135285714Y-98034819D02*
X134952381Y-98415771D01*
X134952381Y-98415771D02*
X135095238Y-98415771D01*
X135095238Y-98415771D02*
X135190476Y-98463390D01*
X135190476Y-98463390D02*
X135238095Y-98511009D01*
X135238095Y-98511009D02*
X135285714Y-98606247D01*
X135285714Y-98606247D02*
X135285714Y-98844342D01*
X135285714Y-98844342D02*
X135238095Y-98939580D01*
X135238095Y-98939580D02*
X135190476Y-98987200D01*
X135190476Y-98987200D02*
X135095238Y-99034819D01*
X135095238Y-99034819D02*
X134809524Y-99034819D01*
X134809524Y-99034819D02*
X134714286Y-98987200D01*
X134714286Y-98987200D02*
X134666667Y-98939580D01*
X134143333Y-106874819D02*
X133810000Y-106398628D01*
X133571905Y-106874819D02*
X133571905Y-105874819D01*
X133571905Y-105874819D02*
X133952857Y-105874819D01*
X133952857Y-105874819D02*
X134048095Y-105922438D01*
X134048095Y-105922438D02*
X134095714Y-105970057D01*
X134095714Y-105970057D02*
X134143333Y-106065295D01*
X134143333Y-106065295D02*
X134143333Y-106208152D01*
X134143333Y-106208152D02*
X134095714Y-106303390D01*
X134095714Y-106303390D02*
X134048095Y-106351009D01*
X134048095Y-106351009D02*
X133952857Y-106398628D01*
X133952857Y-106398628D02*
X133571905Y-106398628D01*
X134524286Y-105970057D02*
X134571905Y-105922438D01*
X134571905Y-105922438D02*
X134667143Y-105874819D01*
X134667143Y-105874819D02*
X134905238Y-105874819D01*
X134905238Y-105874819D02*
X135000476Y-105922438D01*
X135000476Y-105922438D02*
X135048095Y-105970057D01*
X135048095Y-105970057D02*
X135095714Y-106065295D01*
X135095714Y-106065295D02*
X135095714Y-106160533D01*
X135095714Y-106160533D02*
X135048095Y-106303390D01*
X135048095Y-106303390D02*
X134476667Y-106874819D01*
X134476667Y-106874819D02*
X135095714Y-106874819D01*
X132833333Y-84454819D02*
X132500000Y-83978628D01*
X132261905Y-84454819D02*
X132261905Y-83454819D01*
X132261905Y-83454819D02*
X132642857Y-83454819D01*
X132642857Y-83454819D02*
X132738095Y-83502438D01*
X132738095Y-83502438D02*
X132785714Y-83550057D01*
X132785714Y-83550057D02*
X132833333Y-83645295D01*
X132833333Y-83645295D02*
X132833333Y-83788152D01*
X132833333Y-83788152D02*
X132785714Y-83883390D01*
X132785714Y-83883390D02*
X132738095Y-83931009D01*
X132738095Y-83931009D02*
X132642857Y-83978628D01*
X132642857Y-83978628D02*
X132261905Y-83978628D01*
X133785714Y-84454819D02*
X133214286Y-84454819D01*
X133500000Y-84454819D02*
X133500000Y-83454819D01*
X133500000Y-83454819D02*
X133404762Y-83597676D01*
X133404762Y-83597676D02*
X133309524Y-83692914D01*
X133309524Y-83692914D02*
X133214286Y-83740533D01*
X134416666Y-107334819D02*
X134416666Y-108049104D01*
X134416666Y-108049104D02*
X134369047Y-108191961D01*
X134369047Y-108191961D02*
X134273809Y-108287200D01*
X134273809Y-108287200D02*
X134130952Y-108334819D01*
X134130952Y-108334819D02*
X134035714Y-108334819D01*
X134797619Y-107334819D02*
X135464285Y-107334819D01*
X135464285Y-107334819D02*
X135035714Y-108334819D01*
X122169819Y-115833333D02*
X122884104Y-115833333D01*
X122884104Y-115833333D02*
X123026961Y-115880952D01*
X123026961Y-115880952D02*
X123122200Y-115976190D01*
X123122200Y-115976190D02*
X123169819Y-116119047D01*
X123169819Y-116119047D02*
X123169819Y-116214285D01*
X122169819Y-114928571D02*
X122169819Y-115119047D01*
X122169819Y-115119047D02*
X122217438Y-115214285D01*
X122217438Y-115214285D02*
X122265057Y-115261904D01*
X122265057Y-115261904D02*
X122407914Y-115357142D01*
X122407914Y-115357142D02*
X122598390Y-115404761D01*
X122598390Y-115404761D02*
X122979342Y-115404761D01*
X122979342Y-115404761D02*
X123074580Y-115357142D01*
X123074580Y-115357142D02*
X123122200Y-115309523D01*
X123122200Y-115309523D02*
X123169819Y-115214285D01*
X123169819Y-115214285D02*
X123169819Y-115023809D01*
X123169819Y-115023809D02*
X123122200Y-114928571D01*
X123122200Y-114928571D02*
X123074580Y-114880952D01*
X123074580Y-114880952D02*
X122979342Y-114833333D01*
X122979342Y-114833333D02*
X122741247Y-114833333D01*
X122741247Y-114833333D02*
X122646009Y-114880952D01*
X122646009Y-114880952D02*
X122598390Y-114928571D01*
X122598390Y-114928571D02*
X122550771Y-115023809D01*
X122550771Y-115023809D02*
X122550771Y-115214285D01*
X122550771Y-115214285D02*
X122598390Y-115309523D01*
X122598390Y-115309523D02*
X122646009Y-115357142D01*
X122646009Y-115357142D02*
X122741247Y-115404761D01*
X121669819Y-66833333D02*
X122384104Y-66833333D01*
X122384104Y-66833333D02*
X122526961Y-66880952D01*
X122526961Y-66880952D02*
X122622200Y-66976190D01*
X122622200Y-66976190D02*
X122669819Y-67119047D01*
X122669819Y-67119047D02*
X122669819Y-67214285D01*
X121669819Y-65880952D02*
X121669819Y-66357142D01*
X121669819Y-66357142D02*
X122146009Y-66404761D01*
X122146009Y-66404761D02*
X122098390Y-66357142D01*
X122098390Y-66357142D02*
X122050771Y-66261904D01*
X122050771Y-66261904D02*
X122050771Y-66023809D01*
X122050771Y-66023809D02*
X122098390Y-65928571D01*
X122098390Y-65928571D02*
X122146009Y-65880952D01*
X122146009Y-65880952D02*
X122241247Y-65833333D01*
X122241247Y-65833333D02*
X122479342Y-65833333D01*
X122479342Y-65833333D02*
X122574580Y-65880952D01*
X122574580Y-65880952D02*
X122622200Y-65928571D01*
X122622200Y-65928571D02*
X122669819Y-66023809D01*
X122669819Y-66023809D02*
X122669819Y-66261904D01*
X122669819Y-66261904D02*
X122622200Y-66357142D01*
X122622200Y-66357142D02*
X122574580Y-66404761D01*
X140666666Y-68954819D02*
X140666666Y-69669104D01*
X140666666Y-69669104D02*
X140619047Y-69811961D01*
X140619047Y-69811961D02*
X140523809Y-69907200D01*
X140523809Y-69907200D02*
X140380952Y-69954819D01*
X140380952Y-69954819D02*
X140285714Y-69954819D01*
X141571428Y-69288152D02*
X141571428Y-69954819D01*
X141333333Y-68907200D02*
X141095238Y-69621485D01*
X141095238Y-69621485D02*
X141714285Y-69621485D01*
X140666666Y-113704819D02*
X140666666Y-114419104D01*
X140666666Y-114419104D02*
X140619047Y-114561961D01*
X140619047Y-114561961D02*
X140523809Y-114657200D01*
X140523809Y-114657200D02*
X140380952Y-114704819D01*
X140380952Y-114704819D02*
X140285714Y-114704819D01*
X141047619Y-113704819D02*
X141666666Y-113704819D01*
X141666666Y-113704819D02*
X141333333Y-114085771D01*
X141333333Y-114085771D02*
X141476190Y-114085771D01*
X141476190Y-114085771D02*
X141571428Y-114133390D01*
X141571428Y-114133390D02*
X141619047Y-114181009D01*
X141619047Y-114181009D02*
X141666666Y-114276247D01*
X141666666Y-114276247D02*
X141666666Y-114514342D01*
X141666666Y-114514342D02*
X141619047Y-114609580D01*
X141619047Y-114609580D02*
X141571428Y-114657200D01*
X141571428Y-114657200D02*
X141476190Y-114704819D01*
X141476190Y-114704819D02*
X141190476Y-114704819D01*
X141190476Y-114704819D02*
X141095238Y-114657200D01*
X141095238Y-114657200D02*
X141047619Y-114609580D01*
X134416666Y-66454819D02*
X134416666Y-67169104D01*
X134416666Y-67169104D02*
X134369047Y-67311961D01*
X134369047Y-67311961D02*
X134273809Y-67407200D01*
X134273809Y-67407200D02*
X134130952Y-67454819D01*
X134130952Y-67454819D02*
X134035714Y-67454819D01*
X134845238Y-66550057D02*
X134892857Y-66502438D01*
X134892857Y-66502438D02*
X134988095Y-66454819D01*
X134988095Y-66454819D02*
X135226190Y-66454819D01*
X135226190Y-66454819D02*
X135321428Y-66502438D01*
X135321428Y-66502438D02*
X135369047Y-66550057D01*
X135369047Y-66550057D02*
X135416666Y-66645295D01*
X135416666Y-66645295D02*
X135416666Y-66740533D01*
X135416666Y-66740533D02*
X135369047Y-66883390D01*
X135369047Y-66883390D02*
X134797619Y-67454819D01*
X134797619Y-67454819D02*
X135416666Y-67454819D01*
X119666666Y-89954819D02*
X119666666Y-90669104D01*
X119666666Y-90669104D02*
X119619047Y-90811961D01*
X119619047Y-90811961D02*
X119523809Y-90907200D01*
X119523809Y-90907200D02*
X119380952Y-90954819D01*
X119380952Y-90954819D02*
X119285714Y-90954819D01*
X120666666Y-90954819D02*
X120095238Y-90954819D01*
X120380952Y-90954819D02*
X120380952Y-89954819D01*
X120380952Y-89954819D02*
X120285714Y-90097676D01*
X120285714Y-90097676D02*
X120190476Y-90192914D01*
X120190476Y-90192914D02*
X120095238Y-90240533D01*
X136261905Y-87494819D02*
X136261905Y-86494819D01*
X136261905Y-86494819D02*
X136500000Y-86494819D01*
X136500000Y-86494819D02*
X136642857Y-86542438D01*
X136642857Y-86542438D02*
X136738095Y-86637676D01*
X136738095Y-86637676D02*
X136785714Y-86732914D01*
X136785714Y-86732914D02*
X136833333Y-86923390D01*
X136833333Y-86923390D02*
X136833333Y-87066247D01*
X136833333Y-87066247D02*
X136785714Y-87256723D01*
X136785714Y-87256723D02*
X136738095Y-87351961D01*
X136738095Y-87351961D02*
X136642857Y-87447200D01*
X136642857Y-87447200D02*
X136500000Y-87494819D01*
X136500000Y-87494819D02*
X136261905Y-87494819D01*
X137785714Y-87494819D02*
X137214286Y-87494819D01*
X137500000Y-87494819D02*
X137500000Y-86494819D01*
X137500000Y-86494819D02*
X137404762Y-86637676D01*
X137404762Y-86637676D02*
X137309524Y-86732914D01*
X137309524Y-86732914D02*
X137214286Y-86780533D01*
X120333333Y-70059580D02*
X120285714Y-70107200D01*
X120285714Y-70107200D02*
X120142857Y-70154819D01*
X120142857Y-70154819D02*
X120047619Y-70154819D01*
X120047619Y-70154819D02*
X119904762Y-70107200D01*
X119904762Y-70107200D02*
X119809524Y-70011961D01*
X119809524Y-70011961D02*
X119761905Y-69916723D01*
X119761905Y-69916723D02*
X119714286Y-69726247D01*
X119714286Y-69726247D02*
X119714286Y-69583390D01*
X119714286Y-69583390D02*
X119761905Y-69392914D01*
X119761905Y-69392914D02*
X119809524Y-69297676D01*
X119809524Y-69297676D02*
X119904762Y-69202438D01*
X119904762Y-69202438D02*
X120047619Y-69154819D01*
X120047619Y-69154819D02*
X120142857Y-69154819D01*
X120142857Y-69154819D02*
X120285714Y-69202438D01*
X120285714Y-69202438D02*
X120333333Y-69250057D01*
X120666667Y-69154819D02*
X121285714Y-69154819D01*
X121285714Y-69154819D02*
X120952381Y-69535771D01*
X120952381Y-69535771D02*
X121095238Y-69535771D01*
X121095238Y-69535771D02*
X121190476Y-69583390D01*
X121190476Y-69583390D02*
X121238095Y-69631009D01*
X121238095Y-69631009D02*
X121285714Y-69726247D01*
X121285714Y-69726247D02*
X121285714Y-69964342D01*
X121285714Y-69964342D02*
X121238095Y-70059580D01*
X121238095Y-70059580D02*
X121190476Y-70107200D01*
X121190476Y-70107200D02*
X121095238Y-70154819D01*
X121095238Y-70154819D02*
X120809524Y-70154819D01*
X120809524Y-70154819D02*
X120714286Y-70107200D01*
X120714286Y-70107200D02*
X120666667Y-70059580D01*
X125333333Y-113409580D02*
X125285714Y-113457200D01*
X125285714Y-113457200D02*
X125142857Y-113504819D01*
X125142857Y-113504819D02*
X125047619Y-113504819D01*
X125047619Y-113504819D02*
X124904762Y-113457200D01*
X124904762Y-113457200D02*
X124809524Y-113361961D01*
X124809524Y-113361961D02*
X124761905Y-113266723D01*
X124761905Y-113266723D02*
X124714286Y-113076247D01*
X124714286Y-113076247D02*
X124714286Y-112933390D01*
X124714286Y-112933390D02*
X124761905Y-112742914D01*
X124761905Y-112742914D02*
X124809524Y-112647676D01*
X124809524Y-112647676D02*
X124904762Y-112552438D01*
X124904762Y-112552438D02*
X125047619Y-112504819D01*
X125047619Y-112504819D02*
X125142857Y-112504819D01*
X125142857Y-112504819D02*
X125285714Y-112552438D01*
X125285714Y-112552438D02*
X125333333Y-112600057D01*
X125714286Y-112600057D02*
X125761905Y-112552438D01*
X125761905Y-112552438D02*
X125857143Y-112504819D01*
X125857143Y-112504819D02*
X126095238Y-112504819D01*
X126095238Y-112504819D02*
X126190476Y-112552438D01*
X126190476Y-112552438D02*
X126238095Y-112600057D01*
X126238095Y-112600057D02*
X126285714Y-112695295D01*
X126285714Y-112695295D02*
X126285714Y-112790533D01*
X126285714Y-112790533D02*
X126238095Y-112933390D01*
X126238095Y-112933390D02*
X125666667Y-113504819D01*
X125666667Y-113504819D02*
X126285714Y-113504819D01*
X125333333Y-69109580D02*
X125285714Y-69157200D01*
X125285714Y-69157200D02*
X125142857Y-69204819D01*
X125142857Y-69204819D02*
X125047619Y-69204819D01*
X125047619Y-69204819D02*
X124904762Y-69157200D01*
X124904762Y-69157200D02*
X124809524Y-69061961D01*
X124809524Y-69061961D02*
X124761905Y-68966723D01*
X124761905Y-68966723D02*
X124714286Y-68776247D01*
X124714286Y-68776247D02*
X124714286Y-68633390D01*
X124714286Y-68633390D02*
X124761905Y-68442914D01*
X124761905Y-68442914D02*
X124809524Y-68347676D01*
X124809524Y-68347676D02*
X124904762Y-68252438D01*
X124904762Y-68252438D02*
X125047619Y-68204819D01*
X125047619Y-68204819D02*
X125142857Y-68204819D01*
X125142857Y-68204819D02*
X125285714Y-68252438D01*
X125285714Y-68252438D02*
X125333333Y-68300057D01*
X126285714Y-69204819D02*
X125714286Y-69204819D01*
X126000000Y-69204819D02*
X126000000Y-68204819D01*
X126000000Y-68204819D02*
X125904762Y-68347676D01*
X125904762Y-68347676D02*
X125809524Y-68442914D01*
X125809524Y-68442914D02*
X125714286Y-68490533D01*
D11*
%TO.C,U2*%
X117840000Y-102175000D02*
X117840000Y-106816000D01*
X117840000Y-102175000D02*
X128080000Y-102175000D01*
X117840000Y-103685000D02*
X128080000Y-103685000D01*
X117840000Y-106816000D02*
X128080000Y-106816000D01*
X121110000Y-102175000D02*
X121110000Y-103685000D01*
X124811000Y-102175000D02*
X124811000Y-103685000D01*
X128080000Y-102175000D02*
X128080000Y-106816000D01*
%TO.C,U1*%
X117840000Y-76175000D02*
X117840000Y-80816000D01*
X117840000Y-76175000D02*
X128080000Y-76175000D01*
X117840000Y-77685000D02*
X128080000Y-77685000D01*
X117840000Y-80816000D02*
X128080000Y-80816000D01*
X121110000Y-76175000D02*
X121110000Y-77685000D01*
X124811000Y-76175000D02*
X124811000Y-77685000D01*
X128080000Y-76175000D02*
X128080000Y-80816000D01*
D12*
%TO.C,S1*%
X129200000Y-74900000D02*
X129700000Y-74900000D01*
X129200000Y-74900000D02*
X129200000Y-75400000D01*
X141100000Y-74900000D02*
X140600000Y-74900000D01*
X141100000Y-74900000D02*
X141100000Y-75400000D01*
X141100000Y-79100000D02*
X140600000Y-79100000D01*
X141100000Y-79100000D02*
X141100000Y-78600000D01*
X129200000Y-79100000D02*
X129200000Y-78600000D01*
X129200000Y-79100000D02*
X129700000Y-79100000D01*
D11*
%TO.C,R3*%
X131630000Y-100500000D02*
X132580000Y-100500000D01*
X132580000Y-99580000D02*
X132580000Y-101420000D01*
X132580000Y-101420000D02*
X136420000Y-101420000D01*
X136420000Y-99580000D02*
X132580000Y-99580000D01*
X136420000Y-101420000D02*
X136420000Y-99580000D01*
X137370000Y-100500000D02*
X136420000Y-100500000D01*
%TO.C,R2*%
X137180000Y-104500000D02*
X136230000Y-104500000D01*
X136230000Y-105420000D02*
X136230000Y-103580000D01*
X136230000Y-103580000D02*
X132390000Y-103580000D01*
X132390000Y-105420000D02*
X136230000Y-105420000D01*
X132390000Y-103580000D02*
X132390000Y-105420000D01*
X131440000Y-104500000D02*
X132390000Y-104500000D01*
%TO.C,R1*%
X132130000Y-82000000D02*
X133080000Y-82000000D01*
X133080000Y-81080000D02*
X133080000Y-82920000D01*
X133080000Y-82920000D02*
X136920000Y-82920000D01*
X136920000Y-81080000D02*
X133080000Y-81080000D01*
X136920000Y-82920000D02*
X136920000Y-81080000D01*
X137870000Y-82000000D02*
X136920000Y-82000000D01*
%TO.C,J7*%
X129380000Y-108880000D02*
X129380000Y-116920000D01*
X129380000Y-108880000D02*
X140120000Y-108880000D01*
X129380000Y-112500000D02*
X130620000Y-112500000D01*
X129380000Y-113500000D02*
X130620000Y-113500000D01*
X129380000Y-114800000D02*
X130620000Y-114800000D01*
X129380000Y-116920000D02*
X132200000Y-116920000D01*
X132800000Y-116920000D02*
X140120000Y-116920000D01*
X134380000Y-112500000D02*
X135688000Y-112500000D01*
X134380000Y-113500000D02*
X135688000Y-113500000D01*
X134380000Y-114800000D02*
X136957000Y-114800000D01*
X138043000Y-114800000D02*
X140120000Y-114800000D01*
X139312000Y-112500000D02*
X140120000Y-112500000D01*
X139312000Y-113500000D02*
X140120000Y-113500000D01*
X140120000Y-108880000D02*
X140120000Y-116920000D01*
X132940000Y-117530000D02*
X132060000Y-117530000D01*
X132500000Y-116920000D01*
X132940000Y-117530000D01*
G36*
X132940000Y-117530000D02*
G01*
X132060000Y-117530000D01*
X132500000Y-116920000D01*
X132940000Y-117530000D01*
G37*
%TO.C,J6*%
X123650000Y-116660000D02*
X123650000Y-115500000D01*
X124460000Y-116660000D02*
X123650000Y-116660000D01*
X125270000Y-116660000D02*
X127745000Y-116660000D01*
X125270000Y-116660000D02*
X125270000Y-116166708D01*
X127745000Y-116660000D02*
X127745000Y-115817923D01*
X127745000Y-115182077D02*
X127745000Y-114340000D01*
X125270000Y-114833292D02*
X125270000Y-114340000D01*
X125270000Y-114340000D02*
X127745000Y-114340000D01*
%TO.C,J5*%
X123150000Y-67660000D02*
X123150000Y-66500000D01*
X123960000Y-67660000D02*
X123150000Y-67660000D01*
X124770000Y-67660000D02*
X127245000Y-67660000D01*
X124770000Y-67660000D02*
X124770000Y-67166708D01*
X127245000Y-67660000D02*
X127245000Y-66817923D01*
X127245000Y-66182077D02*
X127245000Y-65340000D01*
X124770000Y-65833292D02*
X124770000Y-65340000D01*
X124770000Y-65340000D02*
X127245000Y-65340000D01*
%TO.C,J4*%
X141840000Y-65690000D02*
X143000000Y-65690000D01*
X141840000Y-66500000D02*
X141840000Y-65690000D01*
X141840000Y-67310000D02*
X141840000Y-68515000D01*
X141840000Y-67310000D02*
X142333292Y-67310000D01*
X141840000Y-68515000D02*
X142682077Y-68515000D01*
X143317923Y-68515000D02*
X144160000Y-68515000D01*
X143666708Y-67310000D02*
X144160000Y-67310000D01*
X144160000Y-67310000D02*
X144160000Y-68515000D01*
%TO.C,J3*%
X141840000Y-113940000D02*
X143000000Y-113940000D01*
X141840000Y-114750000D02*
X141840000Y-113940000D01*
X141840000Y-115560000D02*
X141840000Y-116765000D01*
X141840000Y-115560000D02*
X142333292Y-115560000D01*
X141840000Y-116765000D02*
X142682077Y-116765000D01*
X143317923Y-116765000D02*
X144160000Y-116765000D01*
X143666708Y-115560000D02*
X144160000Y-115560000D01*
X144160000Y-115560000D02*
X144160000Y-116765000D01*
%TO.C,J2*%
X129380000Y-65380000D02*
X129380000Y-73420000D01*
X129380000Y-65380000D02*
X140120000Y-65380000D01*
X129380000Y-69000000D02*
X130620000Y-69000000D01*
X129380000Y-70000000D02*
X130620000Y-70000000D01*
X129380000Y-71300000D02*
X130620000Y-71300000D01*
X129380000Y-73420000D02*
X132200000Y-73420000D01*
X132800000Y-73420000D02*
X140120000Y-73420000D01*
X134380000Y-69000000D02*
X135688000Y-69000000D01*
X134380000Y-70000000D02*
X135688000Y-70000000D01*
X134380000Y-71300000D02*
X136957000Y-71300000D01*
X138043000Y-71300000D02*
X140120000Y-71300000D01*
X139312000Y-69000000D02*
X140120000Y-69000000D01*
X139312000Y-70000000D02*
X140120000Y-70000000D01*
X140120000Y-65380000D02*
X140120000Y-73420000D01*
X132940000Y-74030000D02*
X132060000Y-74030000D01*
X132500000Y-73420000D01*
X132940000Y-74030000D01*
G36*
X132940000Y-74030000D02*
G01*
X132060000Y-74030000D01*
X132500000Y-73420000D01*
X132940000Y-74030000D01*
G37*
%TO.C,J1*%
X116700000Y-85900000D02*
X131400000Y-85900000D01*
X116700000Y-95100000D02*
X116700000Y-85900000D01*
X125500000Y-95100000D02*
X116700000Y-95100000D01*
X130550000Y-85700000D02*
X131600000Y-85700000D01*
X131400000Y-85900000D02*
X131400000Y-88500000D01*
X131400000Y-92400000D02*
X131400000Y-95100000D01*
X131400000Y-95100000D02*
X129500000Y-95100000D01*
X131600000Y-86750000D02*
X131600000Y-85700000D01*
%TO.C,D1*%
X134940000Y-89101000D02*
X134940000Y-89420000D01*
X134940000Y-91580000D02*
X134940000Y-91899000D01*
X134940000Y-89101251D02*
G75*
G02*
X139243557Y-89419931I2060000J-1398749D01*
G01*
X135316670Y-89420000D02*
G75*
G02*
X138683294Y-89419943I1683330J-1080000D01*
G01*
X138683294Y-91580057D02*
G75*
G02*
X135316670Y-91580000I-1683294J1080057D01*
G01*
X139243558Y-91580069D02*
G75*
G02*
X134940000Y-91898749I-2243558J1080069D01*
G01*
%TO.C,C3*%
X118680000Y-70830000D02*
X118680000Y-71130000D01*
X118680000Y-70830000D02*
X122320000Y-70830000D01*
X118680000Y-72870000D02*
X118680000Y-73170000D01*
X118680000Y-73170000D02*
X122320000Y-73170000D01*
X122320000Y-70830000D02*
X122320000Y-71130000D01*
X122320000Y-72870000D02*
X122320000Y-73170000D01*
%TO.C,C2*%
X126265000Y-111920000D02*
X124735000Y-111920000D01*
X126265000Y-110080000D02*
X124735000Y-110080000D01*
%TO.C,C1*%
X127620000Y-72000000D02*
G75*
G02*
X123380000Y-72000000I-2120000J0D01*
G01*
X123380000Y-72000000D02*
G75*
G02*
X127620000Y-72000000I2120000J0D01*
G01*
%TD*%
M02*
