%TF.GenerationSoftware,KiCad,Pcbnew,9.0.1*%
%TF.CreationDate,2025-05-11T23:30:34+05:30*%
%TF.ProjectId,Breadboard Power Supply,42726561-6462-46f6-9172-6420506f7765,1*%
%TF.SameCoordinates,Original*%
%TF.FileFunction,Copper,L1,Top*%
%TF.FilePolarity,Positive*%
%FSLAX46Y46*%
G04 Gerber Fmt 4.6, Leading zero omitted, Abs format (unit mm)*
G04 Created by KiCad (PCBNEW 9.0.1) date 2025-05-11 23:30:34*
%MOMM*%
%LPD*%
G01*
G04 APERTURE LIST*
G04 Aperture macros list*
%AMRoundRect*
0 Rectangle with rounded corners*
0 $1 Rounding radius*
0 $2 $3 $4 $5 $6 $7 $8 $9 X,Y pos of 4 corners*
0 Add a 4 corners polygon primitive as box body*
4,1,4,$2,$3,$4,$5,$6,$7,$8,$9,$2,$3,0*
0 Add four circle primitives for the rounded corners*
1,1,$1+$1,$2,$3*
1,1,$1+$1,$4,$5*
1,1,$1+$1,$6,$7*
1,1,$1+$1,$8,$9*
0 Add four rect primitives between the rounded corners*
20,1,$1+$1,$2,$3,$4,$5,0*
20,1,$1+$1,$4,$5,$6,$7,0*
20,1,$1+$1,$6,$7,$8,$9,0*
20,1,$1+$1,$8,$9,$2,$3,0*%
G04 Aperture macros list end*
%TA.AperFunction,ComponentPad*%
%ADD10R,1.905000X2.000000*%
%TD*%
%TA.AperFunction,ComponentPad*%
%ADD11O,1.905000X2.000000*%
%TD*%
%TA.AperFunction,ComponentPad*%
%ADD12R,1.900000X1.900000*%
%TD*%
%TA.AperFunction,ComponentPad*%
%ADD13C,1.900000*%
%TD*%
%TA.AperFunction,ComponentPad*%
%ADD14C,1.400000*%
%TD*%
%TA.AperFunction,ComponentPad*%
%ADD15O,1.400000X1.400000*%
%TD*%
%TA.AperFunction,ComponentPad*%
%ADD16RoundRect,0.250001X-1.149999X-1.149999X1.149999X-1.149999X1.149999X1.149999X-1.149999X1.149999X0*%
%TD*%
%TA.AperFunction,ComponentPad*%
%ADD17C,2.800000*%
%TD*%
%TA.AperFunction,ComponentPad*%
%ADD18R,1.000000X1.000000*%
%TD*%
%TA.AperFunction,ComponentPad*%
%ADD19C,1.000000*%
%TD*%
%TA.AperFunction,ComponentPad*%
%ADD20R,3.500000X3.500000*%
%TD*%
%TA.AperFunction,ComponentPad*%
%ADD21RoundRect,0.750000X-0.750000X-1.000000X0.750000X-1.000000X0.750000X1.000000X-0.750000X1.000000X0*%
%TD*%
%TA.AperFunction,ComponentPad*%
%ADD22RoundRect,0.875000X-0.875000X-0.875000X0.875000X-0.875000X0.875000X0.875000X-0.875000X0.875000X0*%
%TD*%
%TA.AperFunction,ComponentPad*%
%ADD23R,1.800000X1.800000*%
%TD*%
%TA.AperFunction,ComponentPad*%
%ADD24C,1.800000*%
%TD*%
%TA.AperFunction,ComponentPad*%
%ADD25C,1.600000*%
%TD*%
%TA.AperFunction,ComponentPad*%
%ADD26C,1.200000*%
%TD*%
%TA.AperFunction,Conductor*%
%ADD27C,0.200000*%
%TD*%
G04 APERTURE END LIST*
D10*
%TO.P,U2,1,VI*%
%TO.N,/12V*%
X120420000Y-105445000D03*
D11*
%TO.P,U2,2,GND*%
%TO.N,GND*%
X122960000Y-105445000D03*
%TO.P,U2,3,VO*%
%TO.N,/5V*%
X125500000Y-105445000D03*
%TD*%
D10*
%TO.P,U1,1,ADJ*%
%TO.N,Net-(U1-ADJ)*%
X120420000Y-79445000D03*
D11*
%TO.P,U1,2,VO*%
%TO.N,/3.3V*%
X122960000Y-79445000D03*
%TO.P,U1,3,VI*%
%TO.N,/12V*%
X125500000Y-79445000D03*
%TD*%
D12*
%TO.P,S1,1*%
%TO.N,/12V*%
X137500000Y-77000000D03*
D13*
%TO.P,S1,2*%
%TO.N,/PWR_input*%
X135000000Y-77000000D03*
%TO.P,S1,3*%
%TO.N,unconnected-(S1-Pad3)*%
X132500000Y-77000000D03*
%TD*%
D14*
%TO.P,R3,1*%
%TO.N,/3.3V*%
X130690000Y-100500000D03*
D15*
%TO.P,R3,2*%
%TO.N,Net-(U1-ADJ)*%
X138310000Y-100500000D03*
%TD*%
D14*
%TO.P,R2,1*%
%TO.N,Net-(U1-ADJ)*%
X138120000Y-104500000D03*
D15*
%TO.P,R2,2*%
%TO.N,GND*%
X130500000Y-104500000D03*
%TD*%
D14*
%TO.P,R1,1*%
%TO.N,/12V*%
X131190000Y-82000000D03*
D15*
%TO.P,R1,2*%
%TO.N,Net-(D1-A)*%
X138810000Y-82000000D03*
%TD*%
D16*
%TO.P,J7,1,Pin_1*%
%TO.N,GND*%
X132500000Y-113000000D03*
D17*
%TO.P,J7,2,Pin_2*%
%TO.N,/PWR_output*%
X137500000Y-113000000D03*
%TD*%
D18*
%TO.P,J6,1,Pin_1*%
%TO.N,/3.3V*%
X124460000Y-115500000D03*
D19*
%TO.P,J6,2,Pin_2*%
%TO.N,/PWR_output*%
X125730000Y-115500000D03*
%TO.P,J6,3,Pin_3*%
%TO.N,/5V*%
X127000000Y-115500000D03*
%TD*%
D18*
%TO.P,J5,1,Pin_1*%
%TO.N,/3.3V*%
X123960000Y-66500000D03*
D19*
%TO.P,J5,2,Pin_2*%
%TO.N,/PWR_output*%
X125230000Y-66500000D03*
%TO.P,J5,3,Pin_3*%
%TO.N,/5V*%
X126500000Y-66500000D03*
%TD*%
D18*
%TO.P,J4,1,Pin_1*%
%TO.N,GND*%
X143000000Y-66500000D03*
D19*
%TO.P,J4,2,Pin_2*%
%TO.N,/PWR_output*%
X143000000Y-67770000D03*
%TD*%
D18*
%TO.P,J3,1,Pin_1*%
%TO.N,GND*%
X143000000Y-114750000D03*
D19*
%TO.P,J3,2,Pin_2*%
%TO.N,/PWR_output*%
X143000000Y-116020000D03*
%TD*%
D16*
%TO.P,J2,1,Pin_1*%
%TO.N,GND*%
X132500000Y-69500000D03*
D17*
%TO.P,J2,2,Pin_2*%
%TO.N,/PWR_output*%
X137500000Y-69500000D03*
%TD*%
D20*
%TO.P,J1,1*%
%TO.N,/PWR_input*%
X130500000Y-90500000D03*
D21*
%TO.P,J1,2*%
%TO.N,GND*%
X124500000Y-90500000D03*
D22*
%TO.P,J1,3*%
X127500000Y-95200000D03*
%TD*%
D23*
%TO.P,D1,1,K*%
%TO.N,GND*%
X135730000Y-90500000D03*
D24*
%TO.P,D1,2,A*%
%TO.N,Net-(D1-A)*%
X138270000Y-90500000D03*
%TD*%
D25*
%TO.P,C3,1*%
%TO.N,/3.3V*%
X119250000Y-72000000D03*
%TO.P,C3,2*%
%TO.N,GND*%
X121750000Y-72000000D03*
%TD*%
%TO.P,C2,1*%
%TO.N,/5V*%
X126750000Y-111000000D03*
%TO.P,C2,2*%
%TO.N,GND*%
X124250000Y-111000000D03*
%TD*%
D26*
%TO.P,C1,1*%
%TO.N,/12V*%
X124750000Y-72000000D03*
%TO.P,C1,2*%
%TO.N,GND*%
X126250000Y-72000000D03*
%TD*%
D27*
%TO.N,/PWR_input*%
X135000000Y-77000000D02*
X134000000Y-78000000D01*
X134000000Y-78000000D02*
X134000000Y-81500000D01*
X130500000Y-85000000D02*
X130500000Y-90500000D01*
X134000000Y-81500000D02*
X130500000Y-85000000D01*
%TO.N,/PWR_output*%
X137500000Y-113000000D02*
X140520000Y-116020000D01*
X140520000Y-116020000D02*
X143000000Y-116020000D01*
%TO.N,/5V*%
X125500000Y-105445000D02*
X125500000Y-107500000D01*
X125500000Y-107500000D02*
X125000000Y-108000000D01*
X117500000Y-76500000D02*
X118500000Y-75500000D01*
X125000000Y-108000000D02*
X118000000Y-108000000D01*
X118500000Y-75500000D02*
X121500000Y-75500000D01*
X125000000Y-69500000D02*
X126500000Y-68000000D01*
X126500000Y-68000000D02*
X126500000Y-66500000D01*
X118000000Y-108000000D02*
X117500000Y-107500000D01*
X123000000Y-70500000D02*
X124000000Y-69500000D01*
X117500000Y-107500000D02*
X117500000Y-76500000D01*
X121500000Y-75500000D02*
X123000000Y-74000000D01*
X123000000Y-74000000D02*
X123000000Y-70500000D01*
X124000000Y-69500000D02*
X125000000Y-69500000D01*
%TO.N,/PWR_output*%
X137500000Y-69500000D02*
X139000000Y-71000000D01*
X139000000Y-71000000D02*
X139000000Y-80000000D01*
X139000000Y-80000000D02*
X140500000Y-81500000D01*
X140500000Y-81500000D02*
X140500000Y-108000000D01*
X140500000Y-108000000D02*
X137500000Y-111000000D01*
X137500000Y-111000000D02*
X137500000Y-113000000D01*
X125730000Y-115500000D02*
X125730000Y-115730000D01*
X125730000Y-115730000D02*
X126500000Y-116500000D01*
X126500000Y-116500000D02*
X134000000Y-116500000D01*
X134000000Y-116500000D02*
X137500000Y-113000000D01*
%TO.N,/5V*%
X126750000Y-111000000D02*
X126750000Y-111250000D01*
X126750000Y-111250000D02*
X127000000Y-111500000D01*
X127000000Y-111500000D02*
X127000000Y-115500000D01*
X126750000Y-111000000D02*
X126750000Y-106695000D01*
X126750000Y-106695000D02*
X125500000Y-105445000D01*
%TO.N,/12V*%
X137500000Y-77000000D02*
X137500000Y-78000000D01*
X135500000Y-82500000D02*
X133500000Y-84500000D01*
X133500000Y-101500000D02*
X133000000Y-102000000D01*
X137500000Y-78000000D02*
X135500000Y-80000000D01*
X135500000Y-80000000D02*
X135500000Y-82500000D01*
X133500000Y-84500000D02*
X133500000Y-101500000D01*
X133000000Y-102000000D02*
X123000000Y-102000000D01*
X123000000Y-102000000D02*
X120420000Y-104580000D01*
X120420000Y-104580000D02*
X120420000Y-105445000D01*
X137500000Y-77000000D02*
X135500000Y-75000000D01*
X135500000Y-75000000D02*
X132000000Y-75000000D01*
X132000000Y-75000000D02*
X130500000Y-76500000D01*
X130500000Y-76500000D02*
X130500000Y-81310000D01*
X130500000Y-81310000D02*
X131190000Y-82000000D01*
%TO.N,/3.3V*%
X122960000Y-79445000D02*
X122960000Y-87540000D01*
X122960000Y-87540000D02*
X121500000Y-89000000D01*
X121500000Y-89000000D02*
X121500000Y-93000000D01*
X121500000Y-93000000D02*
X123000000Y-94500000D01*
X123000000Y-94500000D02*
X124000000Y-94500000D01*
X124000000Y-94500000D02*
X124500000Y-95000000D01*
X124500000Y-95000000D02*
X124500000Y-98000000D01*
X124500000Y-98000000D02*
X125500000Y-99000000D01*
X125500000Y-99000000D02*
X129190000Y-99000000D01*
X129190000Y-99000000D02*
X130690000Y-100500000D01*
%TO.N,Net-(U1-ADJ)*%
X138120000Y-104500000D02*
X138120000Y-100690000D01*
X138120000Y-100690000D02*
X138310000Y-100500000D01*
%TO.N,Net-(D1-A)*%
X138810000Y-82000000D02*
X138810000Y-89960000D01*
X138810000Y-89960000D02*
X138270000Y-90500000D01*
%TO.N,/PWR_input*%
X131500000Y-89000000D02*
X130000000Y-90500000D01*
%TO.N,/12V*%
X124750000Y-72000000D02*
X124750000Y-78695000D01*
X124750000Y-78695000D02*
X125500000Y-79445000D01*
X126000000Y-81000000D02*
X129000000Y-81000000D01*
X125500000Y-80500000D02*
X126000000Y-81000000D01*
X129000000Y-81000000D02*
X130000000Y-82000000D01*
X125500000Y-79445000D02*
X125500000Y-80500000D01*
X130000000Y-82000000D02*
X131190000Y-82000000D01*
%TO.N,/PWR_output*%
X125230000Y-66500000D02*
X126129000Y-65601000D01*
X126129000Y-65601000D02*
X136101000Y-65601000D01*
X136101000Y-65601000D02*
X137500000Y-67000000D01*
X137500000Y-67000000D02*
X137500000Y-69500000D01*
X143000000Y-67770000D02*
X139230000Y-67770000D01*
X139230000Y-67770000D02*
X137500000Y-69500000D01*
%TO.N,/3.3V*%
X119250000Y-72000000D02*
X119250000Y-67750000D01*
X119250000Y-67750000D02*
X120500000Y-66500000D01*
X120500000Y-66500000D02*
X123960000Y-66500000D01*
%TD*%
M02*
